<svg width="310" height="310" viewBox="0 0 310 310" fill="none" xmlns="http://www.w3.org/2000/svg">
<path d="M53.4938 277.512C-2.56043 245.148 -2.56043 192.671 53.4938 160.332C109.548 127.993 200.434 127.968 256.507 160.332C312.579 192.696 312.561 245.173 256.507 277.512C200.452 309.851 109.554 309.882 53.4938 277.512Z" fill="#F5F5F5"/>
<path d="M98.3573 279.075C122.683 279.075 142.402 267.691 142.402 253.649C142.402 239.606 122.683 228.223 98.3573 228.223C74.032 228.223 54.3125 239.606 54.3125 253.649C54.3125 267.691 74.032 279.075 98.3573 279.075Z" fill="#E0E0E0"/>
<path d="M200.157 241.765C230.698 225.293 248.812 199.618 240.615 184.42C232.418 169.222 201.014 170.254 170.472 186.727C139.931 203.199 121.817 228.873 130.014 244.072C138.211 259.27 169.615 258.238 200.157 241.765Z" fill="#E0E0E0"/>
<path d="M230.546 205.66C236.653 198.381 246.22 193.638 256.977 190.836C267.603 188.077 269.507 181.536 262.464 179.421C254.484 177.016 244.527 181.43 238.104 187.574C226.919 198.282 225.512 206.46 225.512 206.46L230.546 205.66Z" fill="#55C1B3"/>
<path opacity="0.15" d="M230.546 205.66C236.653 198.381 246.22 193.638 256.977 190.836C267.603 188.077 269.507 181.536 262.464 179.421C254.484 177.016 244.527 181.43 238.104 187.574C226.919 198.282 225.512 206.46 225.512 206.46L230.546 205.66Z" fill="black"/>
<path d="M227.403 205.219C227.358 205.228 227.311 205.228 227.266 205.219C227.229 205.201 227.197 205.176 227.17 205.145C227.143 205.115 227.122 205.079 227.109 205.041C227.095 205.002 227.09 204.961 227.092 204.921C227.095 204.88 227.106 204.84 227.124 204.803C236.188 186.203 256.264 181.628 261.124 181.975C261.206 181.981 261.281 182.019 261.334 182.081C261.388 182.142 261.415 182.222 261.41 182.304C261.402 182.385 261.362 182.461 261.3 182.514C261.237 182.567 261.157 182.594 261.075 182.589C256.313 182.229 236.603 186.761 227.682 205.076C227.651 205.122 227.609 205.159 227.561 205.184C227.512 205.209 227.457 205.221 227.403 205.219Z" fill="white"/>
<path d="M225.512 207.593C225.512 207.892 225.592 208.186 225.742 208.444C225.893 208.703 226.11 208.916 226.37 209.064C226.63 209.211 226.925 209.287 227.224 209.284C227.523 209.28 227.816 209.198 228.072 209.044C233.752 205.74 242.035 203.911 255.439 207.73C262.569 209.757 266.078 208.399 267.579 205.498C269.253 202.274 265.719 199.155 261.689 197.686C247.968 192.67 235.587 196.092 225.512 206.099V207.593Z" fill="#55C1B3"/>
<path d="M226.299 207.861C226.255 207.861 226.212 207.853 226.171 207.836C226.131 207.819 226.094 207.793 226.064 207.761C226.007 207.702 225.975 207.623 225.975 207.541C225.975 207.459 226.007 207.38 226.064 207.321C237.912 196.732 256.264 198.796 263.208 202.925C263.278 202.967 263.33 203.034 263.35 203.113C263.371 203.192 263.36 203.276 263.32 203.347C263.277 203.418 263.208 203.469 263.128 203.49C263.049 203.511 262.964 203.5 262.892 203.459C256.072 199.41 238.092 197.395 226.479 207.799C226.427 207.836 226.364 207.858 226.299 207.861Z" fill="white"/>
<path d="M92.9504 232.283C87.7424 224.334 78.802 218.494 68.448 214.445C58.2304 210.452 57.1082 203.738 64.3498 202.461C72.5586 201.016 81.9268 206.577 87.5812 213.435C97.4268 225.388 97.8546 233.69 97.8546 233.69L92.9504 232.283Z" fill="#55C1B3"/>
<path opacity="0.15" d="M92.9504 232.283C87.7424 224.334 78.802 218.494 68.448 214.445C58.2304 210.452 57.1082 203.738 64.3498 202.461C72.5586 201.016 81.9268 206.577 87.5812 213.435C97.4268 225.388 97.8546 233.69 97.8546 233.69L92.9504 232.283Z" fill="black"/>
<path d="M96.0995 232.233C96.1446 232.242 96.1909 232.242 96.2359 232.233C96.3133 232.205 96.3767 232.148 96.4126 232.073C96.4485 231.999 96.4541 231.914 96.4281 231.836C89.6081 212.3 70.2393 205.387 65.3537 205.176C65.2725 205.173 65.1932 205.201 65.1329 205.256C65.0726 205.31 65.0361 205.386 65.0313 205.467C65.0295 205.55 65.0593 205.63 65.1147 205.691C65.17 205.752 65.2467 205.79 65.3289 205.796C70.1029 205.994 89.1369 212.821 95.8391 232.059C95.8632 232.109 95.9001 232.151 95.9458 232.181C95.9916 232.212 96.0446 232.23 96.0995 232.233Z" fill="white"/>
<path d="M97.8974 233.312C97.8488 233.753 97.6874 234.173 97.4289 234.534C97.1704 234.894 96.8234 235.181 96.4215 235.368C96.0196 235.555 95.5762 235.635 95.1343 235.601C94.6923 235.567 94.2667 235.419 93.8984 235.172C88.6408 231.651 80.8102 229.363 67.9824 231.452C60.6664 232.624 57.3432 230.832 56.2024 227.8C54.9252 224.403 58.8064 221.731 62.979 220.745C77.1956 217.384 89.0872 222.245 97.9098 233.362L97.8974 233.312Z" fill="#55C1B3"/>
<path d="M96.918 234.979C96.9613 234.985 97.0054 234.982 97.0472 234.969C97.089 234.956 97.1275 234.934 97.1598 234.904C97.217 234.845 97.249 234.767 97.249 234.684C97.249 234.602 97.217 234.523 97.1598 234.464C86.6198 222.554 68.1748 222.436 60.7906 225.716C60.715 225.75 60.6558 225.812 60.6262 225.889C60.5965 225.967 60.5988 226.053 60.6325 226.128C60.6662 226.204 60.7286 226.263 60.8059 226.293C60.8832 226.322 60.9692 226.32 61.0448 226.286C68.2802 223.069 86.3842 223.186 96.6948 234.873C96.7218 234.907 96.7558 234.933 96.7944 234.952C96.833 234.97 96.8753 234.979 96.918 234.979Z" fill="white"/>
<path d="M236.108 90.6246L236.009 90.575L212.374 76.9722L212.232 76.904C201.19 71.324 186.458 73.0042 170.611 83.2466C138.78 103.831 114.526 151.211 116.436 189.074C117.384 207.941 124.663 220.88 135.656 226.572L135.749 226.622L159.389 240.231L159.501 240.293C170.543 245.873 185.287 244.217 201.146 233.962C232.977 213.378 257.231 165.998 255.322 128.135C254.386 109.256 247.107 96.3162 236.108 90.6246Z" fill="#37474F"/>
<path d="M158.578 239.789L135.78 226.608L135.669 226.54C124.676 220.836 117.403 207.897 116.449 189.055C115.599 172.166 119.958 153.399 127.857 135.97L128.012 135.586L151.497 149.573C143.586 167.001 139.24 185.769 140.089 202.658C140.988 221.127 147.976 233.912 158.578 239.789Z" fill="#263238"/>
<path d="M201.16 233.949C232.99 213.365 257.245 165.985 255.335 128.121C253.426 90.2579 226.071 76.2583 194.24 96.8423C162.41 117.426 138.149 164.807 140.059 202.664C141.968 240.521 169.329 254.533 201.16 233.949Z" fill="#455A64"/>
<path d="M228.115 87.6855L188.218 169.879L179.631 160.579C177.071 157.913 173.567 156.358 169.872 156.247C166.178 156.136 162.587 157.479 159.872 159.987C157.156 162.494 155.533 165.967 155.349 169.659C155.166 173.35 156.438 176.967 158.892 179.731L181.516 204.239C184.004 206.942 187.451 208.562 191.12 208.753C191.38 208.753 191.641 208.753 191.901 208.753C192.586 208.752 193.269 208.703 193.947 208.604C196.224 208.273 198.386 207.388 200.243 206.029C202.099 204.669 203.595 202.875 204.599 200.805L250.355 106.565C245.661 96.099 237.849 89.6137 228.115 87.6855Z" fill="#37474F"/>
<path d="M260.517 60.6174C260.269 60.4748 260.009 60.3384 259.749 60.2144C256.824 58.7974 253.458 58.5982 250.387 59.6606C247.316 60.723 244.792 62.9601 243.368 65.8812L192.603 170.45L189.713 167.35C188.879 166.439 187.909 165.663 186.837 165.05C185.324 164.182 178.888 160.456 177.847 159.855C175.308 158.386 172.327 157.876 169.444 158.418C166.561 158.96 163.969 160.517 162.137 162.808C160.304 165.098 159.354 167.97 159.459 170.901C159.564 173.832 160.716 176.629 162.706 178.783L185.33 203.286C186.178 204.206 187.163 204.99 188.25 205.611C189.726 206.448 196.137 210.168 197.191 210.775C198.649 211.619 200.265 212.154 201.939 212.346C203.612 212.537 205.308 212.382 206.919 211.889C208.53 211.396 210.022 210.577 211.302 209.482C212.582 208.386 213.622 207.039 214.358 205.524L274.418 81.8152C275.768 79.027 276.014 75.8314 275.107 72.8694C274.2 69.9073 272.206 67.3977 269.526 65.844L260.517 60.6174Z" fill="#55C1B3"/>
<path opacity="0.15" d="M260.517 60.6174C260.269 60.4748 260.009 60.3384 259.749 60.2144C256.824 58.7974 253.458 58.5982 250.387 59.6606C247.316 60.723 244.792 62.9601 243.368 65.8812L192.603 170.45L189.713 167.35C188.879 166.439 187.909 165.663 186.837 165.05C185.324 164.182 178.888 160.456 177.847 159.855C175.308 158.386 172.327 157.876 169.444 158.418C166.561 158.96 163.969 160.517 162.137 162.808C160.304 165.098 159.354 167.97 159.459 170.901C159.564 173.832 160.716 176.629 162.706 178.783L185.33 203.286C186.178 204.206 187.163 204.99 188.25 205.611C189.726 206.448 196.137 210.168 197.191 210.775C198.649 211.619 200.265 212.154 201.939 212.346C203.612 212.537 205.308 212.382 206.919 211.889C208.53 211.396 210.022 210.577 211.302 209.482C212.582 208.386 213.622 207.039 214.358 205.524L274.418 81.8152C275.768 79.027 276.014 75.8314 275.107 72.8694C274.2 69.9073 272.206 67.3977 269.526 65.844L260.517 60.6174Z" fill="black"/>
<path opacity="0.15" d="M197.159 210.749C196.118 210.129 189.719 206.409 188.225 205.584C187.138 204.964 186.153 204.18 185.305 203.259L162.681 178.757C161.684 177.669 160.892 176.408 160.344 175.037L169.34 180.227C169.885 181.602 170.682 182.863 171.69 183.947L194.307 208.449C195.14 209.352 196.101 210.127 197.159 210.749Z" fill="black"/>
<path opacity="0.15" d="M255.211 67.3069C254.029 68.3675 253.065 69.6478 252.372 71.0765L200.155 178.634L192.604 170.45L243.369 65.8809C244.061 64.4497 245.028 63.1688 246.215 62.1113L255.211 67.3069Z" fill="black"/>
<path d="M268.75 65.4095C265.825 63.9959 262.459 63.7985 259.389 64.8605C256.319 65.9226 253.795 68.1575 252.369 71.0763L200.153 178.634L189.718 167.325C187.485 165.057 184.457 163.746 181.275 163.672C178.093 163.597 175.006 164.764 172.669 166.925C170.332 169.087 168.928 172.072 168.755 175.251C168.581 178.429 169.651 181.55 171.738 183.953L194.356 208.462C195.71 209.927 197.401 211.039 199.282 211.702C201.163 212.365 203.178 212.559 205.151 212.267C207.124 211.975 208.997 211.206 210.605 210.026C212.214 208.847 213.51 207.293 214.382 205.498L274.441 81.7899C275.856 78.8626 276.052 75.4933 274.985 72.422C273.918 69.3507 271.675 66.8285 268.75 65.4095Z" fill="#55C1B3"/>
<path d="M222.964 57.857L219.486 58.9048L216.975 50.5162L220.44 49.4746L222.964 57.857Z" fill="#E0E0E0"/>
<path d="M233.819 50.4119C233.848 50.7521 233.768 51.0928 233.591 51.3847C233.413 51.6767 233.148 51.9048 232.833 52.0363C233.059 52.2927 233.226 52.5952 233.323 52.9229C233.521 53.5429 232.994 54.4419 231.946 54.7829L223.992 57.1761L221.654 49.3827C221.654 49.3827 223 45.9417 223.068 45.4209C223.136 44.9001 222.342 42.9905 222.231 42.6309C222.119 42.2713 223.409 41.8001 224.426 42.2093C224.662 42.3144 224.874 42.4687 225.046 42.6619C225.411 43.0513 225.718 43.492 225.957 43.9701C226.295 44.6514 226.461 45.4048 226.441 46.1649L231.258 44.6955C231.591 44.5752 231.955 44.5752 232.287 44.6955C232.505 44.7815 232.697 44.9223 232.844 45.1042C232.991 45.2861 233.089 45.5031 233.127 45.7339C233.166 45.9647 233.145 46.2016 233.065 46.4216C232.985 46.6416 232.849 46.8372 232.672 46.9895C232.958 46.9687 233.244 47.0448 233.482 47.2055C233.721 47.3663 233.898 47.6024 233.986 47.8761C234.06 48.1942 234.021 48.528 233.876 48.8207C233.731 49.1134 233.49 49.347 233.192 49.4819C233.514 49.6988 233.739 50.0323 233.819 50.4119Z" fill="#E0E0E0"/>
<path d="M272.8 144.837L268.342 143.764L270.94 133.014L275.397 134.086L272.8 144.837Z" fill="#E0E0E0"/>
<path d="M289.397 143.628C289.212 144.018 288.909 144.338 288.53 144.544C288.151 144.751 287.717 144.831 287.289 144.775C287.37 145.198 287.359 145.634 287.258 146.052C287.06 146.889 285.925 147.503 284.586 147.175L274.381 144.695L276.786 134.706C276.786 134.706 280.451 131.811 280.854 131.284C281.257 130.757 281.604 128.184 281.715 127.707C281.827 127.229 283.532 127.552 284.381 128.649C284.588 128.916 284.732 129.225 284.803 129.554C284.954 130.21 285.008 130.885 284.964 131.557C284.897 132.517 284.599 133.446 284.096 134.266L290.259 135.754C290.696 135.847 291.087 136.091 291.363 136.442C291.515 136.643 291.624 136.874 291.68 137.12C291.737 137.366 291.741 137.621 291.691 137.868C291.609 138.194 291.437 138.491 291.194 138.724C290.952 138.957 290.65 139.118 290.321 139.189C290.647 139.349 290.91 139.613 291.068 139.941C291.225 140.268 291.268 140.639 291.189 140.993C291.063 141.385 290.807 141.722 290.463 141.948C290.119 142.173 289.708 142.274 289.298 142.233C289.511 142.668 289.547 143.168 289.397 143.628Z" fill="#E0E0E0"/>
<path d="M47.627 138.409L52.494 139.872L56.0156 128.129L51.1548 126.666L47.627 138.409Z" fill="#E0E0E0"/>
<path d="M32.4192 127.974C32.3786 128.451 32.4906 128.928 32.7392 129.337C32.9877 129.746 33.3598 130.066 33.8018 130.25C33.4893 130.61 33.2568 131.033 33.1198 131.49C32.8408 132.401 33.5848 133.622 35.0418 134.056L46.2018 137.411L49.463 126.48C49.463 126.48 47.572 121.656 47.479 120.9C47.386 120.144 48.502 117.502 48.6508 116.994C48.7748 116.585 47.0016 115.835 45.5508 116.411C45.2058 116.546 44.8962 116.758 44.6456 117.031C44.1304 117.585 43.7 118.212 43.3684 118.891C42.8933 119.854 42.6593 120.918 42.6864 121.991L35.9904 119.97C35.5182 119.815 35.0062 119.832 34.5458 120.02C34.2406 120.14 33.9718 120.337 33.7656 120.592C33.5593 120.847 33.4227 121.151 33.3689 121.474C33.3152 121.798 33.3463 122.13 33.4591 122.438C33.5719 122.745 33.7626 123.019 34.0126 123.231C33.6079 123.196 33.2034 123.3 32.8655 123.526C32.5275 123.751 32.2762 124.084 32.1526 124.471C32.0495 124.918 32.1036 125.386 32.3058 125.797C32.508 126.208 32.8459 126.537 33.2624 126.728C32.8376 127.025 32.5374 127.469 32.4192 127.974Z" fill="#E0E0E0"/>
</svg>
