<svg width="177" height="161" viewBox="0 0 177 161" fill="none" xmlns="http://www.w3.org/2000/svg">
<path d="M12.6571 160.909H164.386C166.588 160.906 168.751 160.326 170.66 159.227C172.569 158.128 174.159 156.548 175.271 154.644C176.383 152.74 176.979 150.578 176.999 148.371C177.02 146.165 176.465 143.992 175.389 142.067L99.5103 6.45225C98.4114 4.49471 96.8125 2.8654 94.8776 1.73151C92.9427 0.597612 90.7415 0 88.5 0C86.2584 0 84.0573 0.597612 82.1224 1.73151C80.1875 2.8654 78.5886 4.49471 77.4897 6.45225L1.61114 142.067C0.533292 143.995 -0.0219489 146.172 0.000664097 148.382C0.0232771 150.592 0.622948 152.757 1.74003 154.663C2.8571 156.568 4.45266 158.147 6.36795 159.243C8.28325 160.339 10.4515 160.913 12.6571 160.909Z" fill="#C18955"/>
<path d="M19.7752 152.329H157.214C162.474 152.329 165.837 146.399 163.221 141.583L94.509 13.3504C93.9501 12.2402 93.0915 11.3067 92.0292 10.6543C90.9669 10.0018 89.743 9.65625 88.4944 9.65625C87.2458 9.65625 86.0218 10.0018 84.9595 10.6543C83.8973 11.3067 83.0386 12.2402 82.4797 13.3504L13.7678 141.583C11.1808 146.399 14.5151 152.329 19.7752 152.329Z" stroke="white" stroke-width="0.788267" stroke-miterlimit="10"/>
<path d="M86.3605 110.493H90.2041C93.1585 110.493 95.6396 107.728 95.9408 104.079L99.727 62.749C100.114 58.4734 97.418 54.7109 93.9903 54.7109H81.9576C78.4439 54.7109 75.7333 58.5447 76.2209 62.8773L80.6238 104.208C80.9824 107.799 83.4491 110.493 86.3605 110.493Z" fill="white"/>
<path d="M96.545 126.045C96.545 127.637 96.0731 129.192 95.1891 130.515C94.3051 131.838 93.0485 132.87 91.5784 133.478C90.1083 134.087 88.4906 134.247 86.93 133.936C85.3693 133.626 83.9357 132.86 82.8106 131.734C81.6854 130.609 80.9191 129.176 80.6087 127.615C80.2983 126.054 80.4576 124.437 81.0665 122.967C81.6755 121.496 82.7067 120.24 84.0298 119.356C85.3528 118.472 86.9083 118 88.4996 118C90.6333 118 92.6797 118.848 94.1885 120.356C95.6973 121.865 96.545 123.912 96.545 126.045Z" fill="white"/>
</svg>
