<svg width="28" height="21" viewBox="0 0 28 21" fill="none" xmlns="http://www.w3.org/2000/svg">
    <path
        d="M12.8 5.25C12.8 7.90847 10.8001 10 8.4 10C5.99995 10 4 7.90847 4 5.25C4 2.59153 5.99995 0.5 8.4 0.5C10.8001 0.5 12.8 2.59153 12.8 5.25ZM8.4 13.25C9.52155 13.25 10.5721 12.9676 11.516 12.5H11.76C14.2344 12.5 16.3 14.6618 16.3 17.4V18.75C16.3 19.7491 15.5513 20.5 14.7 20.5H2.1C1.2487 20.5 0.5 19.7491 0.5 18.75V17.4C0.5 14.6618 2.56557 12.5 5.04 12.5H5.28448C6.23124 12.9673 7.27771 13.25 8.4 13.25ZM24.7 6C24.7 8.24128 23.0107 10 21 10C18.9893 10 17.3 8.24128 17.3 6C17.3 3.75872 18.9893 2 21 2C23.0107 2 24.7 3.75872 24.7 6ZM21 12.875C21.7236 12.875 22.398 12.7228 23.0218 12.5H23.1C25.5001 12.5 27.5 14.5915 27.5 17.25C27.5 18.2491 26.7513 19 25.9 19H18.7V17.4C18.7 15.6929 18.1425 14.129 17.2263 12.878C17.7474 12.6375 18.3087 12.5 18.9 12.5H18.9782C19.602 12.7228 20.2764 12.875 21 12.875Z"
        stroke="#D8E6FD" />
</svg>