<svg width="22" height="21" viewBox="0 0 22 21" fill="none" xmlns="http://www.w3.org/2000/svg">
    <path
        d="M18.5669 20.2542L18.5669 20.2543C18.5721 20.3743 18.6806 20.5001 18.8531 20.5001H21.2135C21.2135 20.5001 21.2135 20.5001 21.2135 20.5001C21.4007 20.5 21.5041 20.3589 21.4999 20.2452C21.0982 9.56557 12.0886 0.887257 0.793291 0.500194L18.5669 20.2542ZM18.5669 20.2542C18.1701 11.015 10.4072 3.63116 0.778442 3.25429M18.5669 20.2542L0.778442 3.25429M0.778442 3.25429L0.758853 3.75391L0.778442 3.25429ZM0.798783 7.26149L0.798802 7.2615C8.16254 7.64132 14.0219 13.2674 14.4167 20.2412C14.4231 20.3556 14.3202 20.5 14.1304 20.5H14.1304H11.7699C11.5944 20.5 11.4894 20.3749 11.4821 20.2681C11.1053 14.7463 6.48594 10.3728 0.762085 10.0169L0.762032 10.0169C0.598516 10.0068 0.5 9.8809 0.5 9.76511V7.51188C0.5 7.38918 0.615863 7.25205 0.798783 7.26149ZM5.78969 17.9981C5.78969 19.3582 4.62772 20.5 3.14482 20.5C1.66193 20.5 0.5 19.3582 0.5 17.9981C0.5 16.638 1.66197 15.4962 3.14487 15.4962C4.62776 15.4962 5.78969 16.638 5.78969 17.9981Z"
        stroke="#5564C1" />
</svg>