<svg width="24" height="30" viewBox="0 0 24 30" fill="none" xmlns="http://www.w3.org/2000/svg">
    <path
        d="M20.4 0H3.6C2.94 0 2.4 0.55 2.4 1.22222C2.4 1.89444 2.94 2.44444 3.6 2.44444H20.4C21.06 2.44444 21.6 1.89444 21.6 1.22222C21.6 0.55 21.06 0 20.4 0ZM3.6 29.3333H20.4C21.06 29.3333 21.6 28.7833 21.6 28.1111C21.6 27.4389 21.06 26.8889 20.4 26.8889H3.6C2.94 26.8889 2.4 27.4389 2.4 28.1111C2.4 28.7833 2.94 29.3333 3.6 29.3333ZM21.6 4.88889H2.4C1.08 4.88889 0 5.98889 0 7.33333V22C0 23.3444 1.08 24.4444 2.4 24.4444H21.6C22.92 24.4444 24 23.3444 24 22V7.33333C24 5.98889 22.92 4.88889 21.6 4.88889ZM12 8.25C13.488 8.25 14.7 9.48444 14.7 11C14.7 12.5156 13.488 13.75 12 13.75C10.512 13.75 9.3 12.5156 9.3 11C9.3 9.48444 10.512 8.25 12 8.25ZM18 20.7778H6V18.9444C6 16.9033 9.996 15.8889 12 15.8889C14.004 15.8889 18 16.9033 18 18.9444V20.7778Z"
        fill="#D8E6FD" />
</svg>