<svg width="24" height="24" viewBox="0 0 24 24" fill="none" xmlns="http://www.w3.org/2000/svg">
    <path
        d="M13.9616 1.96633L13.9616 1.96634L2.72444 12.0239L2.39099 11.6513L2.72444 12.0239C-0.205314 14.6461 -0.252787 18.8569 2.6518 21.4793L2.31674 21.8504L2.65181 21.4793C5.61435 24.1541 10.4885 24.1859 13.4888 21.5006L22.7063 13.2507L22.7063 13.2507C22.7684 13.1952 22.7845 13.1388 22.784 13.0969C22.7835 13.0549 22.7656 12.9979 22.7011 12.9426L23.0261 12.5627L22.701 12.9426L21.4755 11.8943C21.3264 11.7668 21.0652 11.7706 20.9219 11.8989L20.9219 11.8989L11.7044 20.1489L11.7043 20.1489C9.68892 21.9526 6.45548 21.9506 4.44344 20.134C2.38943 18.2796 2.43145 15.2351 4.50884 13.3757L4.50885 13.3757L15.746 3.31816C15.746 3.31816 15.746 3.31816 15.746 3.31816C16.9644 2.2277 18.8999 2.2283 20.1176 3.31815L19.7842 3.69073L20.1176 3.31816C21.3909 4.45775 21.3911 6.33647 20.1182 7.4757L20.118 7.47586L10.3228 16.2343C9.89202 16.62 9.23198 16.6131 8.80886 16.2206L8.80882 16.2206C8.32438 15.7712 8.39033 15.0356 8.85011 14.624L8.85036 14.6238L16.5501 7.74158L16.8833 8.11437L16.5501 7.74158C16.6122 7.68608 16.6284 7.62972 16.6279 7.58782C16.6274 7.54579 16.6096 7.48877 16.5451 7.43351L15.3204 6.3845L15.6457 6.00476L15.3204 6.38449C15.1716 6.25702 14.9104 6.26051 14.7668 6.38887L7.06652 13.2715L13.9616 1.96633ZM13.9616 1.96633C16.1458 0.0113068 19.7176 0.011137 21.902 1.96633L22.2355 1.59377M13.9616 1.96633L22.2355 1.59377M22.2355 1.59377L21.902 1.96634C24.0314 3.87212 24.0339 6.91975 21.9022 8.82773C21.9022 8.82778 21.9021 8.82784 21.902 8.82789L12.1067 17.5864L12.1066 17.5866M22.2355 1.59377L12.1066 17.5866M12.1066 17.5866C10.6989 18.8464 8.37766 18.8279 6.99528 17.5458M12.1066 17.5866L6.99528 17.5458M6.99528 17.5458C5.70275 16.347 5.73564 14.4629 7.06627 13.2717L6.99528 17.5458Z"
        stroke="#5564C1" />
</svg>