<svg width="24" height="25" viewBox="0 0 24 25" fill="none" xmlns="http://www.w3.org/2000/svg">
    <path
        d="M19.5615 4.42013C19.1299 4.85174 19.094 5.52313 19.4776 6.0027C21.216 8.18473 22.1272 11.17 21.3119 14.2992C20.3648 17.9559 17.4994 20.6894 13.8667 21.4208C7.75219 22.6317 2.39303 17.9079 2.39303 11.9973C2.39303 7.1057 6.04973 3.07734 10.7855 2.48987V4.91168C7.03284 5.54711 4.27533 9.05994 4.87479 13.1003C5.34237 16.2295 7.94402 18.7472 11.0852 19.1308C15.4492 19.6704 19.1779 16.2654 19.1779 11.9973C19.1779 10.4986 18.7223 9.11988 17.943 7.96892C17.5354 7.36946 16.6602 7.3335 16.1446 7.83704L16.1326 7.84903C15.725 8.25666 15.689 8.89209 16.0007 9.37166C16.7201 10.4747 17.0078 11.8894 16.5882 13.3521C16.1206 14.9946 14.7419 16.3014 13.0634 16.6731C9.94621 17.3564 7.1887 15.0066 7.1887 11.9973C7.1887 9.7673 8.72332 7.90898 10.7855 7.36946V9.93515C10.0661 10.3548 9.58654 11.1101 9.58654 11.9973C9.58654 13.3161 10.6656 14.3951 11.9844 14.3951C13.3032 14.3951 14.3822 13.3161 14.3822 11.9973C14.3822 11.1101 13.9026 10.3428 13.1833 9.93515V0.859342C13.1833 0.391764 12.7996 0.00811074 12.3321 0.00811074C5.90586 -0.231673 0.366861 4.87572 0.0191746 11.2779C-0.412436 19.1308 6.50532 25.4491 14.4182 23.7467C19.07 22.7516 22.6667 19.1908 23.7098 14.551C24.561 10.7624 23.47 7.16565 21.3479 4.51604C20.9043 3.95255 20.0651 3.91658 19.5615 4.42013Z"
        fill="white" />
</svg>