<svg width="24" height="27" viewBox="0 0 24 27" fill="none" xmlns="http://www.w3.org/2000/svg">
    <path
        d="M19.5 2.66667V3.16667H20H21.3333C22.5239 3.16667 23.5 4.14281 23.5 5.33333V24C23.5 25.1905 22.5239 26.1667 21.3333 26.1667H2.66667C1.4645 26.1667 0.500097 25.1922 0.5 24.0002C0.5 24.0001 0.5 24.0001 0.5 24L0.513333 5.33369V5.33333C0.513333 4.13789 1.4677 3.16667 2.66667 3.16667H4H4.5V2.66667V1.33333C4.5 0.876142 4.87614 0.5 5.33333 0.5C5.79052 0.5 6.16667 0.876142 6.16667 1.33333V2.66667V3.16667H6.66667H17.3333H17.8333V2.66667V1.33333C17.8333 0.876143 18.2095 0.5 18.6667 0.5C19.1239 0.5 19.5 0.876142 19.5 1.33333V2.66667ZM2.66667 8.83333H2.16667V9.33333V22.6667C2.16667 23.6761 2.99052 24.5 4 24.5H20C21.0095 24.5 21.8333 23.6761 21.8333 22.6667V9.33333V8.83333H21.3333H2.66667ZM7.5 12.5V14.1667H5.83333V12.5H7.5ZM11.1667 12.5H12.8333V14.1667H11.1667V12.5ZM18.1667 12.5V14.1667H16.5V12.5H18.1667Z"
        stroke="#D8E6FD" />
</svg>