<svg width="24" height="17" viewBox="0 0 24 17" fill="none" xmlns="http://www.w3.org/2000/svg">
    <path
        d="M3.99117 8.05995L0.194608 11.7168C-0.0648694 11.9789 -0.0648694 12.3852 0.194608 12.6474L3.99117 16.3042C4.41453 16.7236 5.152 16.4222 5.152 15.8454V13.4862H13.3597C14.1108 13.4862 14.7254 12.8964 14.7254 12.1755C14.7254 11.4546 14.1108 10.8648 13.3597 10.8648H5.152V8.51869C5.152 7.92888 4.41453 7.64053 3.99117 8.05995ZM23.8071 3.85263L20.0105 0.19581C19.5871 -0.223611 18.8497 0.0778478 18.8497 0.654551V3.00069H10.6283C9.87722 3.00069 9.26267 3.5905 9.26267 4.31138C9.26267 5.03226 9.87722 5.62207 10.6283 5.62207H18.836V7.9682C18.836 8.55801 19.5735 8.84636 19.9968 8.42694L23.7934 4.77012C24.0665 4.52109 24.0665 4.10167 23.8071 3.85263Z"
        fill="#D8E6FD" />
</svg>