<svg width="25" height="25" viewBox="0 0 25 25" fill="none" xmlns="http://www.w3.org/2000/svg">
    <path
        d="M10.9299 10.807C11.3237 10.807 11.6683 10.5363 11.6683 10.2163V4.77631C11.6683 4.45631 11.3483 4.18555 10.9299 4.18555C10.536 4.18555 10.1914 4.45631 10.1914 4.77631V10.2163C10.216 10.5363 10.536 10.807 10.9299 10.807Z"
        fill="#D8E6FD" />
    <path
        d="M10.9311 14.0301C11.4234 14.0301 11.8172 13.6363 11.8172 13.144C11.8172 12.6517 11.4234 12.2578 10.9311 12.2578C10.4388 12.2578 10.0449 12.6517 10.0449 13.144C10.0695 13.6609 10.4634 14.0301 10.9311 14.0301Z"
        fill="#D8E6FD" />
    <path
        d="M21.2199 21.4401C22.5491 20.0124 23.3368 18.0925 23.3368 15.9755C23.3368 13.7848 22.4507 11.791 21.023 10.3633C20.4076 15.5079 15.9769 19.4955 10.6354 19.4709H8.05078C9.35539 22.1786 12.1369 24.0493 15.3369 24.0493L24.0999 24.0247L21.2199 21.4401Z"
        fill="#D8E6FD" />
    <path
        d="M17.3549 2.68306C15.6318 0.984607 13.3672 0.0246152 10.9303 0C5.90879 0 1.82267 4.06151 1.82267 9.05839C1.82267 11.1015 2.5119 13.0953 3.74266 14.6707L3.8165 14.7691L0.0996094 18.1168L10.9549 18.1414C15.9518 18.1414 20.0133 14.0799 20.0133 9.08301C19.9887 6.67072 19.0533 4.3815 17.3549 2.68306ZM10.9303 17.0091L3.17651 16.9845L5.51495 14.8676L5.09649 14.4245C3.76727 12.9722 3.02882 11.0522 3.02882 9.05839C3.02882 4.72612 6.5734 1.20614 10.9303 1.20614C13.0718 1.20614 15.0656 2.04306 16.5179 3.54459C17.9949 5.04611 18.8072 7.03994 18.8072 9.13223C18.8318 13.4645 15.2872 17.0091 10.9303 17.0091Z"
        fill="#D8E6FD" />
</svg>