<svg width="24" height="24" viewBox="0 0 24 24" fill="none" xmlns="http://www.w3.org/2000/svg">
    <path
        d="M17.2552 12.6928L18.6693 11.28L20.0835 12.6928L24 8.77733L21.3749 6.1536C20.4011 7.12747 18.8203 7.12747 17.8464 6.1536C16.8725 5.1784 16.8725 3.59893 17.8464 2.62507L15.2213 0L11.308 3.91413L12.7213 5.33093L11.308 6.74507L9.89387 5.33093L0 15.224L2.62507 17.8491C3.59893 16.8739 5.1784 16.8739 6.15253 17.8491C7.12587 18.8229 7.12587 20.4011 6.15253 21.3776L8.7768 24L18.6693 14.108L17.2552 12.6928ZM12.3469 7.7864L13.7605 6.37093L15.1747 7.7864L13.7605 9.20053L12.3469 7.7864ZM14.8021 10.2395L16.2163 8.82533L17.6304 10.2395L16.2163 11.6536L14.8021 10.2395Z"
        fill="#D8E6FD" />
</svg>