<svg width="24" height="21" viewBox="0 0 24 21" fill="none" xmlns="http://www.w3.org/2000/svg">
    <path
        d="M3.15717 15.9969L3.22506 15.7232L3.02592 15.5235C1.43651 13.9296 0.5 11.9239 0.5 9.75C0.5 4.73223 5.54598 0.5 12 0.5C18.454 0.5 23.5 4.73223 23.5 9.75C23.5 14.7678 18.454 19 12 19C10.2618 19 8.61977 18.6786 7.14166 18.1226L6.87602 18.0227L6.65405 18.1996C5.57894 19.0562 3.4641 20.4092 0.657924 20.4956C0.866859 20.2529 1.21391 19.828 1.58876 19.282C2.17 18.4354 2.84353 17.2615 3.15717 15.9969ZM0.464397 20.7128C0.465487 20.7116 0.466668 20.7104 0.467939 20.709C0.466806 20.7103 0.465642 20.7115 0.464447 20.7128L0.464397 20.7128ZM4 9.75C4 10.8558 4.89417 11.75 6 11.75C7.10583 11.75 8 10.8558 8 9.75C8 8.64417 7.10583 7.75 6 7.75C4.89417 7.75 4 8.64417 4 9.75ZM10 9.75C10 10.8558 10.8942 11.75 12 11.75C13.1058 11.75 14 10.8558 14 9.75C14 8.64417 13.1058 7.75 12 7.75C10.8942 7.75 10 8.64417 10 9.75ZM16 9.75C16 10.8558 16.8942 11.75 18 11.75C19.1058 11.75 20 10.8558 20 9.75C20 8.64417 19.1058 7.75 18 7.75C16.8942 7.75 16 8.64417 16 9.75Z"
        stroke="#D8E6FD" />
</svg>