<svg width="24" height="29" viewBox="0 0 24 29" fill="none" xmlns="http://www.w3.org/2000/svg">
    <path
        d="M16.4211 0H2.52632C1.13684 0 0 1.16591 0 2.59091V19.4318C0 20.1443 0.568421 20.7273 1.26316 20.7273C1.95789 20.7273 2.52632 20.1443 2.52632 19.4318V3.88636C2.52632 3.17386 3.09474 2.59091 3.78947 2.59091H16.4211C17.1158 2.59091 17.6842 2.00795 17.6842 1.29545C17.6842 0.582955 17.1158 0 16.4211 0ZM17.1663 5.94614L23.2674 12.2032C23.7347 12.6825 24 13.3432 24 14.0298V25.9091C24 27.3341 22.8632 28.5 21.4737 28.5H7.56632C6.17684 28.5 5.05263 27.3341 5.05263 25.9091L5.06526 7.77273C5.06526 6.34773 6.18947 5.18182 7.57895 5.18182H15.3726C16.0421 5.18182 16.6863 5.45386 17.1663 5.94614ZM16.4211 14.25H22.1053L15.1579 7.125V12.9545C15.1579 13.667 15.7263 14.25 16.4211 14.25Z"
        fill="#D8E6FD" />
</svg>