<?xml version="1.0" standalone="no"?>
<!DOCTYPE svg PUBLIC "-//W3C//DTD SVG 20010904//EN"
 "http://www.w3.org/TR/2001/REC-SVG-20010904/DTD/svg10.dtd">
<svg version="1.0" xmlns="http://www.w3.org/2000/svg"
 width="2099.000000pt" height="258.000000pt" viewBox="0 0 999.500000 128.000000"
 preserveAspectRatio="xMidYMid meet">

<g transform="translate(0.000000,158.000000) scale(0.100000,-0.100000)"
fill="#f26500" stroke="none">
<path d="M9550 1486 c0 -10 14 -16 43 -18 l42 -3 3 -107 c2 -86 6 -108 17
-108 11 0 15 22 17 108 l3 107 38 3 c24 2 37 8 37 18 0 11 -20 14 -100 14 -80
0 -100 -3 -100 -14z"/>
<path d="M9790 1376 c0 -105 2 -126 15 -126 12 0 15 15 15 79 0 44 4 82 9 86
5 3 22 -33 37 -80 37 -113 51 -113 91 3 17 48 34 86 39 85 5 -2 10 -41 12 -88
2 -67 6 -85 17 -85 12 0 15 22 15 126 l0 125 -27 -3 c-23 -3 -30 -13 -61 -101
-19 -53 -38 -95 -41 -92 -3 4 -20 48 -37 98 -28 83 -33 92 -57 95 l-27 3 0
-125z"/>
<path d="M8725 1234 c-310 -35 -488 -145 -556 -343 -27 -76 -35 -185 -20 -263
39 -197 183 -330 430 -396 85 -22 116 -25 266 -25 151 0 181 3 267 26 284 75
428 238 428 480 -1 291 -196 471 -560 516 -80 10 -188 12 -255 5z m300 -292
c102 -46 157 -126 158 -227 1 -104 -67 -194 -177 -232 -78 -27 -262 -24 -337
5 -72 29 -143 101 -159 163 -35 131 34 252 173 301 77 27 272 21 342 -10z"/>
<path d="M624 1202 c-19 -12 -486 -953 -480 -968 4 -11 38 -14 162 -14 l156 0
26 32 c78 92 145 129 247 136 l70 4 135 -70 c74 -38 154 -75 178 -82 75 -20
189 -28 268 -19 78 8 199 43 209 59 4 7 -85 202 -100 218 -2 2 -44 -7 -94 -19
-80 -19 -98 -21 -157 -11 -37 6 -88 22 -113 35 -25 13 -77 40 -115 60 -83 43
-180 67 -270 67 -37 0 -66 3 -66 8 0 15 139 295 156 313 21 24 56 24 76 2 9
-10 41 -67 71 -128 63 -126 105 -171 192 -211 67 -31 154 -37 217 -15 l37 12
-146 292 c-80 161 -150 295 -157 299 -6 4 -119 8 -251 8 -132 0 -245 -4 -251
-8z"/>
<path d="M1797 1203 c-4 -3 -7 -60 -7 -125 l0 -118 302 -2 301 -3 -309 -280
-309 -281 -3 -82 -3 -82 561 0 560 0 0 113 c0 75 -4 117 -12 125 -9 9 -87 12
-291 12 -166 0 -277 4 -275 9 2 5 137 132 301 282 l298 273 -3 80 -3 81 -551
3 c-303 1 -554 -1 -557 -5z"/>
<path d="M3185 1198 c-3 -7 -4 -227 -3 -488 l3 -475 520 -3 c480 -2 521 -1
533 15 8 11 12 53 12 120 l0 103 -350 0 -351 0 3 63 3 62 288 3 287 2 0 115 0
115 -287 2 -288 3 -3 68 -3 67 341 0 341 0 -3 118 -3 117 -518 3 c-409 2 -519
0 -522 -10z"/>
<path d="M4542 723 l3 -488 175 0 175 0 3 225 c1 123 6 228 10 232 5 5 154
-97 333 -227 l324 -235 103 0 102 0 -2 488 -3 487 -175 0 -175 0 -3 -222 c-1
-123 -4 -223 -7 -223 -2 0 -145 101 -316 225 l-312 225 -119 0 -118 0 2 -487z"/>
<path d="M5997 1203 c-4 -3 -7 -62 -7 -130 l0 -123 220 0 220 0 0 -360 0 -360
190 0 190 0 0 360 0 360 220 0 221 0 -3 128 -3 127 -621 3 c-341 1 -624 -1
-627 -5z"/>
<path d="M7507 1203 c-4 -3 -7 -224 -7 -490 l0 -483 185 0 185 0 0 478 c0 358
-3 481 -12 490 -13 13 -339 18 -351 5z"/>
</g>
</svg>
