<?xml version="1.0" standalone="no"?>
<!DOCTYPE svg PUBLIC "-//W3C//DTD SVG 20010904//EN"
 "http://www.w3.org/TR/2001/REC-SVG-20010904/DTD/svg10.dtd">
<svg version="1.0" xmlns="http://www.w3.org/2000/svg"
 width="800.000000pt" height="660.000000pt" viewBox="0 0 560.000000 360.000000"
 preserveAspectRatio="xMidYMid meet">

<g transform="translate(0.000000,360.000000) scale(0.100000,-0.100000)"
fill="#f26500" stroke="none">
<path d="M0 1805 l0 -1685 3000 0 3000 0 0 1685 0 1685 -3000 0 -3000 0 0
-1685z m4380 1420 c0 -24 -3 -25 -55 -25 l-55 0 0 -155 0 -155 -35 0 -35 0 0
155 0 155 -55 0 c-52 0 -55 1 -55 25 l0 25 145 0 145 0 0 -25z m162 -109 l45
-135 49 132 49 132 43 3 42 3 0 -180 0 -181 -30 0 -30 0 -1 138 0 137 -47
-135 c-46 -131 -48 -135 -76 -135 -29 0 -31 4 -72 125 l-42 125 -1 -127 -1
-128 -30 0 -30 0 0 180 0 180 44 0 44 0 44 -134z m-1017 -295 c25 -15 85 -127
335 -625 255 -507 303 -608 290 -616 -35 -24 -152 -52 -235 -57 -159 -9 -305
38 -447 146 -103 78 -153 148 -273 387 -67 132 -121 225 -138 240 -37 31 -87
32 -121 2 -15 -14 -88 -155 -175 -338 l-150 -315 172 -6 c238 -9 382 -50 577
-164 232 -136 331 -169 515 -168 121 0 143 4 395 79 11 4 46 -57 133 -231 64
-129 117 -239 117 -244 0 -18 -246 -104 -364 -126 -188 -36 -421 -29 -609 19
-141 36 -241 79 -393 168 -207 121 -257 140 -384 146 -128 5 -200 -10 -319
-70 -89 -45 -191 -134 -223 -195 -9 -18 -32 -42 -50 -53 -31 -19 -50 -20 -353
-20 -340 0 -345 1 -345 47 0 13 220 463 489 1001 398 796 494 980 517 994 26
16 73 17 519 18 462 0 492 -1 520 -19z"/>
</g>
</svg>
