<svg width="23" height="25" viewBox="0 0 23 25" fill="none" xmlns="http://www.w3.org/2000/svg">
    <path
        d="M12.464 12.7457L12.7268 13.0324L13.0694 12.8482C14.0639 12.3136 15.2967 12.4842 16.1336 13.3972L21.1652 18.8863C21.6122 19.3739 21.614 20.1871 21.1648 20.6814C21.1645 20.6816 21.1643 20.6819 21.1641 20.6821L18.9008 23.1512L18.8996 23.1525C18.4756 23.6182 17.8033 23.6201 17.3735 23.1512L12.3418 17.6621C11.4953 16.7387 11.3225 15.3382 11.8322 14.2015L11.9668 13.9014L11.7446 13.659L7.16409 8.66214L7.01546 8.5H6.79551H4.39016L0.639565 3.04458L2.80134 0.68628L7.75215 4.73694V7.41094V7.60543L7.88357 7.7488L12.464 12.7457ZM21.3295 5.22808L21.3299 5.22999C21.8035 7.30552 21.2942 9.58079 19.8203 11.1887C19.3988 11.6486 18.923 12.0102 18.4177 12.2903L17.8418 11.6621C16.8925 10.6265 15.618 10.0469 14.2549 10.0469C13.9595 10.0469 13.6605 10.0761 13.367 10.1321L10.165 6.63898C10.1793 5.05688 10.7196 3.49975 11.8047 2.31599C13.2684 0.719244 15.3183 0.185072 17.1735 0.683768C17.1746 0.684095 17.1761 0.684804 17.1791 0.688188C17.1842 0.693767 17.1922 0.705812 17.1971 0.724774C17.2078 0.766113 17.1956 0.795795 17.182 0.810575L17.5453 1.14359L17.182 0.810575L13.9851 4.29808L13.8233 4.47461L13.8594 4.71134L14.345 7.89415L14.3988 8.24696L14.7499 8.31071L17.6675 8.8404L17.939 8.88968L18.1254 8.6863L21.3195 5.20181C21.3202 5.20289 21.3209 5.20413 21.3217 5.20558C21.324 5.20993 21.327 5.21712 21.3295 5.22808ZM1.17424 19.2191L1.17435 19.219L7.35422 12.4729L9.25293 14.5442C9.10535 15.4468 9.18649 16.3574 9.43989 17.2065L4.32576 22.7856C3.44971 23.7413 2.05029 23.7413 1.17424 22.7856C0.275253 21.8049 0.275253 20.1998 1.17424 19.2191ZM1.2209 21C1.2209 21.853 1.86876 22.625 2.75215 22.625C3.64113 22.625 4.2834 21.8516 4.2834 21C4.2834 20.1423 3.63984 19.375 2.75215 19.375C1.86446 19.375 1.2209 20.1423 1.2209 21Z"
        stroke="#354081" />
</svg>