<svg width="24" height="24" viewBox="0 0 24 24" fill="none" xmlns="http://www.w3.org/2000/svg">
    <path
        d="M18.6802 2.98524L18.6799 2.985C18.3595 2.75943 17.9102 2.86114 17.7178 3.19607C17.7177 3.19618 17.7176 3.19629 17.7176 3.1964L16.9535 4.53375L16.9525 4.53542C16.7945 4.8095 16.8656 5.16107 17.1287 5.35332C19.3572 6.98044 20.6135 9.51025 20.629 12.1349C20.6599 16.9451 16.6957 20.6905 12 20.6905C7.20509 20.6905 3.36594 16.8624 3.37098 12.1854M18.6802 2.98524L6.86636 5.35815C4.73664 6.91368 3.37109 9.38394 3.37098 12.1854M18.6802 2.98524C21.6029 5.03973 23.5 8.39556 23.5 12.1905M18.6802 2.98524L23.5 12.1905M3.37098 12.1854C3.37098 12.1853 3.37098 12.1852 3.37098 12.1851L3.87098 12.1857H3.37098C3.37098 12.1856 3.37098 12.1855 3.37098 12.1854ZM6.282 3.19566L6.28157 3.1949C6.09362 2.86461 5.64286 2.75846 5.3097 2.9903C2.39219 5.04952 0.495424 8.41445 0.500008 12.2088L6.282 3.19566ZM6.282 3.19566L7.04644 4.53363M6.282 3.19566L7.04644 4.53363M23.5 12.1905C23.5 18.4213 18.3697 23.4863 12.0231 23.5M23.5 12.1905L12.0231 23.5M12.0231 23.5C5.68691 23.5137 0.509337 18.4297 0.500008 12.2089L12.0231 23.5ZM7.04644 4.53363C7.04647 4.53367 7.04649 4.53371 7.04651 4.53375M7.04644 4.53363L7.04651 4.53375M7.04651 4.53375C7.20491 4.81131 7.13148 5.16446 6.86639 5.35813L7.04651 4.53375ZM13.4355 1.14286V12.5714C13.4355 12.9211 13.1492 13.2143 12.7742 13.2143H11.2258C10.8508 13.2143 10.5645 12.9211 10.5645 12.5714V1.14286C10.5645 0.793178 10.8508 0.5 11.2258 0.5H12.7742C13.1492 0.5 13.4355 0.793178 13.4355 1.14286Z"
        stroke="#354081" />
</svg>