<svg width="48" height="28" viewBox="0 0 48 28" fill="none" xmlns="http://www.w3.org/2000/svg">
    <path d="M0 14.0039H48V0.00462151H0V14.0039Z" fill="#313B9A" />
    <path d="M0 28H48V14.0008H0V28Z" fill="#BD1B32" />
    <path d="M0 0.00146866V28L24.3704 14.0008L0 0.00146866Z" fill="white" />
    <path
        d="M3.29335 25.3064L2.21226 24.6758L1.28122 25.5195L1.5472 24.2954L0.45752 23.6761L1.706 23.5474L1.96052 22.3232L2.46392 23.4688L3.70953 23.33L2.77285 24.1681L3.29335 25.3064Z"
        fill="#EFD01C" />
    <path
        d="M5.57457 12.5273L3.99433 11.6335L3.92995 11.1144L5.71758 12.3314L5.57457 12.5273ZM5.86631 12.187L3.95285 10.7111L3.87988 9.85163L4.65645 9.82303L6.24241 11.768L5.86631 12.187ZM6.5785 11.4719L5.66465 9.9017L5.13695 9.84018L6.38829 11.6164L6.5785 11.4719Z"
        fill="#EFD01C" />
    <path
        d="M7.3792 11.1758L6.90723 9.42677L7.23473 9.00776L7.61655 11.1472L7.3792 11.1758ZM7.82681 11.1472L7.5308 8.74461L8.09712 8.09104L8.6591 8.62733L8.3874 11.12L7.82681 11.1472ZM8.83214 11.1472L9.30984 9.39817L8.98234 8.98486L8.59479 11.12L8.83214 11.1472Z"
        fill="#EFD01C" />
    <path
        d="M9.6333 11.5357L10.5643 9.98259L11.0892 9.92683L9.82065 11.6801L9.6333 11.5357ZM9.96366 11.8317L11.491 9.954L12.3491 9.90965L12.3548 10.6862L10.377 12.2222L9.96366 11.8317ZM10.6615 12.5625L12.2504 11.6859L12.3233 11.1667L10.5185 12.368L10.6615 12.5625Z"
        fill="#EFD01C" />
    <path
        d="M10.916 13.297L12.6664 12.8222L13.0797 13.1454L10.946 13.5373L10.916 13.297ZM10.946 13.7432L13.3514 13.4471L14.0022 14.0121L13.4659 14.5755L10.9746 14.3023L10.946 13.7432ZM10.9432 14.75L12.6951 15.2305L13.1055 14.9001L10.9746 14.5097L10.9432 14.75Z"
        fill="#EFD01C" />
    <path
        d="M10.6086 15.4694L12.186 16.3532L12.259 16.878L10.4628 15.6653L10.6086 15.4694ZM10.3211 15.8112L12.2432 17.2799L12.3118 18.1351L11.5382 18.168L9.94357 16.2302L10.3211 15.8112ZM9.61182 16.5319L10.5328 18.0907L11.0548 18.1508L9.79917 16.3803L9.61182 16.5319Z"
        fill="#EFD01C" />
    <path
        d="M8.81776 16.829L9.29825 18.5766L8.97648 18.9898L8.58034 16.8561L8.81776 16.829ZM8.37008 16.8561L8.68047 19.2587L8.12554 19.918L7.55497 19.3817L7.80663 16.8905L8.37008 16.8561ZM7.36189 16.8619L6.90137 18.6166L7.23173 19.0299L7.59931 16.8905L7.36189 16.8619Z"
        fill="#EFD01C" />
    <path
        d="M6.58263 16.4976L5.67883 18.0736L5.15253 18.1294L6.39674 16.3532L6.58263 16.4976ZM6.25087 16.2073L4.75073 18.1065L3.89693 18.168L3.87402 17.3914L5.83182 15.8269L6.25087 16.2073ZM5.53868 15.4865L3.96557 16.3861L3.89979 16.9109L5.68455 15.6767L5.53868 15.4865Z"
        fill="#EFD01C" />
    <path
        d="M5.26579 14.7304L3.51678 15.2109L3.10067 14.8863L5.23437 14.4902L5.26579 14.7304ZM5.23437 14.2828L2.83462 14.596L2.17822 14.0368L2.70878 13.4677L5.20148 13.7194L5.23437 14.2828ZM5.22864 13.2774L3.47816 12.8141L3.06205 13.1387L5.20148 13.512L5.22864 13.2774Z"
        fill="#EFD01C" />
    <path
        d="M8.08847 11.0517C9.71735 11.0517 11.0416 12.3703 11.0416 14.0006C11.0416 15.6324 9.71735 16.9609 8.08847 16.9609C6.45815 16.9609 5.13672 15.6324 5.13672 14.0006C5.13672 12.3703 6.45815 11.0517 8.08847 11.0517Z"
        fill="#EFD01C" />
    <path
        d="M18.2509 15.0199L18.9931 14.0089L18.248 12.9978L19.4379 13.3882L20.1686 12.3728L20.1644 13.6242L21.3599 14.0032L20.1644 14.3836L20.1715 15.6406L19.4436 14.6238L18.2509 15.0199Z"
        fill="#EFD01C" />
    <path
        d="M3.29335 2.3861L2.21226 3.01676L1.28122 2.17445L1.5472 3.40288L0.45752 4.02356L1.706 4.14653L1.96052 5.375L2.46392 4.22949L3.70953 4.36391L2.77285 3.53161L3.29335 2.3861Z"
        fill="#EFD01C" />
</svg>