<svg width="45" height="28" viewBox="0 0 45 28" fill="none" xmlns="http://www.w3.org/2000/svg">
    <path d="M44.3057 27.8086H0V-0.000738144H44.3057V27.8086Z" fill="#F68923" />
    <path d="M44.3057 27.8086H0V13.4419H44.3057V27.8086Z" fill="#3FB94D" />
    <path d="M0 18.5H44.3297V9.14267H0V18.5Z" fill="white" />
    <path
        d="M23.6885 14.145L23.663 14.2357L26.1209 15.3774L23.6032 14.4706L23.5797 14.4597L23.5485 14.5383L25.7172 16.0955L23.4229 14.7383L23.3688 14.8143L25.1729 16.7826L23.1989 14.9835L23.16 15.0278L24.5729 17.293L22.9652 15.1679L22.8828 15.2185L23.8037 17.7253L22.6709 15.3169L22.6 15.3373V15.3425L23.0354 18.0143L22.3709 15.4211L22.3656 15.3919L22.2718 15.4107L22.1526 18.1133L22.0322 15.4425V15.4159H21.9776L21.3636 18.0466L21.738 15.3998L21.7433 15.3826L21.6442 15.3611L20.5062 17.8065L21.4166 15.2878L21.4229 15.2783L21.3584 15.2466L19.7813 17.4373L21.1442 15.1315L21.1494 15.1185L21.0745 15.0665L19.0896 16.8799L20.8933 14.9075L20.8994 14.9023L20.8604 14.8529L18.5766 16.2758L20.7136 14.6638L20.6656 14.5799L18.1464 15.4971L20.5661 14.3559L20.5494 14.3195L17.9068 14.7545L20.4844 14.0955L20.474 13.9919L17.8037 13.8742L20.4573 13.7518L20.462 13.681L17.8636 13.0826L20.4912 13.4466L20.5218 13.3477L18.1032 12.2253L20.5989 13.1237L20.6266 13.069L18.4406 11.5013L20.7412 12.8638L20.8057 12.7826L18.9922 10.7982L20.9636 12.6039L21.0146 12.5518L19.5964 10.2799L21.2042 12.4107L21.2969 12.3586L20.3766 9.83728L21.5094 12.2518L21.5964 12.2253L21.1656 9.60128L21.8256 12.1706L21.9281 12.1611L22.0494 9.49448L22.1693 12.1559L22.2396 12.1611L22.8396 9.56115L22.4688 12.1945L22.5713 12.2211L23.6953 9.80128L22.7906 12.3039L22.8448 12.3346L24.4209 10.1398L23.0589 12.445L23.0469 12.4545L23.1286 12.5143L25.124 10.6893L23.3141 12.6679L23.2969 12.6835L23.3396 12.7278L25.6406 11.2982L23.5042 12.9075L23.4828 12.9237L23.5322 13.0065H23.5376L26.0822 12.0717L23.6578 13.2133L23.6286 13.2237L23.6526 13.2826L26.3109 12.8477L23.7172 13.5117H23.7057L23.7172 13.6117L26.4156 13.7305L23.7448 13.8502H23.7224V13.9107L26.3604 14.5195L23.7057 14.1502L23.6885 14.145Z"
        fill="#383E9E" />
    <path
        d="M22.1119 9.70714C19.8583 9.70714 18.0239 11.5378 18.0239 13.7925C18.0239 16.0487 19.8583 17.8821 22.1119 17.8821C24.3655 17.8821 26.1988 16.0487 26.1988 13.7925C26.1988 11.5378 24.3655 9.70714 22.1119 9.70714ZM22.1119 18.1523C19.7072 18.1523 17.751 16.1966 17.751 13.7925C17.751 11.3899 19.7072 9.43368 22.1119 9.43368C24.5155 9.43368 26.4723 11.3899 26.4723 13.7925C26.4723 16.1966 24.5155 18.1523 22.1119 18.1523Z"
        fill="#383E9E" />
</svg>