<svg width="48" height="28" viewBox="0 0 48 28" fill="none" xmlns="http://www.w3.org/2000/svg">
    <path d="M0 2H48V0.000580788H0V2Z" fill="#DA1A33" />
    <path d="M0 4H48V1.99915H0V4Z" fill="white" />
    <path d="M0 6H48V4.00058H0V6Z" fill="#DA1A33" />
    <path d="M0 7.99609H48V5.99667H0V7.99609Z" fill="white" />
    <path d="M0 10H48V7.99915H0V10Z" fill="#DA1A33" />
    <path d="M0 12H48V10.0006H0V12Z" fill="white" />
    <path d="M0 14H48V11.9991H0V14Z" fill="#DA1A33" />
    <path d="M0 16H48V14.0006H0V16Z" fill="white" />
    <path d="M0 18H48V15.9991H0V18Z" fill="#DA1A33" />
    <path d="M0 20H48V18.0006H0V20Z" fill="white" />
    <path d="M0 22H48V19.9991H0V22Z" fill="#DA1A33" />
    <path d="M0 24H48V22.0005H0V24Z" fill="white" />
    <path d="M0 25.9961H48V23.9967H0V25.9961Z" fill="#DA1A33" />
    <path d="M0 28H48V25.9991H0V28Z" fill="white" />
    <path d="M0 16H27.9995V0.000353813H0V16Z" fill="#323B9B" />
    <path
        d="M7.49902 7.99888C7.49902 5.09986 9.85212 2.74862 12.7489 2.74862C13.7561 2.74862 14.6948 3.03322 15.4964 3.52521C14.4322 2.57412 13.0328 1.99919 11.5009 1.99919C8.18795 1.99919 5.49902 4.68653 5.49902 7.99888C5.49902 11.3184 8.18795 14 11.5009 14C13.0328 14 14.4322 13.4193 15.4964 12.474C14.6948 12.966 13.7561 13.2506 12.7489 13.2506C9.85212 13.2506 7.49902 10.8993 7.49902 7.99888Z"
        fill="#F1CF17" />
    <path
        d="M19.5003 7.9982L22.3736 6.88693L19.3036 7.13292L21.4099 4.88179L18.7477 6.435L19.6668 3.49593L17.9432 6.04885L17.5009 2.99822L17.1807 5.18357L17.0903 5.81428L17.0551 6.04885L15.3304 3.49593L16.2533 6.435L13.5913 4.88179L15.6974 7.13292L12.6265 6.88693L15.5019 7.9982L12.6265 9.1109L15.6974 8.86491L13.5913 11.1218L16.2533 9.56283L15.3304 12.5019L17.0551 9.94901L17.0903 10.1893L17.1807 10.8143L17.5009 13.0039L17.9432 9.94901L19.6668 12.5019L18.7477 9.56283L21.4099 11.1218L19.3036 8.86491L22.3736 9.1109L19.5003 7.9982Z"
        fill="#F1CF17" />
</svg>