<svg width="46" height="29" viewBox="0 0 46 29" fill="none" xmlns="http://www.w3.org/2000/svg">
    <path d="M43.1927 12.918H41.79V10.746H43.1927V12.918Z" fill="#C4D2D3" />
    <path d="M14.5898 12.918H41.7898V11.7164H14.5898V12.918Z" fill="#B1BDBF" />
    <path d="M14.5898 11.7148H41.7898V10.7445H14.5898V11.7148Z" fill="#B1BDBF" />
    <path d="M43.1927 8.56641H41.79V6.39974H43.1927V8.56641Z" fill="#C4D2D3" />
    <path d="M14.5898 8.56641H41.7898V7.37057H14.5898V8.56641Z" fill="#B1BDBF" />
    <path d="M14.5898 7.37109H41.7898V6.40026H14.5898V7.37109Z" fill="#B1BDBF" />
    <path d="M14.5898 4.22266H41.7898V3.02005H14.5898V4.22266Z" fill="#B1BDBF" />
    <path d="M43.1927 17.2578H41.79V15.0938H43.1927V17.2578Z" fill="#C4D2D3" />
    <path d="M41.7905 16.0664H13.1865V15.2717H14.5905V15.0944H41.7905V16.0664Z" fill="#B1BDBF" />
    <path d="M43.1927 21.6055H41.79V19.4335H43.1927V21.6055Z" fill="#C4D2D3" />
    <path d="M43.1927 25.9531H41.79V23.7838H43.1927V25.9531Z" fill="#C4D2D3" />
    <path d="M43.1927 10.7461H41.79V8.56875H43.1927V10.7461Z" fill="#C4D2D3" />
    <path d="M14.5898 9.53906H41.7898V8.56823H14.5898V9.53906Z" fill="#B1BDBF" />
    <path d="M14.5898 10.7461H41.7898V9.53932H14.5898V10.7461Z" fill="#B1BDBF" />
    <path d="M43.1927 6.40234H41.79V4.22502H43.1927V6.40234Z" fill="#C4D2D3" />
    <path d="M14.5898 5.19531H41.7898V4.22342H14.5898V5.19531Z" fill="#B1BDBF" />
    <path d="M14.5898 6.40234H41.7898V5.19714H14.5898V6.40234Z" fill="#B1BDBF" />
    <path d="M43.1927 15.0938H41.79V12.9177H43.1927V15.0938Z" fill="#C4D2D3" />
    <path d="M14.5898 13.8867H41.7898V12.9159H14.5898V13.8867Z" fill="#B1BDBF" />
    <path d="M14.5898 15.0938H41.7898V13.8885H14.5898V15.0938Z" fill="#B1BDBF" />
    <path d="M43.1927 19.4336H41.79V17.2563H43.1927V19.4336Z" fill="#C4D2D3" />
    <path d="M43.1927 23.7852H41.79V21.6078H43.1927V23.7852Z" fill="#C4D2D3" />
    <path d="M43.1927 28.1328H41.79V25.9555H43.1927V28.1328Z" fill="#C4D2D3" />
    <path d="M45.6893 10.8672H0V8.68719H45.6893V10.8672Z" fill="#E22A33" />
    <path d="M45.6893 6.51953H0V4.3422H45.6893V6.51953Z" fill="#E22A33" />
    <path d="M45.6893 2.17578H0V-0.00154614H45.6893V2.17578Z" fill="#E22A33" />
    <path d="M45.6893 15.2148H0V13.0348H45.6893V15.2148Z" fill="#E22A33" />
    <path d="M45.6893 19.5586H0V17.3786H45.6893V19.5586Z" fill="#E22A33" />
    <path d="M45.6893 23.9062H0V21.7289H45.6893V23.9062Z" fill="#E22A33" />
    <path d="M45.6893 28.2422H0V26.0649H45.6893V28.2422Z" fill="#E22A33" />
    <path d="M45.6893 8.69531H0V6.51799H45.6893V8.69531Z" fill="white" />
    <path d="M45.6893 4.35156H0V2.17422H45.6893V4.35156Z" fill="white" />
    <path d="M45.6893 13.043H0V10.867H45.6893V13.043Z" fill="white" />
    <path d="M45.6893 17.3789H0V15.2016H45.6893V17.3789Z" fill="white" />
    <path d="M45.6893 21.7305H0V19.5531H45.6893V21.7305Z" fill="white" />
    <path d="M45.6893 26.0781H0V23.9008H45.6893V26.0781Z" fill="white" />
    <path d="M17.0853 0.0693207H0V13.2227H17.0853V0.0693207Z" fill="#3847A3" />
    <path
        d="M14.2777 2.68075L14.459 3.19141L14.0271 2.87007L14.0257 2.86873L14.0244 2.87007L13.5937 3.19141L13.7737 2.68075L13.7791 2.67808H13.7764L13.3311 2.37808H13.8671L14.0137 1.86608L14.1791 2.37808H14.1804H14.7217L14.2737 2.67808H14.2724L14.2777 2.68075Z"
        fill="white" />
    <path
        d="M14.2777 5.33965L14.459 5.84766L14.0271 5.53032L14.0257 5.52765L14.0244 5.53032L13.5937 5.84766L13.7737 5.33965L13.7791 5.33698H13.7764L13.3311 5.03564H13.8671L14.0137 4.52231L14.1791 5.03564V5.03698L14.1804 5.03564H14.7217L14.2737 5.33698H14.2724L14.2777 5.33965Z"
        fill="white" />
    <path
        d="M14.2777 7.99591L14.459 8.50391L14.0271 8.1839L14.0257 8.18125L14.0244 8.1839L13.5937 8.50391L13.7737 7.99591L13.7791 7.99058H13.7764L13.3311 7.69191H13.8671L14.0137 7.17858L14.1791 7.69191H14.1804H14.7217L14.2737 7.99058H14.2724L14.2777 7.99591Z"
        fill="white" />
    <path
        d="M14.2777 10.6521L14.459 11.1602L14.0271 10.8428L14.0257 10.8402L14.0244 10.8428L13.5937 11.1602L13.7737 10.6521L13.7791 10.6495H13.7764L13.3311 10.3482H13.8671L14.0137 9.83481L14.1791 10.3482V10.3508L14.1804 10.3482H14.7217L14.2737 10.6495H14.2724L14.2777 10.6521Z"
        fill="white" />
    <path
        d="M11.4525 2.68075L11.6339 3.19141L11.2005 2.87007V2.86873L11.1992 2.87007L10.7659 3.19141L10.9485 2.68075L10.9525 2.67808H10.9512L10.5059 2.37808H11.0405L11.1885 1.86608L11.3539 2.37808H11.3525H11.3552H11.8939L11.4485 2.67808H11.4459L11.4525 2.68075Z"
        fill="white" />
    <path
        d="M11.4525 5.33965L11.6339 5.84766L11.2005 5.53032V5.52765L11.1992 5.53032L10.7659 5.84766L10.9485 5.33965L10.9525 5.33698H10.9512L10.5059 5.03564H11.0405L11.1885 4.52231L11.3539 5.03564L11.3525 5.03698L11.3552 5.03564H11.8939L11.4485 5.33698H11.4459L11.4525 5.33965Z"
        fill="white" />
    <path
        d="M11.4525 7.99591L11.6339 8.50391L11.2005 8.1839V8.18125L11.1992 8.1839L10.7659 8.50391L10.9485 7.99591L10.9525 7.99058H10.9512L10.5059 7.69191H11.0405L11.1885 7.17858L11.3539 7.69191H11.3525H11.3552H11.8939L11.4485 7.99058H11.4459L11.4525 7.99591Z"
        fill="white" />
    <path
        d="M11.4525 10.6521L11.6339 11.1602L11.2005 10.8428V10.8402L11.1992 10.8428L10.7659 11.1602L10.9485 10.6521L10.9525 10.6495H10.9512L10.5059 10.3482H11.0405L11.1885 9.83481L11.3539 10.3482L11.3525 10.3508L11.3552 10.3482H11.8939L11.4485 10.6495H11.4459L11.4525 10.6521Z"
        fill="white" />
    <path
        d="M8.62573 2.68075L8.8084 3.19141L8.37373 2.87007L8.3724 2.86873V2.87007L7.9404 3.19141L8.12039 2.68075L8.12707 2.67808H8.12306L7.67773 2.37808H8.21374L8.3604 1.86608L8.52707 2.37808H8.52573H8.5284H9.06841L8.62173 2.67808H8.62039L8.62573 2.68075Z"
        fill="white" />
    <path
        d="M8.62573 5.33965L8.8084 5.84766L8.37373 5.53032L8.3724 5.52765V5.53032L7.9404 5.84766L8.12039 5.33965L8.12707 5.33698H8.12306L7.67773 5.03564H8.21374L8.3604 4.52231L8.52707 5.03564L8.52573 5.03698L8.5284 5.03564H9.06841L8.62173 5.33698H8.62039L8.62573 5.33965Z"
        fill="white" />
    <path
        d="M8.62573 7.99591L8.8084 8.50391L8.37373 8.1839L8.3724 8.18125V8.1839L7.9404 8.50391L8.12039 7.99591L8.12707 7.99058H8.12306L7.67773 7.69191H8.21374L8.3604 7.17858L8.52707 7.69191H8.52573H8.5284H9.06841L8.62173 7.99058H8.62039L8.62573 7.99591Z"
        fill="white" />
    <path
        d="M8.62573 10.6521L8.8084 11.1602L8.37373 10.8428L8.3724 10.8402V10.8428L7.9404 11.1602L8.12039 10.6521L8.12707 10.6495H8.12306L7.67773 10.3482H8.21374L8.3604 9.83481L8.52707 10.3482L8.52573 10.3508L8.5284 10.3482H9.06841L8.62173 10.6495H8.62039L8.62573 10.6521Z"
        fill="white" />
    <path
        d="M5.84741 2.68075L6.02741 3.19141L5.59408 2.87007V2.86873V2.87007L5.16074 3.19141L5.34207 2.68075L5.34741 2.67808H5.34474L4.89941 2.37808H5.43542L5.58208 1.86608L5.74875 2.37808H5.74608H5.74875H6.28874L5.84341 2.67808H5.84207L5.84741 2.68075Z"
        fill="white" />
    <path
        d="M5.84741 5.33965L6.02741 5.84766L5.59408 5.53032V5.52765V5.53032L5.16074 5.84766L5.34207 5.33965L5.34741 5.33698H5.34474L4.89941 5.03564H5.43542L5.58208 4.52231L5.74875 5.03564L5.74608 5.03698L5.74875 5.03564H6.28874L5.84341 5.33698H5.84207L5.84741 5.33965Z"
        fill="white" />
    <path
        d="M5.84741 7.99591L6.02741 8.50391L5.59408 8.1839V8.18125V8.1839L5.16074 8.50391L5.34207 7.99591L5.34741 7.99058H5.34474L4.89941 7.69191H5.43542L5.58208 7.17858L5.74875 7.69191H5.74608H5.74875H6.28874L5.84341 7.99058H5.84207L5.84741 7.99591Z"
        fill="white" />
    <path
        d="M5.84741 10.6521L6.02741 11.1602L5.59408 10.8428V10.8402V10.8428L5.16074 11.1602L5.34207 10.6521L5.34741 10.6495H5.34474L4.89941 10.3482H5.43542L5.58208 9.83481L5.74875 10.3482L5.74608 10.3508L5.74875 10.3482H6.28874L5.84341 10.6495H5.84207L5.84741 10.6521Z"
        fill="white" />
    <path
        d="M3.06483 2.68075L3.24616 3.19141L2.81283 2.87007V2.86873V2.87007L2.38083 3.19141L2.56082 2.68075L2.56616 2.67808H2.56349L2.11816 2.37808H2.65415L2.80083 1.86608L2.9675 2.37808H3.50882L3.06082 2.67808H3.05949L3.06483 2.68075Z"
        fill="white" />
    <path
        d="M3.06483 5.33965L3.24616 5.84766L2.81283 5.53032V5.52765V5.53032L2.38083 5.84766L2.56082 5.33965L2.56616 5.33698H2.56349L2.11816 5.03564H2.65415L2.80083 4.52231L2.9675 5.03564V5.03698V5.03564H3.50882L3.06082 5.33698H3.05949L3.06483 5.33965Z"
        fill="white" />
    <path
        d="M3.06483 7.99591L3.24616 8.50391L2.81283 8.1839V8.18125V8.1839L2.38083 8.50391L2.56082 7.99591L2.56616 7.99058H2.56349L2.11816 7.69191H2.65415L2.80083 7.17858L2.9675 7.69191H3.50882L3.06082 7.99058H3.05949L3.06483 7.99591Z"
        fill="white" />
    <path
        d="M3.06483 10.6521L3.24616 11.1602L2.81283 10.8428V10.8402V10.8428L2.38083 11.1602L2.56082 10.6521L2.56616 10.6495H2.56349L2.11816 10.3482H2.65415L2.80083 9.83481L2.9675 10.3482V10.3508V10.3482H3.50882L3.06082 10.6495H3.05949L3.06483 10.6521Z"
        fill="white" />
    <path
        d="M15.6492 4.00762L15.8292 4.51562L15.3972 4.19829V4.19562V4.19829L14.9652 4.51562L15.1452 4.00762L15.1505 4.00228H15.1465L14.7012 3.70228H15.2385L15.3838 3.19028L15.5492 3.70228V3.70495L15.5505 3.70228H16.0918L15.6465 4.00228H15.6452L15.6492 4.00762Z"
        fill="white" />
    <path
        d="M15.6492 6.66777L15.8292 7.17578L15.3972 6.85578L14.9652 7.17578L15.1452 6.66777L15.1505 6.66245H15.1465L14.7012 6.36379H15.2385L15.3838 5.85046L15.5492 6.36379H15.5505H16.0918L15.6465 6.66245H15.6452L15.6492 6.66777Z"
        fill="white" />
    <path
        d="M15.6492 9.32528L15.8292 9.83594L15.3972 9.51595V9.51328V9.51595L14.9652 9.83594L15.1452 9.32528L15.1505 9.32261H15.1465L14.7012 9.02127L15.2385 9.02394L15.3838 8.51061L15.5492 9.02127V9.02394H15.5505L16.0918 9.02127L15.6465 9.32261H15.6452L15.6492 9.32528Z"
        fill="white" />
    <path
        d="M15.6492 11.9854L15.8292 12.4961L15.3972 12.1761V12.1734V12.1761L14.9652 12.4961L15.1452 11.9854L15.1505 11.9827H15.1465L14.7012 11.6841H15.2385L15.3838 11.1708L15.5492 11.6841V11.6868L15.5505 11.6841H16.0918L15.6465 11.9827H15.6452L15.6492 11.9854Z"
        fill="white" />
    <path
        d="M15.6492 1.36444L15.8292 1.87109L15.3972 1.55376V1.55111V1.55376L14.9652 1.87109L15.1452 1.36444L15.1505 1.3591H15.1465L14.7012 1.0591H15.2385L15.3838 0.545768L15.5492 1.0591V1.06177L15.5505 1.0591H16.0918L15.6465 1.3591H15.6452L15.6492 1.36444Z"
        fill="white" />
    <path
        d="M12.8852 4.00762L13.0665 4.51562L12.6345 4.19829V4.19562V4.19829L12.2012 4.51562L12.3812 4.00762L12.3865 4.00228H12.3838L11.9385 3.70228H12.4758L12.6211 3.19028L12.7865 3.70228V3.70495L12.7878 3.70228H13.3278L12.8825 4.00228H12.8812L12.8852 4.00762Z"
        fill="white" />
    <path
        d="M12.8852 6.66777L13.0665 7.17578L12.6345 6.85578L12.2012 7.17578L12.3812 6.66777L12.3865 6.66245H12.3838L11.9385 6.36379H12.4758L12.6211 5.85046L12.7865 6.36379H12.7878H13.3278L12.8825 6.66245H12.8812L12.8852 6.66777Z"
        fill="white" />
    <path
        d="M12.8852 9.32528L13.0665 9.83594L12.6345 9.51595V9.51328V9.51595L12.2012 9.83594L12.3812 9.32528L12.3865 9.32261H12.3838L11.9385 9.02127L12.4758 9.02394L12.6211 8.51061L12.7865 9.02127V9.02394H12.7878L13.3278 9.02127L12.8825 9.32261H12.8812L12.8852 9.32528Z"
        fill="white" />
    <path
        d="M12.8852 11.9854L13.0665 12.4961L12.6345 12.1761V12.1734V12.1761L12.2012 12.4961L12.3812 11.9854L12.3865 11.9827H12.3838L11.9385 11.6841H12.4758L12.6211 11.1708L12.7865 11.6841V11.6868L12.7878 11.6841H13.3278L12.8825 11.9827H12.8812L12.8852 11.9854Z"
        fill="white" />
    <path
        d="M12.8852 1.36444L13.0665 1.87109L12.6345 1.55376V1.55111V1.55376L12.2012 1.87109L12.3812 1.36444L12.3865 1.3591H12.3838L11.9385 1.0591H12.4758L12.6211 0.545768L12.7865 1.0591V1.06177L12.7878 1.0591H13.3278L12.8825 1.3591H12.8812L12.8852 1.36444Z"
        fill="white" />
    <path
        d="M10.0117 4.00762L10.1944 4.51562L9.75973 4.19829L9.7584 4.19562V4.19829L9.32773 4.51562L9.50907 4.00762L9.51307 4.00228H9.5104L9.06641 3.70228H9.59974L9.74907 3.19028L9.91307 3.70228V3.70495L9.91574 3.70228H10.4544L10.0091 4.00228H10.0064L10.0117 4.00762Z"
        fill="white" />
    <path
        d="M10.0117 6.66777L10.1944 7.17578L9.75973 6.85578H9.7584L9.32773 7.17578L9.50907 6.66777L9.51307 6.66245H9.5104L9.06641 6.36379H9.59974L9.74907 5.85046L9.91307 6.36379H9.91574H10.4544L10.0091 6.66245H10.0064L10.0117 6.66777Z"
        fill="white" />
    <path
        d="M10.0117 9.32528L10.1944 9.83594L9.75973 9.51595L9.7584 9.51328V9.51595L9.32773 9.83594L9.50907 9.32528L9.51307 9.32261H9.5104L9.06641 9.02127L9.59974 9.02394L9.74907 8.51061L9.91307 9.02127V9.02394H9.91574L10.4544 9.02127L10.0091 9.32261H10.0064L10.0117 9.32528Z"
        fill="white" />
    <path
        d="M10.0117 11.9854L10.1944 12.4961L9.75973 12.1761L9.7584 12.1734V12.1761L9.32773 12.4961L9.50907 11.9854L9.51307 11.9827H9.5104L9.06641 11.6841H9.59974L9.74907 11.1708L9.91307 11.6841V11.6868L9.91574 11.6841H10.4544L10.0091 11.9827H10.0064L10.0117 11.9854Z"
        fill="white" />
    <path
        d="M10.0117 1.36444L10.1944 1.87109L9.75973 1.55376L9.7584 1.55111V1.55376L9.32773 1.87109L9.50907 1.36444L9.51307 1.3591H9.5104L9.06641 1.0591H9.59974L9.74907 0.545768L9.91307 1.0591V1.06177L9.91574 1.0591H10.4544L10.0091 1.3591H10.0064L10.0117 1.36444Z"
        fill="white" />
    <path
        d="M7.20085 4.00762L7.38084 4.51562L6.95151 4.19829L6.94884 4.19562V4.19829L6.51685 4.51562L6.69818 4.00762L6.70085 4.00228H6.69951L6.25684 3.70228H6.79017L6.93551 3.19028L7.10218 3.70228V3.70495V3.70228H7.64484L7.19818 4.00228H7.19684L7.20085 4.00762Z"
        fill="white" />
    <path
        d="M7.20085 6.66777L7.38084 7.17578L6.95151 6.85578H6.94884L6.51685 7.17578L6.69818 6.66777L6.70085 6.66245H6.69951L6.25684 6.36379H6.79017L6.93551 5.85046L7.10218 6.36379H7.64484L7.19818 6.66245H7.19684L7.20085 6.66777Z"
        fill="white" />
    <path
        d="M7.20085 9.32528L7.38084 9.83594L6.95151 9.51595L6.94884 9.51328V9.51595L6.51685 9.83594L6.69818 9.32528L6.70085 9.32261H6.69951L6.25684 9.02127L6.79017 9.02394L6.93551 8.51061L7.10218 9.02127V9.02394L7.64484 9.02127L7.19818 9.32261H7.19684L7.20085 9.32528Z"
        fill="white" />
    <path
        d="M7.20085 11.9854L7.38084 12.4961L6.95151 12.1761L6.94884 12.1734V12.1761L6.51685 12.4961L6.69818 11.9854L6.70085 11.9827H6.69951L6.25684 11.6841H6.79017L6.93551 11.1708L7.10218 11.6841V11.6868V11.6841H7.64484L7.19818 11.9827H7.19684L7.20085 11.9854Z"
        fill="white" />
    <path
        d="M7.20085 1.36444L7.38084 1.87109L6.95151 1.55376L6.94884 1.55111V1.55376L6.51685 1.87109L6.69818 1.36444L6.70085 1.3591H6.69951L6.25684 1.0591H6.79017L6.93551 0.545768L7.10218 1.0591V1.06177V1.0591H7.64484L7.19818 1.3591H7.19684L7.20085 1.36444Z"
        fill="white" />
    <path
        d="M4.45057 4.00762L4.6319 4.51562L4.1999 4.19829L4.19857 4.19562L4.19723 4.19829L3.76523 4.51562L3.94657 4.00762L3.9519 4.00228H3.94923L3.50391 3.70228H4.03724L4.18657 3.19028L4.3519 3.70228V3.70495L4.35324 3.70228H4.89323L4.44657 4.00228H4.44523L4.45057 4.00762Z"
        fill="white" />
    <path
        d="M4.45057 6.66777L4.6319 7.17578L4.1999 6.85578H4.19723L3.76523 7.17578L3.94657 6.66777L3.9519 6.66245H3.94923L3.50391 6.36379H4.03724L4.18657 5.85046L4.3519 6.36379H4.35324H4.89323L4.44657 6.66245H4.44523L4.45057 6.66777Z"
        fill="white" />
    <path
        d="M4.45057 9.32528L4.6319 9.83594L4.1999 9.51595L4.19857 9.51328L4.19723 9.51595L3.76523 9.83594L3.94657 9.32528L3.9519 9.32261H3.94923L3.50391 9.02127L4.03724 9.02394L4.18657 8.51061L4.3519 9.02127V9.02394H4.35324L4.89323 9.02127L4.44657 9.32261H4.44523L4.45057 9.32528Z"
        fill="white" />
    <path
        d="M4.45057 11.9854L4.6319 12.4961L4.1999 12.1761L4.19857 12.1734L4.19723 12.1761L3.76523 12.4961L3.94657 11.9854L3.9519 11.9827H3.94923L3.50391 11.6841H4.03724L4.18657 11.1708L4.3519 11.6841V11.6868L4.35324 11.6841H4.89323L4.44657 11.9827H4.44523L4.45057 11.9854Z"
        fill="white" />
    <path
        d="M4.45057 1.36444L4.6319 1.87109L4.1999 1.55376L4.19857 1.55111L4.19723 1.55376L3.76523 1.87109L3.94657 1.36444L3.9519 1.3591H3.94923L3.50391 1.0591H4.03724L4.18657 0.545768L4.3519 1.0591V1.06177L4.35324 1.0591H4.89323L4.44657 1.3591H4.44523L4.45057 1.36444Z"
        fill="white" />
    <path
        d="M1.65112 4.00762L1.83245 4.51562L1.40179 4.19829L1.39912 4.19562V4.19829L0.967122 4.51562L1.14845 4.00762L1.15246 4.00228H1.15112L0.703125 3.70228H1.24045L1.38579 3.19028L1.55246 3.70228V3.70495V3.70228H2.09378L1.64845 4.00228H1.64578L1.65112 4.00762Z"
        fill="white" />
    <path
        d="M1.65112 6.66777L1.83245 7.17578L1.40179 6.85578H1.39912L0.967122 7.17578L1.14845 6.66777L1.15246 6.66245H1.15112L0.703125 6.36379H1.24045L1.38579 5.85046L1.55246 6.36379H2.09378L1.64845 6.66245H1.64578L1.65112 6.66777Z"
        fill="white" />
    <path
        d="M1.65112 9.32528L1.83245 9.83594L1.40179 9.51595L1.39912 9.51328V9.51595L0.967122 9.83594L1.14845 9.32528L1.15246 9.32261H1.15112L0.703125 9.02127L1.24045 9.02394L1.38579 8.51061L1.55246 9.02127V9.02394L2.09378 9.02127L1.64845 9.32261H1.64578L1.65112 9.32528Z"
        fill="white" />
    <path
        d="M1.65112 11.9854L1.83245 12.4961L1.40179 12.1761L1.39912 12.1734V12.1761L0.967122 12.4961L1.14845 11.9854L1.15246 11.9827H1.15112L0.703125 11.6841H1.24045L1.38579 11.1708L1.55246 11.6841V11.6868V11.6841H2.09378L1.64845 11.9827H1.64578L1.65112 11.9854Z"
        fill="white" />
    <path
        d="M1.65112 1.36444L1.83245 1.87109L1.40179 1.55376L1.39912 1.55111V1.55376L0.967122 1.87109L1.14845 1.36444L1.15246 1.3591H1.15112L0.703125 1.0591H1.24045L1.38579 0.545768L1.55246 1.0591V1.06177V1.0591H2.09378L1.64845 1.3591H1.64578L1.65112 1.36444Z"
        fill="white" />
</svg>