<svg width="371" height="371" viewBox="0 0 371 371" fill="none" xmlns="http://www.w3.org/2000/svg">
<path d="M184.78 361.502C278.394 361.502 354.283 321.987 354.283 273.241C354.283 224.496 278.394 184.98 184.78 184.98C91.1667 184.98 15.2778 224.496 15.2778 273.241C15.2778 321.987 91.1667 361.502 184.78 361.502Z" fill="#F5F5F5"/>
<path d="M293.372 284.772C318.341 284.772 338.582 273.085 338.582 258.668C338.582 244.251 318.341 232.564 293.372 232.564C268.403 232.564 248.162 244.251 248.162 258.668C248.162 273.085 268.403 284.772 293.372 284.772Z" fill="#E6E6E6"/>
<path d="M111.3 243.174C128.596 253.161 129.301 269.649 111.998 279.636C94.6941 289.623 65.9565 289.327 48.653 279.339C31.3496 269.352 31.357 253.161 48.653 243.174C65.949 233.187 93.9892 233.187 111.3 243.174Z" fill="#E6E6E6"/>
<path d="M252.384 296.991L195.606 264.21C194.611 263.705 193.51 263.441 192.394 263.441C191.277 263.441 190.176 263.705 189.181 264.21L132.403 296.991C130.629 298.015 130.629 299.677 132.403 300.701L158.262 315.63L134.109 329.573C129.205 332.4 121.221 332.4 116.301 329.573L78.311 307.639C76.2186 306.43 75.0611 304.909 75.0611 303.365C75.0611 301.822 76.2186 300.293 78.311 299.084L111.976 279.643C112.153 279.551 112.31 279.423 112.436 279.268C112.563 279.113 112.657 278.934 112.713 278.742C112.769 278.55 112.785 278.348 112.761 278.15C112.737 277.951 112.673 277.759 112.573 277.586C112.472 277.413 112.338 277.261 112.178 277.141C112.018 277.021 111.835 276.935 111.641 276.887C111.446 276.839 111.244 276.832 111.047 276.864C110.849 276.897 110.66 276.969 110.492 277.076L76.8419 296.502C73.7922 298.268 72.1079 300.701 72.1079 303.358C72.1079 306.014 73.7922 308.44 76.8419 310.206L114.832 332.14C118.045 333.796 121.606 334.659 125.22 334.659C128.834 334.659 132.396 333.796 135.608 332.14L161.244 317.344L189.21 333.483C190.206 333.988 191.307 334.251 192.423 334.251C193.54 334.251 194.64 333.988 195.636 333.483L252.414 300.701C254.158 299.677 254.158 298.015 252.384 296.991Z" fill="#E6E6E6"/>
<path d="M317.264 246.412C317.264 246.412 319.327 215.856 318.748 204.592C318.266 195.688 317.056 191.978 316.804 189.968C316.804 189.968 314.615 169.192 314.437 151.465C314.348 142.947 313.561 136.892 308.894 126.771L278.895 133.947C278.287 138.443 276.224 168.346 275.734 194.932C275.311 218.208 275.972 238.583 275.972 238.583V239.808C275.972 241.173 275.675 242.123 274.799 244.304C273.705 247.115 272.134 249.715 270.154 251.991C269.539 252.659 265.257 256.399 264.693 257.185C262.853 259.33 266.667 260.539 269.494 260.153C272.462 259.753 277.107 258.617 278.398 256.807C279.274 255.59 279.934 251.353 280.832 250.129C283.867 245.989 285.113 244.193 285.135 242.887C285.18 240.498 284.356 239.555 284.06 238.205C284.304 235.385 290.396 212.198 290.5 203.984C290.552 200.074 290.285 194.687 290.285 194.687L295.004 167.589C296.829 174.356 300.035 191.155 301.118 197.603C302.431 205.483 305.867 225.71 307.9 237.775C308.679 242.427 309.043 244.779 309.384 246.938L309.466 247.858C309.532 249.031 310.386 261.571 310.846 264.182C311.81 269.666 316.685 268.976 317.464 264.539C318.132 260.769 317.301 249.075 317.279 247.643L317.264 246.412Z" fill="#FFA8A7"/>
<path d="M317.264 246.412C318.644 246.412 317.739 251.762 318.095 255.183C318.474 258.855 319.676 261.541 320.025 264.547C320.492 267.173 320.088 269.88 318.874 272.256C317.917 274.482 313.094 277.45 311.261 274.326C309.429 271.202 309.035 267.589 309.251 264.161C309.466 260.733 309.251 258.433 309.317 255.739C309.384 253.365 307.641 247.303 309.429 246.961L309.51 247.881C310.156 249.165 316.671 249.417 317.324 247.681L317.264 246.412Z" fill="#37474F"/>
<path d="M285.447 245.803C285.87 247.517 285.447 252.221 285.447 252.221C285.447 252.221 284.705 253.846 282.056 254.922L280.869 248.377L285.447 245.803Z" fill="#263238"/>
<path d="M282.041 254.922L276.209 253.007L274.799 247.828L281.359 251.145L282.041 254.922Z" fill="black"/>
<path d="M275.972 239.808V238.584C275.178 238.97 273.434 245.358 271.075 249.714C268.923 253.713 264.656 255.939 263.269 257.683C261.414 260.005 265.02 263.01 270.8 261.771C273.672 261.155 278.02 259.323 279.2 257.386C280.379 255.45 280.773 251.888 281.737 250.463C282.702 249.039 284.995 247.399 285.447 245.781C285.824 244.321 285.824 242.789 285.447 241.329C284.995 239.845 284.594 238.072 284.089 238.235V239.356C283.704 240.142 282.301 241.062 279.385 241.225C277.96 241.292 276.61 241.077 275.972 239.808Z" fill="#37474F"/>
<path d="M278.287 133.561C278.287 133.561 276.306 155.576 275.668 175.068C275.03 194.561 275.601 219.714 275.601 219.714C275.601 219.714 277.612 221.154 282.042 221.354C286.471 221.555 287.978 220.078 287.978 220.078C287.978 220.078 290.686 211.241 291.109 205.023C291.377 201.657 291.377 198.275 291.109 194.909L295.064 168.895C295.064 168.895 300.08 194.509 300.651 197.603C301.222 200.697 306.023 228.069 306.023 228.069C306.023 228.069 307.908 229.806 312.745 229.717C317.027 229.635 318.266 228.099 318.266 228.099C318.266 228.099 319.297 211.315 319.06 204.147C318.86 197.825 317.413 192.795 317.123 188.691C316.834 184.588 316.671 161.237 316.381 152.333C316.092 143.429 315.35 135.787 307.73 125.072L278.287 133.561Z" fill="#455A64"/>
<path d="M295.094 168.917L291.799 152.593C291.799 152.593 286.063 151.109 283.385 147.592C283.385 147.592 284.127 151.48 290.063 153.966L293.565 170.201L292.348 186.985L295.094 168.917Z" fill="#37474F"/>
<path d="M236.372 129.502C238.485 129.824 240.644 129.664 242.686 129.034C241.789 128.586 240.949 128.03 240.186 127.379C239.835 127.098 239.608 126.691 239.553 126.245C239.498 125.799 239.618 125.349 239.889 124.99C240.163 124.693 240.846 125.384 242.389 125.821C244.363 126.378 245.795 126.497 247.695 127.595C248.411 128.012 249.253 128.159 250.069 128.01C254.699 127.142 265.495 122.074 270.444 119.433C271.453 115.315 273.205 109.26 275.364 101.706C277.36 94.7463 280.558 91.7041 285.663 91.8154L284.928 106.93C284.928 106.93 282.494 117.37 279.482 125.895C278.955 127.379 276.84 129.108 272.967 130.548C267.951 132.41 261.896 134.169 254.499 136.194C251.501 137.048 248.439 137.656 245.342 138.012C237.522 138.68 234.524 136.528 233.47 134.985C230.473 130.726 232.246 128.678 236.372 129.502Z" fill="#FFA8A7"/>
<path d="M298.818 91.7039L305.956 92.253C305.342 95.154 305.516 98.1667 306.461 100.978C307.405 103.788 309.086 106.295 311.328 108.236L308.145 121.057C308.249 122.645 310.876 127.988 313.421 133.731C308.635 140.142 285.158 142.331 277.501 136.699C278.68 130.659 279.563 126.073 279.801 123.781L279.415 115.492C269.813 107.62 281.396 95.6216 285.663 91.8078L291.02 91.5703L298.818 91.7039Z" fill="#5564C1"/>
<path d="M328.877 155.583C328.359 155.178 327.949 154.653 327.682 154.052C327.415 153.452 327.301 152.795 327.348 152.14C327.475 150.945 327.749 149.446 328.246 148.867C328.743 148.289 331.86 144.052 333.24 146.515C334.724 149.201 334.42 150.292 334.42 150.292L328.877 155.583Z" fill="#F28F8F"/>
<path d="M319.26 212.212C315.911 212.1 312.649 211.113 309.8 209.348L272.752 187.948C267.031 184.647 262.364 176.581 262.364 169.97V138.887C262.36 137.847 262.083 136.826 261.561 135.927C261.038 135.027 260.289 134.281 259.387 133.762C258.485 133.244 257.463 132.971 256.423 132.972C255.382 132.973 254.361 133.248 253.46 133.768L240.49 141.277C240.321 141.384 240.132 141.456 239.934 141.489C239.737 141.521 239.535 141.513 239.34 141.466C239.146 141.418 238.963 141.332 238.803 141.212C238.643 141.091 238.509 140.94 238.409 140.767C238.309 140.594 238.244 140.402 238.22 140.203C238.196 140.005 238.212 139.803 238.268 139.611C238.324 139.419 238.418 139.24 238.545 139.085C238.672 138.93 238.828 138.802 239.006 138.709L252.013 131.193C253.365 130.412 254.899 130.001 256.461 130C258.022 129.999 259.557 130.409 260.91 131.189C262.263 131.968 263.387 133.09 264.17 134.441C264.952 135.793 265.366 137.326 265.369 138.887V169.97C265.369 175.535 269.45 182.584 274.273 185.381L311.321 206.766C316.062 209.504 320.462 209.978 323.698 208.116C326.933 206.254 328.721 202.18 328.721 196.726V157.044C328.721 150.322 333.017 142.575 338.5 139.407L347.545 134.213C347.714 134.105 347.903 134.033 348.101 134.001C348.298 133.968 348.5 133.976 348.695 134.024C348.889 134.071 349.072 134.158 349.232 134.278C349.392 134.398 349.526 134.549 349.626 134.723C349.726 134.896 349.791 135.088 349.815 135.286C349.839 135.485 349.823 135.686 349.767 135.879C349.711 136.071 349.617 136.25 349.49 136.405C349.363 136.56 349.207 136.687 349.029 136.78L339.984 141.974C335.488 144.571 331.689 151.464 331.689 157.037V196.719C331.689 203.293 329.374 208.25 325.182 210.676C323.38 211.707 321.336 212.237 319.26 212.212Z" fill="#37474F"/>
<path d="M255.248 143.423V145.849C255.248 149.73 252.525 154.456 249.156 156.393L226.688 169.37L203.842 156.178V136.396L225.998 126.141C229.523 124.516 235.103 124.769 238.471 126.705L249.141 132.871C252.503 134.815 255.248 139.542 255.248 143.423Z" fill="#37474F"/>
<path d="M225.998 126.141C229.523 124.516 235.103 124.769 238.471 126.705L249.141 132.871C252.503 134.808 252.369 137.702 248.844 139.334L226.666 149.574L203.812 136.388L225.998 126.141Z" fill="#455A64"/>
<path opacity="0.15" d="M228.825 144.825C229.71 145.402 230.447 146.18 230.975 147.096C231.504 148.011 231.81 149.038 231.867 150.093V166.365L226.673 169.333L203.827 156.14V136.396L209.615 133.725L228.825 144.825Z" fill="black"/>
<path d="M201.876 132.99C202.218 132.831 202.597 132.766 202.973 132.803C203.348 132.839 203.708 132.976 204.013 133.198L226.481 146.176C227.367 146.754 228.105 147.533 228.633 148.449C229.162 149.366 229.467 150.395 229.523 151.451V170.803C229.563 171.179 229.502 171.559 229.345 171.904C229.189 172.248 228.942 172.545 228.632 172.762C228.113 173.051 226.28 174.112 225.768 174.416C225.425 174.575 225.045 174.64 224.668 174.604C224.291 174.567 223.931 174.431 223.624 174.208L201.149 161.231C200.263 160.653 199.527 159.875 198.998 158.96C198.47 158.045 198.164 157.018 198.106 155.963V136.611C198.067 136.235 198.128 135.855 198.283 135.509C198.438 135.164 198.682 134.866 198.989 134.645L201.876 132.99Z" fill="#37474F"/>
<path d="M223.624 147.822L201.149 134.852C199.472 133.88 198.106 134.667 198.106 136.611V155.962C198.164 157.017 198.47 158.044 198.998 158.96C199.527 159.875 200.264 160.653 201.149 161.23L223.624 174.208C225.301 175.18 226.666 174.393 226.666 172.449V153.098C226.608 152.042 226.303 151.014 225.774 150.097C225.246 149.181 224.509 148.402 223.624 147.822Z" fill="#455A64"/>
<path d="M197.008 170.351V173.697C197.008 175.055 197.476 175.997 198.247 176.442L200.266 177.607C200.749 177.843 201.288 177.942 201.824 177.895C202.36 177.848 202.873 177.656 203.308 177.34L221.858 166.611V153.403L219.84 152.238L201.253 162.968C200.015 163.778 198.985 164.869 198.248 166.152C197.511 167.435 197.086 168.873 197.008 170.351ZM205.415 166.21C205.486 166.451 205.526 166.701 205.534 166.952C205.481 167.944 205.195 168.909 204.698 169.769C204.202 170.629 203.509 171.359 202.677 171.901C202.446 172.037 202.196 172.137 201.935 172.198C201.87 171.956 201.835 171.707 201.831 171.456C201.885 170.465 202.171 169.5 202.668 168.64C203.164 167.78 203.856 167.049 204.688 166.507C204.919 166.381 205.162 166.282 205.415 166.21Z" fill="#5564C1"/>
<path opacity="0.2" d="M200.162 177.533C200.2 177.567 200.243 177.596 200.288 177.622L200.214 177.577L198.262 176.442C197.483 176.012 197.023 175.069 197.023 173.704V170.358C197.072 168.871 197.504 167.421 198.277 166.15L200.295 167.315C199.529 168.589 199.1 170.037 199.049 171.522V174.869C198.994 175.735 199.273 176.59 199.828 177.258C199.928 177.363 200.04 177.455 200.162 177.533Z" fill="black"/>
<path opacity="0.5" d="M221.858 153.403L203.308 164.133C202.05 164.917 201.013 166.01 200.296 167.308L198.277 166.143C198.994 164.847 200.028 163.755 201.282 162.968L219.87 152.238L221.858 153.403Z" fill="white"/>
<path opacity="0.2" d="M205.534 166.951C205.533 166.683 205.498 166.417 205.43 166.157C206.654 165.824 207.552 166.588 207.552 168.116C207.499 169.107 207.213 170.071 206.718 170.931C206.223 171.791 205.533 172.522 204.703 173.065C203.382 173.807 202.254 173.429 201.942 172.197C202.204 172.14 202.455 172.04 202.684 171.901C203.514 171.357 204.204 170.625 204.699 169.766C205.194 168.906 205.48 167.942 205.534 166.951Z" fill="black"/>
<path d="M179.875 160.452V163.806C179.875 165.156 180.343 166.106 181.115 166.544L183.133 167.716C183.616 167.947 184.152 168.042 184.685 167.992C185.218 167.943 185.728 167.75 186.16 167.434L204.71 156.698V143.512L202.692 142.34L184.142 153.069C182.901 153.879 181.869 154.969 181.127 156.251C180.386 157.534 179.957 158.973 179.875 160.452ZM188.282 156.289C188.35 156.549 188.385 156.815 188.386 157.083C188.333 158.075 188.046 159.04 187.55 159.9C187.053 160.76 186.361 161.49 185.53 162.033C185.295 162.16 185.046 162.26 184.788 162.329C184.717 162.076 184.682 161.813 184.684 161.55C184.737 160.56 185.023 159.595 185.518 158.736C186.013 157.876 186.703 157.145 187.533 156.601C187.767 156.463 188.019 156.358 188.282 156.289Z" fill="#5564C1"/>
<path opacity="0.2" d="M183.222 167.768H183.185H183.133L181.115 166.588C180.336 166.151 179.875 165.208 179.875 163.843V160.497C179.883 159.782 179.996 159.072 180.209 158.389C180.433 157.659 180.739 156.957 181.122 156.297L183.14 157.454C182.949 157.785 182.778 158.127 182.628 158.478C182.168 159.476 181.915 160.556 181.886 161.654V165.001C181.823 165.862 182.088 166.716 182.628 167.39C182.803 167.549 183.004 167.677 183.222 167.768Z" fill="black"/>
<path opacity="0.5" d="M204.733 143.512L186.183 154.241C184.922 155.024 183.885 156.118 183.17 157.417L181.152 156.26C181.856 154.963 182.877 153.865 184.12 153.069L202.67 142.34L204.733 143.512Z" fill="white"/>
<path opacity="0.2" d="M188.379 157.075C188.38 156.81 188.348 156.546 188.282 156.289C189.499 155.948 190.404 156.719 190.404 158.248C190.351 159.238 190.065 160.203 189.57 161.062C189.076 161.922 188.385 162.653 187.555 163.197C186.227 163.939 185.107 163.56 184.795 162.321C185.058 162.266 185.309 162.166 185.537 162.024C186.366 161.481 187.056 160.75 187.55 159.89C188.043 159.03 188.327 158.066 188.379 157.075Z" fill="black"/>
<path d="M185.5 148.065C185.253 148.066 185.012 147.984 184.817 147.832C184.622 147.68 184.484 147.467 184.424 147.227L181.456 135.592C181.382 135.306 181.425 135.002 181.576 134.747C181.726 134.493 181.971 134.308 182.258 134.235C182.544 134.161 182.848 134.204 183.102 134.354C183.357 134.504 183.542 134.75 183.615 135.036L186.583 146.678C186.621 146.819 186.63 146.967 186.61 147.112C186.59 147.256 186.541 147.396 186.467 147.522C186.392 147.647 186.293 147.757 186.176 147.844C186.058 147.931 185.924 147.994 185.782 148.028C185.69 148.052 185.595 148.065 185.5 148.065Z" fill="#E0E0E0"/>
<path d="M177.145 152.918C176.895 152.919 176.652 152.835 176.455 152.681L165.407 143.947C165.285 143.859 165.182 143.748 165.104 143.619C165.027 143.49 164.976 143.347 164.955 143.198C164.935 143.049 164.944 142.897 164.984 142.752C165.023 142.607 165.092 142.472 165.185 142.354C165.278 142.236 165.395 142.138 165.527 142.067C165.659 141.995 165.804 141.951 165.954 141.937C166.104 141.922 166.255 141.939 166.398 141.985C166.541 142.031 166.673 142.105 166.787 142.204L177.835 150.93C178.066 151.113 178.215 151.381 178.25 151.674C178.285 151.967 178.202 152.262 178.021 152.495C177.917 152.628 177.784 152.735 177.632 152.809C177.48 152.882 177.314 152.92 177.145 152.918Z" fill="#E0E0E0"/>
<path d="M161.919 163.573C161.624 163.584 161.337 163.477 161.12 163.276C160.904 163.075 160.776 162.796 160.765 162.501C160.755 162.206 160.861 161.919 161.063 161.702C161.264 161.486 161.542 161.358 161.838 161.347L174.756 160.346C174.902 160.333 175.048 160.35 175.188 160.395C175.327 160.44 175.456 160.513 175.567 160.608C175.678 160.703 175.769 160.82 175.835 160.95C175.901 161.081 175.94 161.224 175.95 161.37C175.971 161.663 175.875 161.953 175.683 162.177C175.492 162.4 175.22 162.54 174.926 162.564L162.008 163.566L161.919 163.573Z" fill="#E0E0E0"/>
<path d="M338.975 143.473C338.723 140.732 338.317 138.007 337.758 135.311C336.07 128.987 333.82 122.826 331.036 116.902C329.797 114.535 326.999 111.085 325.018 108.169C322.213 104.051 320.24 101.743 318.11 98.9456C313.421 92.8092 311.432 92.4531 305.956 92.2676C305.214 94.219 303.522 102.218 309.006 108.681L320.759 121.072C321.427 122.148 328.609 134.428 329.804 138.962C330.011 139.768 329.91 140.622 329.522 141.358C328.583 143.436 327.893 145.618 327.467 147.858C327.118 149.431 326.183 150.678 326.502 150.923C326.896 151.186 327.368 151.309 327.84 151.271C328.313 151.233 328.759 151.037 329.107 150.715C329.946 149.814 330.63 148.782 331.132 147.658C331.353 147.643 331.574 147.675 331.782 147.751C331.989 147.826 332.179 147.944 332.339 148.097C332.499 148.25 332.625 148.434 332.71 148.638C332.795 148.842 332.836 149.062 332.831 149.283C332.898 150.196 332.483 151.464 332.164 153.045C332.104 153.356 332.03 153.713 331.889 154.573C331.767 155.155 331.698 155.746 331.681 156.339C333.165 156.614 334.716 155.709 337.209 153.371C339.457 151.19 339.606 148.326 338.975 143.473Z" fill="#FFA8A7"/>
<path d="M300.094 88.0979C300.139 86.6139 304.962 83.1413 307.403 79.4462C309.629 76.0181 312.827 66.5947 305.333 63.5822C305.333 63.5822 306.95 59.0634 304.012 56.3997C301.074 53.7359 297.119 55.3831 296.496 56.4961C296.119 55.1086 295.305 53.8796 294.174 52.9919C293.043 52.1043 291.656 51.6053 290.218 51.5692C288.814 51.4635 287.42 51.8686 286.291 52.7098C285.162 53.5511 284.375 54.7718 284.075 56.1474C282.889 55.6341 281.562 55.5441 280.318 55.8927C279.074 56.2412 277.987 57.0071 277.241 58.0617C274.488 61.8534 278.139 65.3259 278.139 65.3259C277.665 65.6454 277.287 66.0876 277.046 66.6051C276.804 67.1226 276.707 67.6961 276.766 68.2642C276.981 69.867 278.517 70.2602 278.695 71.0616C278.73 71.2292 278.708 71.4036 278.635 71.5581C278.561 71.7126 278.439 71.8389 278.287 71.9178C278.135 71.9967 277.962 72.0239 277.793 71.9953C277.624 71.9666 277.469 71.8837 277.352 71.7591C277.392 71.9683 277.473 72.1676 277.59 72.3454C277.707 72.5233 277.859 72.6762 278.035 72.7955C278.212 72.9148 278.41 72.998 278.619 73.0404C278.827 73.0829 279.043 73.0836 279.252 73.0427C280.98 72.9463 282.524 70.5941 282.524 70.5941L300.094 88.0979Z" fill="#263238"/>
<path d="M284.364 63.1074C282.138 64.072 280.038 67.463 280.068 76.9457C280.068 84.9816 282.561 87.0147 283.778 87.6157C284.995 88.2167 287.451 87.9051 289.818 87.5415V92.1641C289.818 92.1641 285.536 97.4769 289.372 100.118C299.256 98.3895 300.013 91.9044 300.013 91.9044L300.191 81.8281C300.191 81.8281 301.549 83.2527 303.901 81.1603C305.874 79.4314 306.587 76.4708 305.103 74.8384C303.619 73.206 301.719 73.0799 299.998 74.8978C299.998 74.8978 296.844 75.1056 292.103 72.1301C287.362 69.1547 285.67 66.1348 284.364 63.1074Z" fill="#FFA8A7"/>
<path d="M290.055 81.9759C290.065 82.1292 290.045 82.2829 289.995 82.4281C289.945 82.5734 289.866 82.7072 289.764 82.8218C289.662 82.9365 289.538 83.0296 289.399 83.0959C289.261 83.1621 289.11 83.2001 288.957 83.2077C288.719 83.2268 288.481 83.1742 288.273 83.0568C288.065 82.9394 287.898 82.7624 287.791 82.5488C287.685 82.3351 287.645 82.0946 287.677 81.8581C287.709 81.6216 287.811 81.4 287.969 81.2219C288.128 81.0438 288.337 80.9173 288.568 80.8588C288.799 80.8002 289.043 80.8123 289.267 80.8934C289.492 80.9746 289.687 81.121 289.827 81.314C289.967 81.5069 290.047 81.7375 290.055 81.9759Z" fill="#B16668"/>
<path d="M283.948 74.1992C283.947 74.4082 283.884 74.6122 283.767 74.7859C283.651 74.9595 283.486 75.0952 283.293 75.1761C283.101 75.257 282.888 75.2795 282.683 75.241C282.477 75.2024 282.288 75.1044 282.137 74.9591C281.987 74.8137 281.883 74.6275 281.837 74.4235C281.792 74.2194 281.807 74.0065 281.881 73.8111C281.956 73.6156 282.086 73.4463 282.255 73.3241C282.425 73.2018 282.627 73.132 282.835 73.1233C282.979 73.1203 283.122 73.1459 283.256 73.1984C283.39 73.251 283.512 73.3295 283.616 73.4296C283.719 73.5296 283.802 73.6491 283.859 73.7811C283.916 73.9132 283.947 74.0553 283.948 74.1992Z" fill="#263238"/>
<path d="M292.162 74.6902C292.172 74.8434 292.152 74.9971 292.102 75.1424C292.052 75.2876 291.974 75.4214 291.871 75.5361C291.769 75.6507 291.645 75.7439 291.507 75.8101C291.368 75.8763 291.218 75.9143 291.064 75.9219C290.754 75.9239 290.455 75.8035 290.233 75.5869C290.011 75.3702 289.883 75.0747 289.877 74.7644C289.872 74.6143 289.897 74.4648 289.95 74.3243C290.003 74.1838 290.083 74.0551 290.186 73.9455C290.288 73.836 290.411 73.7477 290.548 73.6858C290.685 73.6238 290.833 73.5895 290.983 73.5846C291.133 73.5797 291.282 73.6044 291.423 73.6574C291.563 73.7103 291.692 73.7904 291.802 73.893C291.911 73.9957 291.999 74.1189 292.061 74.2557C292.123 74.3925 292.158 74.5401 292.162 74.6902Z" fill="#263238"/>
<path d="M283.206 69.9492L280.943 71.2774C281.024 71.4304 281.136 71.5652 281.271 71.6732C281.406 71.7813 281.562 71.8605 281.729 71.9057C281.896 71.9509 282.071 71.9613 282.242 71.9362C282.413 71.9111 282.577 71.851 282.724 71.7597C283.022 71.5777 283.238 71.2881 283.328 70.951C283.417 70.6139 283.374 70.2552 283.206 69.9492Z" fill="#263238"/>
<path d="M300.043 73.5918V78.0438C299.757 78.0511 299.473 77.9998 299.208 77.8932C298.943 77.7866 298.703 77.6269 298.502 77.424C298.301 77.221 298.144 76.979 298.04 76.713C297.936 76.447 297.888 76.1626 297.898 75.8772C297.901 75.2957 298.123 74.7368 298.521 74.3128C298.919 73.8888 299.463 73.6312 300.043 73.5918Z" fill="#263238"/>
<path d="M286.872 73.1387L286.419 79.5495L283.036 78.7556L286.872 73.1387Z" fill="#F28F8F"/>
<path d="M289.847 87.5565C292.333 87.2671 297.468 85.8424 298.306 83.75C297.974 84.7983 297.332 85.7217 296.466 86.3989C294.915 87.7345 289.84 89.1146 289.84 89.1146L289.847 87.5565Z" fill="#F28F8F"/>
<path d="M319.728 37.9756C320.675 38.337 321.562 38.8371 322.362 39.4596C323.137 40.0258 323.803 40.7271 324.328 41.5298C324.828 42.302 325.157 43.1723 325.293 44.0823C325.426 45.0535 325.306 46.0428 324.944 46.9538C324.685 47.6831 324.284 48.354 323.764 48.9275C323.3 49.4165 322.768 49.8363 322.184 50.1741C321.616 50.4986 321.02 50.7718 320.403 50.9903L318.652 51.621C318.137 51.8071 317.64 52.0406 317.168 52.3185C316.723 52.5422 316.35 52.8868 316.092 53.3127C315.974 53.5116 315.805 53.6755 315.602 53.7876C315.505 53.841 315.398 53.872 315.287 53.8784C315.177 53.8848 315.067 53.8665 314.964 53.8247L312.649 52.9566C312.539 52.9159 312.439 52.8536 312.353 52.7733C312.268 52.693 312.199 52.5964 312.152 52.4891C312.101 52.3865 312.075 52.2735 312.075 52.1589C312.075 52.0444 312.101 51.9313 312.152 51.8287C312.45 51.1148 312.889 50.4686 313.443 49.9292C313.946 49.4566 314.507 49.0501 315.113 48.7198C315.697 48.4057 316.308 48.1426 316.938 47.9332C317.561 47.7255 318.14 47.5251 318.682 47.3174C319.171 47.1378 319.641 46.9091 320.084 46.6347C320.465 46.3931 320.757 46.0336 320.915 45.6108C321.061 45.2405 321.115 44.8399 321.071 44.4442C321.027 44.0484 320.887 43.6694 320.663 43.3403C320.104 42.5295 319.293 41.9267 318.355 41.6262C317.539 41.3013 316.641 41.2374 315.787 41.4434C314.932 41.6494 314.163 42.115 313.584 42.7763C313.436 42.9327 313.263 43.0631 313.072 43.1622C312.866 43.2267 312.643 43.2108 312.449 43.1177L309.985 42.1902C309.898 42.1597 309.817 42.1118 309.748 42.0493C309.679 41.9868 309.624 41.9111 309.585 41.8266C309.542 41.74 309.52 41.6448 309.52 41.5483C309.52 41.4519 309.542 41.3567 309.585 41.2701C309.911 40.5135 310.421 39.8504 311.069 39.3409C311.79 38.7413 312.611 38.274 313.495 37.9608C314.466 37.6177 315.485 37.4323 316.515 37.4117C317.612 37.3909 318.703 37.5824 319.728 37.9756ZM314.445 55.7094C314.553 55.7478 314.652 55.8087 314.735 55.8879C314.818 55.9672 314.884 56.0631 314.927 56.1694C314.973 56.2748 314.996 56.3885 314.996 56.5033C314.996 56.6182 314.973 56.7319 314.927 56.8372L313.918 59.5159C313.88 59.6241 313.819 59.723 313.739 59.8061C313.66 59.8892 313.564 59.9547 313.458 59.9982C313.353 60.0439 313.239 60.0675 313.124 60.0675C313.009 60.0675 312.895 60.0439 312.79 59.9982L310.171 59.0113C310.063 58.9729 309.964 58.912 309.881 58.8328C309.798 58.7535 309.732 58.6576 309.689 58.5513C309.643 58.4459 309.619 58.3322 309.619 58.2174C309.619 58.1025 309.643 57.9888 309.689 57.8835L310.698 55.2048C310.737 55.0963 310.798 54.997 310.877 54.9128C310.957 54.8286 311.052 54.7614 311.158 54.7151C311.264 54.671 311.377 54.6483 311.492 54.6483C311.606 54.6483 311.72 54.671 311.826 54.7151L314.445 55.7094Z" fill="#5564C1"/>
<path d="M321.012 69.9547C321.089 70.0307 321.151 70.1213 321.193 70.2214C321.235 70.3214 321.256 70.4287 321.256 70.5372C321.256 70.6457 321.235 70.753 321.193 70.853C321.151 70.953 321.089 71.0437 321.012 71.1197L319.157 73.0785C319.082 73.1576 318.993 73.2207 318.893 73.2641C318.794 73.3075 318.686 73.3302 318.578 73.3308C318.469 73.3348 318.361 73.3171 318.259 73.2789C318.157 73.2407 318.064 73.1827 317.984 73.1082L316.092 71.2903C316.013 71.216 315.95 71.1263 315.907 71.0268C315.863 70.9274 315.841 70.8201 315.84 70.7116C315.834 70.6026 315.851 70.4937 315.889 70.3916C315.928 70.2895 315.987 70.1963 316.063 70.118L317.925 68.1665C318.08 68.0138 318.29 67.9282 318.507 67.9282C318.725 67.9282 318.934 68.0138 319.09 68.1665L321.012 69.9547ZM332.142 56.5023C332.832 57.156 333.424 57.9057 333.9 58.7283C334.359 59.5077 334.678 60.3616 334.843 61.2511C334.982 62.1037 334.939 62.9761 334.716 63.811C334.48 64.6009 334.081 65.3328 333.546 65.9601C333.01 66.5873 332.35 67.0962 331.607 67.4542C331.027 67.7105 330.412 67.8805 329.782 67.9587C329.169 68.0277 328.551 68.0451 327.935 68.0107L326.183 67.9142C325.661 67.886 325.137 67.9034 324.618 67.9662C324.152 68.0175 323.711 68.1974 323.342 68.4856C323.167 68.6175 322.959 68.6973 322.741 68.7156C322.636 68.7273 322.531 68.7153 322.432 68.6806C322.333 68.646 322.243 68.5894 322.169 68.5152L320.485 66.9125C320.323 66.7595 320.227 66.5491 320.218 66.3263C320.207 66.2167 320.223 66.1062 320.264 66.0041C320.306 65.902 320.371 65.8115 320.455 65.7402C320.972 65.2262 321.588 64.8223 322.266 64.553C322.875 64.3266 323.511 64.1795 324.158 64.1152C324.782 64.0633 325.41 64.0633 326.035 64.1152C326.653 64.1696 327.232 64.2067 327.771 64.2265C328.267 64.2515 328.765 64.2241 329.255 64.1449C329.678 64.0792 330.066 63.8757 330.361 63.5661C330.621 63.2968 330.812 62.9686 330.918 62.6094C331.024 62.2502 331.042 61.8708 330.969 61.5033C330.785 60.5931 330.302 59.7705 329.597 59.166C329.004 58.5864 328.247 58.204 327.429 58.0712C326.611 57.9384 325.771 58.0616 325.026 58.424C324.843 58.5046 324.647 58.5523 324.447 58.565C324.346 58.5589 324.247 58.5321 324.156 58.4862C324.065 58.4402 323.985 58.3761 323.92 58.2979L322.125 56.5839C321.995 56.467 321.916 56.305 321.902 56.1313C321.897 56.0395 321.912 55.9478 321.945 55.8621C321.979 55.7764 322.03 55.6988 322.095 55.6341C322.656 55.1004 323.339 54.7108 324.084 54.4989C324.93 54.2458 325.814 54.1429 326.695 54.1947C327.666 54.2538 328.621 54.4692 329.522 54.8328C330.487 55.2131 331.367 55.7805 332.112 56.5023H332.142Z" fill="#5564C1"/>
<g opacity="0.6">
<path opacity="0.6" d="M321.012 69.9547C321.089 70.0307 321.151 70.1213 321.193 70.2214C321.235 70.3214 321.256 70.4287 321.256 70.5372C321.256 70.6457 321.235 70.753 321.193 70.853C321.151 70.953 321.089 71.0437 321.012 71.1197L319.157 73.0785C319.082 73.1576 318.993 73.2207 318.893 73.2641C318.794 73.3075 318.686 73.3302 318.578 73.3308C318.469 73.3348 318.361 73.3171 318.259 73.2789C318.157 73.2407 318.064 73.1827 317.984 73.1082L316.092 71.2903C316.013 71.216 315.95 71.1263 315.907 71.0268C315.863 70.9274 315.841 70.8201 315.84 70.7116C315.834 70.6026 315.851 70.4937 315.889 70.3916C315.928 70.2895 315.987 70.1963 316.063 70.118L317.925 68.1665C318.08 68.0138 318.29 67.9282 318.507 67.9282C318.725 67.9282 318.934 68.0138 319.09 68.1665L321.012 69.9547ZM332.142 56.5023C332.832 57.156 333.424 57.9057 333.9 58.7283C334.359 59.5077 334.678 60.3616 334.843 61.2511C334.982 62.1037 334.939 62.9761 334.716 63.811C334.48 64.6009 334.081 65.3328 333.546 65.9601C333.01 66.5873 332.35 67.0962 331.607 67.4542C331.027 67.7105 330.412 67.8805 329.782 67.9587C329.169 68.0277 328.551 68.0451 327.935 68.0107L326.183 67.9142C325.661 67.886 325.137 67.9034 324.618 67.9662C324.152 68.0175 323.711 68.1974 323.342 68.4856C323.167 68.6175 322.959 68.6973 322.741 68.7156C322.636 68.7273 322.531 68.7153 322.432 68.6806C322.333 68.646 322.243 68.5894 322.169 68.5152L320.485 66.9125C320.323 66.7595 320.227 66.5491 320.218 66.3263C320.207 66.2167 320.223 66.1062 320.264 66.0041C320.306 65.902 320.371 65.8115 320.455 65.7402C320.972 65.2262 321.588 64.8223 322.266 64.553C322.875 64.3266 323.511 64.1795 324.158 64.1152C324.782 64.0633 325.41 64.0633 326.035 64.1152C326.653 64.1696 327.232 64.2067 327.771 64.2265C328.267 64.2515 328.765 64.2241 329.255 64.1449C329.678 64.0792 330.066 63.8757 330.361 63.5661C330.621 63.2968 330.812 62.9686 330.918 62.6094C331.024 62.2502 331.042 61.8708 330.969 61.5033C330.785 60.5931 330.302 59.7705 329.597 59.166C329.004 58.5864 328.247 58.204 327.429 58.0712C326.611 57.9384 325.771 58.0616 325.026 58.424C324.843 58.5046 324.647 58.5523 324.447 58.565C324.346 58.5589 324.247 58.5321 324.156 58.4862C324.065 58.4402 323.985 58.3761 323.92 58.2979L322.125 56.5839C321.995 56.467 321.916 56.305 321.902 56.1313C321.897 56.0395 321.912 55.9478 321.945 55.8621C321.979 55.7764 322.03 55.6988 322.095 55.6341C322.656 55.1004 323.339 54.7108 324.084 54.4989C324.93 54.2458 325.814 54.1429 326.695 54.1947C327.666 54.2538 328.621 54.4692 329.522 54.8328C330.487 55.2131 331.367 55.7805 332.112 56.5023H332.142Z" fill="white"/>
</g>
<path d="M56.9932 256.518C59.3453 257.95 62.4691 258.002 65.4149 256.971L67.6409 241.389L57.2529 238.732L56.9932 256.518Z" fill="#FFA8A7"/>
<path d="M73.7546 271.432C74.0143 271.699 73.8585 273.658 73.5394 274.095C73.2203 274.533 71.4321 276.017 68.1376 276.077C64.999 276.129 62.2016 275.557 60.4505 274.288C58.6994 273.02 57.8609 271.691 57.7793 269.896C57.6977 268.1 57.9945 266.401 57.2228 264.984C56.4511 263.567 55.5236 262.379 55.2862 261.682C55.0075 260.418 55.0075 259.109 55.2862 257.846L73.7546 271.432Z" fill="#263238"/>
<path d="M66.1345 256.318C66.1491 256.994 66.2437 257.667 66.4164 258.321C66.821 259.725 67.3914 261.075 68.1156 262.343C68.4758 263.005 68.8798 263.642 69.3251 264.25C70.208 265.43 71.3359 266.416 72.2931 267.552C73.3091 268.628 73.9202 270.023 74.0219 271.499C74.0219 273.963 71.3136 274.653 69.2434 274.905C66.9939 275.18 64.7113 274.944 62.5654 274.215C61.4424 273.856 60.4467 273.18 59.6979 272.27C58.949 271.359 58.4787 270.252 58.3435 269.08C58.2618 268.39 58.3435 267.7 58.2989 267.01C58.1142 265.427 57.5378 263.915 56.622 262.61C56.0896 261.855 55.6417 261.044 55.2864 260.191C54.7225 258.64 55.3309 256.956 55.8207 255.465C56.2436 254.181 56.5627 252.63 57.0375 252.779C57.0375 253.038 57.0375 253.617 57.0375 253.617C57.1711 253.906 57.4976 254.114 57.5792 254.455C57.6562 254.808 57.7629 255.153 57.8983 255.487C58.1003 256.003 58.4582 256.444 58.9222 256.748C59.0038 255.821 59.0855 254.893 59.1597 253.973C59.1386 253.827 59.1511 253.678 59.1963 253.537C59.2415 253.397 59.3182 253.268 59.4205 253.161C59.5227 253.055 59.648 252.973 59.7866 252.922C59.9253 252.871 60.0738 252.853 60.2207 252.868C61.9613 252.549 63.74 252.497 65.4963 252.712C65.6286 252.722 65.7577 252.758 65.8761 252.817C65.9945 252.877 66.1 252.96 66.1864 253.06C66.277 253.258 66.3055 253.478 66.268 253.691C66.1762 254.564 66.1316 255.441 66.1345 256.318Z" fill="#5564C1"/>
<path opacity="0.2" d="M66.1345 256.318C66.1491 256.994 66.2437 257.667 66.4164 258.321C66.821 259.725 67.3914 261.075 68.1156 262.343C68.4758 263.005 68.8798 263.642 69.3251 264.25C70.208 265.43 71.3359 266.416 72.2931 267.552C73.3091 268.628 73.9202 270.023 74.0219 271.499C74.0219 273.963 71.3136 274.653 69.2434 274.905C66.9939 275.18 64.7113 274.944 62.5654 274.215C61.4424 273.856 60.4467 273.18 59.6979 272.27C58.949 271.359 58.4787 270.252 58.3435 269.08C58.2618 268.39 58.3435 267.7 58.2989 267.01C58.1142 265.427 57.5378 263.915 56.622 262.61C56.0896 261.855 55.6417 261.044 55.2864 260.191C54.7225 258.64 55.3309 256.956 55.8207 255.465C56.2436 254.181 56.5627 252.63 57.0375 252.779C57.0375 253.038 57.0375 253.617 57.0375 253.617C57.1711 253.906 57.4976 254.114 57.5792 254.455C57.6562 254.808 57.7629 255.153 57.8983 255.487C58.1003 256.003 58.4582 256.444 58.9222 256.748C59.0038 255.821 59.0855 254.893 59.1597 253.973C59.1386 253.827 59.1511 253.678 59.1963 253.537C59.2415 253.397 59.3182 253.268 59.4205 253.161C59.5227 253.055 59.648 252.973 59.7866 252.922C59.9253 252.871 60.0738 252.853 60.2207 252.868C61.9613 252.549 63.74 252.497 65.4963 252.712C65.6286 252.722 65.7577 252.758 65.8761 252.817C65.9945 252.877 66.1 252.96 66.1864 253.06C66.277 253.258 66.3055 253.478 66.268 253.691C66.1762 254.564 66.1316 255.441 66.1345 256.318Z" fill="black"/>
<path d="M68.4198 262.877C67.5442 262.135 65.4963 262.024 64.3684 262.083C63.2258 262.122 62.111 262.446 61.1259 263.026C60.9803 263.114 60.8086 263.15 60.6397 263.127C60.4708 263.104 60.315 263.024 60.1984 262.899C60.1298 262.827 60.078 262.741 60.0464 262.646C60.0148 262.552 60.0043 262.451 60.0156 262.352C60.027 262.253 60.0598 262.158 60.1119 262.073C60.164 261.988 60.234 261.916 60.3171 261.861C61.4075 261.15 62.6741 260.757 63.9752 260.725C66.7799 260.681 67.5219 261.185 67.5219 261.185C67.5219 261.185 68.7388 262.076 68.4198 262.877Z" fill="#455A64"/>
<path d="M70.3862 265.504C69.2732 264.762 67.0175 264.762 65.8897 264.799C64.768 264.852 63.6802 265.2 62.7362 265.808C62.5899 265.899 62.4166 265.936 62.2461 265.913C62.0755 265.89 61.9183 265.808 61.8012 265.682C61.7318 265.61 61.6793 265.523 61.6476 265.428C61.6158 265.333 61.6056 265.232 61.6177 265.133C61.6298 265.033 61.6638 264.938 61.7174 264.853C61.771 264.768 61.8427 264.697 61.9274 264.643C63.0241 263.893 64.3097 263.466 65.6374 263.411C68.405 263.359 69.0951 263.968 69.0951 263.968C69.4133 264.108 69.6951 264.32 69.9189 264.586C70.1427 264.852 70.3025 265.166 70.3862 265.504Z" fill="#455A64"/>
<path d="M63.0179 258.031C64.1897 257.891 65.3779 258.054 66.4682 258.506C66.9357 258.81 67.2102 259.589 66.8912 259.768C65.9289 259.321 64.871 259.12 63.8119 259.181C62.7749 259.227 61.7534 259.451 60.7919 259.842C60.5471 259.931 60.2651 260.064 60.0499 260.183C59.9706 260.224 59.8838 260.247 59.7949 260.253C59.706 260.258 59.6169 260.245 59.5333 260.215C59.4497 260.184 59.3733 260.136 59.3089 260.075C59.2446 260.013 59.1937 259.939 59.1595 259.857C59.113 259.719 59.1157 259.57 59.1671 259.435C59.2186 259.299 59.3156 259.186 59.4415 259.115C60.543 258.503 61.7623 258.134 63.0179 258.031Z" fill="#455A64"/>
<path d="M86.2726 250.663C88.0831 255.197 90.9175 253.802 95.236 251.19L95.8889 235.712L84.8999 234.695L86.2726 250.663Z" fill="#FFA8A7"/>
<path d="M111.812 261.579C112.013 262.308 111.928 263.085 111.575 263.753C111.233 264.377 107.798 266.083 103.309 265.534C99.9802 265.124 96.823 263.828 94.1673 261.78C92.5127 260.548 90.7393 260.244 88.5133 259.991C86.2873 259.739 84.6178 258.967 84.18 257.899C83.7422 256.83 84.41 255.064 84.41 255.064L111.812 261.579Z" fill="#263238"/>
<path d="M94.3304 247.311C94.7361 247.225 95.1353 247.111 95.5251 246.969C95.7429 246.889 95.9824 246.889 96.2003 246.969C96.4822 247.095 96.5713 247.437 96.6381 247.711C96.7014 248.383 96.8306 249.046 97.0239 249.692C97.3275 250.229 97.7304 250.702 98.2111 251.087C99.2805 252.044 100.447 252.887 101.691 253.603C103.123 254.478 104.533 255.168 106.01 255.933C107.486 256.697 109.556 257.246 110.729 258.159C112.428 259.45 112.495 262.455 110.417 263.523C108.629 264.451 103.999 265.312 99.287 263.694C96.7123 262.811 93.9669 259.865 90.5537 259.413C88.3796 259.131 85.4858 258.789 84.1725 257.06C83.6976 256.318 84.1131 254.167 84.4989 251.651C84.8477 249.425 85.1667 245.864 85.8865 246.101L85.9384 246.784L86.814 247.83C87.0058 248.034 87.2089 248.227 87.4224 248.409C87.6567 248.683 87.9044 248.945 88.1644 249.195C88.5172 249.497 88.9557 249.682 89.4184 249.722C89.6378 249.736 89.8565 249.687 90.0491 249.581C90.4201 249.373 90.472 248.884 90.7911 248.579C91.1362 248.225 91.5503 247.944 92.008 247.756C92.6436 247.53 93.3082 247.395 93.9817 247.355C94.0988 247.348 94.2153 247.333 94.3304 247.311Z" fill="#5564C1"/>
<path opacity="0.2" d="M94.3304 247.311C94.7361 247.225 95.1353 247.111 95.5251 246.969C95.7429 246.889 95.9824 246.889 96.2003 246.969C96.4822 247.095 96.5713 247.437 96.6381 247.711C96.7014 248.383 96.8306 249.046 97.0239 249.692C97.3275 250.229 97.7304 250.702 98.2111 251.087C99.2805 252.044 100.447 252.887 101.691 253.603C103.123 254.478 104.533 255.168 106.01 255.933C107.486 256.697 109.556 257.246 110.729 258.159C112.428 259.45 112.495 262.455 110.417 263.523C108.629 264.451 103.999 265.312 99.287 263.694C96.7123 262.811 93.9669 259.865 90.5537 259.413C88.3796 259.131 85.4858 258.789 84.1725 257.06C83.6976 256.318 84.1131 254.167 84.4989 251.651C84.8477 249.425 85.1667 245.864 85.8865 246.101L85.9384 246.784L86.814 247.83C87.0058 248.034 87.2089 248.227 87.4224 248.409C87.6567 248.683 87.9044 248.945 88.1644 249.195C88.5172 249.497 88.9557 249.682 89.4184 249.722C89.6378 249.736 89.8565 249.687 90.0491 249.581C90.4201 249.373 90.472 248.884 90.7911 248.579C91.1362 248.225 91.5503 247.944 92.008 247.756C92.6436 247.53 93.3082 247.395 93.9817 247.355C94.0988 247.348 94.2153 247.333 94.3304 247.311Z" fill="black"/>
<path d="M99.725 252.281C99.5823 251.973 99.3651 251.706 99.0931 251.502C98.8211 251.299 98.5028 251.166 98.1668 251.117C97.1874 250.879 95.3992 251.517 94.2639 252.356C94.1561 252.434 94.0691 252.538 94.0106 252.657C93.9521 252.777 93.9238 252.909 93.9282 253.043C93.9326 253.176 93.9695 253.306 94.0358 253.422C94.1021 253.537 94.1957 253.635 94.3084 253.706C94.4514 253.792 94.6171 253.834 94.7839 253.824C94.9507 253.815 95.1108 253.756 95.2434 253.654C96.4987 252.625 98.1088 252.132 99.725 252.281Z" fill="#455A64"/>
<path d="M102.7 254.189C102.5 253.873 102.227 253.61 101.905 253.422C101.582 253.233 101.219 253.125 100.845 253.106C99.3144 253.091 97.8182 253.561 96.5713 254.449C96.4657 254.522 96.3794 254.619 96.3198 254.733C96.2601 254.847 96.229 254.973 96.229 255.102C96.229 255.23 96.2601 255.357 96.3198 255.47C96.3794 255.584 96.4657 255.682 96.5713 255.755C96.7102 255.839 96.8714 255.878 97.0332 255.867C97.1951 255.857 97.3498 255.797 97.4765 255.695C98.1775 255.067 99.0114 254.605 99.916 254.344C100.821 254.084 101.772 254.03 102.7 254.189Z" fill="#455A64"/>
<path d="M106.01 255.924C105.778 255.629 105.486 255.388 105.153 255.216C104.821 255.045 104.455 254.947 104.08 254.93C102.603 254.942 101.167 255.419 99.9771 256.295C99.8739 256.372 99.7908 256.472 99.735 256.588C99.6792 256.704 99.6523 256.831 99.6567 256.96C99.6611 257.088 99.6966 257.213 99.7601 257.325C99.8237 257.437 99.9134 257.531 100.022 257.601C100.156 257.692 100.317 257.736 100.479 257.726C100.641 257.717 100.796 257.655 100.919 257.549C101.582 256.899 102.387 256.414 103.271 256.131C104.155 255.849 105.093 255.778 106.01 255.924Z" fill="#455A64"/>
<path d="M56.7035 214.744C57.0374 207.272 58.6253 203.384 58.8479 201.313C58.8479 201.313 59.4563 160.207 60.458 147.734L97.2612 146.168C97.8029 159.524 98.2926 195.407 98.0032 200.156C97.7287 204.704 95.8811 244.157 95.8811 244.157C90.6871 245.782 85.1444 243.415 85.1444 243.415C85.1444 243.415 82.0577 220.969 81.5531 216.02C81.195 211.568 81.3094 207.091 81.8944 202.664L79.5423 170.706C79.5423 170.706 76.7004 195.489 75.298 204.838C73.6953 215.53 66.7799 248.675 66.7799 248.675C61.8085 249.914 56.9706 247.77 56.9706 247.77C56.9706 247.77 56.2138 225.569 56.7035 214.744Z" fill="#455A64"/>
<path d="M79.5498 170.736L80.2473 166.328C82.3917 166.009 87.8231 162.618 91.036 159.65C88.7473 163.114 85.6507 165.968 82.0132 167.968L81.9019 202.679L79.5498 170.736Z" fill="#37474F"/>
<path d="M94.6424 124.514C92.1419 118.808 87.8383 109.199 87.8383 109.199L86.7476 93.6172C88.3397 93.6679 89.9277 93.8091 91.5038 94.0401C93.8188 94.4037 97.4917 96.6149 99.1686 100.785C100.423 103.879 106.937 122.756 106.937 122.756L118.29 116.775C121.199 114.927 122.23 111.863 124.085 110.097C125.94 108.331 127.795 108.064 129.85 106.647C131.906 105.229 132.714 104.094 133.234 105.511C133.753 106.929 131.453 109.103 131.008 109.644C130.563 110.186 128.329 111.344 131.178 111.492C134.028 111.64 139.793 108.865 141.173 108.39C142.553 107.916 142.435 109.555 141.715 110.572C140.995 111.588 140.921 114.571 139.719 116.241C138.443 118.022 137.753 118.786 135.015 119.847C132.47 120.826 127.194 121.079 124.478 122.644C121.763 124.21 115.188 130.153 110.803 133.203C104.919 137.299 101.61 137.566 99.3022 134.301C96.9946 131.036 95.5254 126.525 94.6424 124.514Z" fill="#FFA8A7"/>
<path d="M85.2114 93.284C89.0698 92.9872 93.6183 93.2246 96.1337 95.51C98.1445 97.3427 98.9013 98.478 101.142 104.815C102.626 109.066 105.802 118.861 105.802 118.861C101.442 119.844 97.5287 122.242 94.6719 125.68L87.4374 109.422L85.2114 93.284Z" fill="#E0E0E0"/>
<path d="M106.937 122.719C104.982 123.411 103.299 124.711 102.136 126.429C102.136 126.429 102.411 123.461 106.588 121.688L106.937 122.719Z" fill="#F28F8F"/>
<path d="M75.9733 92.5858C74.1457 92.5104 72.3172 92.7105 70.5492 93.1794C67.1583 94.0772 61.0813 95.7838 61.0813 95.7838C59.1521 96.7855 58.4027 100.125 57.9649 102.046C56.57 108.197 60.1909 122.08 60.7474 127.489C61.3039 132.899 60.1019 149.468 60.1019 149.468C64.2497 154.276 86.7248 157.466 97.6693 149.468C97.6693 149.468 98.1442 111.425 97.0683 105.964C95.4359 97.6982 93.0096 93.773 84.4543 93.2758L75.9733 92.5858Z" fill="#F5F5F5"/>
<path d="M80.774 72.1816L78.3328 73.5247C78.1639 73.1885 78.129 72.8008 78.235 72.4399C78.3411 72.079 78.5802 71.7719 78.9041 71.5806C79.0655 71.493 79.2429 71.439 79.4257 71.4219C79.6085 71.4048 79.7928 71.425 79.9676 71.4812C80.1424 71.5373 80.3039 71.6284 80.4425 71.7488C80.5811 71.8692 80.6939 72.0164 80.774 72.1816Z" fill="#263238"/>
<path d="M91.392 73.1612L89.166 71.4472C89.2706 71.2967 89.4047 71.169 89.5602 71.0719C89.7157 70.9749 89.8894 70.9105 90.0706 70.8828C90.2518 70.855 90.4367 70.8644 90.6141 70.9104C90.7916 70.9564 90.9578 71.0381 91.1026 71.1504C91.3975 71.3859 91.5916 71.725 91.6453 72.0985C91.6991 72.4721 91.6085 72.8521 91.392 73.1612Z" fill="#263238"/>
<path d="M69.5553 64.4121C69.5553 64.4121 66.9286 64.7757 65.964 66.7791C65.133 68.5005 65.4298 72.6557 66.5502 77.1671C67.1834 80.0942 68.1286 82.9449 69.3698 85.6704C69.8082 86.4426 70.5248 87.0185 71.3732 87.2805L71.2322 81.8936L71.0393 78.1836C71.0393 78.1836 73.4359 74.904 73.7031 72.2476C74.0444 68.7899 73.3172 67.3727 73.3172 67.3727L69.5553 64.4121Z" fill="#263238"/>
<path d="M73.792 69.6065C73.8019 72.2652 74.8659 74.8115 76.7508 76.6866C78.6357 78.5618 81.1874 79.6126 83.8461 79.6087C89.3815 79.6087 93.5367 75.0454 93.4921 69.5026C93.4476 63.9599 89.2924 59.5227 83.7497 59.545C81.0968 59.5646 78.5597 60.6343 76.6935 62.5199C74.8274 64.4055 73.7841 66.9536 73.792 69.6065Z" fill="#263238"/>
<path d="M71.2321 77.5533C70.3268 78.3398 69.5923 76.3141 68.8354 75.5202C68.0786 74.7263 65.5929 73.6578 64.3834 76.2622C63.174 78.8666 65.4667 82.6434 67.3514 83.3706C67.9203 83.586 68.5452 83.6036 69.1254 83.4205C69.7056 83.2374 70.2072 82.8644 70.5494 82.3615V94.2334C73.4061 99.3829 78.4443 99.2197 81.1378 98.9303C83.8312 98.6409 84.4174 95.8436 82.4511 93.5879V89.8779C83.9477 90.1127 85.4652 90.1849 86.9773 90.0931C89.4408 89.7072 90.6873 87.8671 91.4293 85.1736C92.6165 80.8775 93.0988 73.6652 91.4293 65.3326C88.6691 63.1956 79.0973 63.5517 73.3023 67.2246C73.7549 74.6966 72.0928 76.7742 71.2321 77.5533Z" fill="#FFA8A7"/>
<path d="M91.9189 61.2074C92.2917 59.6606 92.4588 58.0714 92.416 56.4809C92.416 55.8576 92.2602 55.1007 91.6741 54.8633C91.0879 54.6259 90.5091 55.0562 90.0046 55.3975C87.8676 56.837 85.2112 57.2451 82.6365 57.3861C78.1845 57.631 71.3804 57.3416 69.1173 62.2165C68.4866 63.567 68.3753 64.9916 69.6218 65.9265C70.7332 66.671 72.0041 67.1438 73.3318 67.3066C75.5578 67.6999 77.7838 68.1896 80.0692 68.4938C82.3545 68.798 85.0702 69.0949 87.3333 68.3974C89.2403 67.8112 91.1769 67.3066 92.5941 65.793C93.8225 64.4731 94.5155 62.7432 94.5382 60.9403C94.5382 60.688 94.4862 60.3689 94.2339 60.3022C94.1079 60.2863 93.9801 60.3124 93.8704 60.3764L91.9189 61.2074Z" fill="#263238"/>
<path d="M82.4286 89.9605C82.4286 89.9605 76.923 88.8698 75.0086 87.8532C73.8746 87.2658 72.9438 86.3505 72.3374 85.2266C72.6194 86.3494 73.124 87.4041 73.8214 88.3281C75.2386 90.1238 82.4138 91.4223 82.4138 91.4223L82.4286 89.9605Z" fill="#F28F8F"/>
<path d="M81.3234 75.8251C81.3161 76.0684 81.2373 76.3042 81.0968 76.5031C80.9563 76.7019 80.7603 76.8549 80.5333 76.9431C80.3064 77.0312 80.0585 77.0505 79.8206 76.9986C79.5827 76.9467 79.3654 76.8258 79.1958 76.6511C79.0262 76.4765 78.9118 76.2557 78.8669 76.0164C78.8221 75.7771 78.8487 75.5299 78.9434 75.3056C79.0382 75.0813 79.197 74.8899 79.3999 74.7554C79.6028 74.6208 79.8408 74.5489 80.0843 74.5488C80.4175 74.5547 80.7349 74.6922 80.9671 74.9313C81.1993 75.1705 81.3274 75.4918 81.3234 75.8251Z" fill="#263238"/>
<path d="M83.104 84.3954C83.11 84.709 82.9916 85.0123 82.7747 85.2389C82.5578 85.4655 82.2601 85.5971 81.9465 85.6049C81.631 85.599 81.3305 85.4685 81.1109 85.2419C80.8912 85.0153 80.7702 84.711 80.7741 84.3954C80.7712 84.2405 80.7988 84.0865 80.8554 83.9422C80.9119 83.7979 80.9964 83.6662 81.1039 83.5546C81.2114 83.443 81.3398 83.3536 81.4818 83.2916C81.6239 83.2296 81.7767 83.1963 81.9317 83.1934C82.2459 83.1992 82.5452 83.3287 82.7646 83.5537C82.9841 83.7787 83.106 84.0811 83.104 84.3954Z" fill="#B16668"/>
<path d="M79.7651 71.9292L77.2127 73.5393C77.0021 73.1889 76.9354 72.7706 77.0268 72.3721C77.1181 71.9737 77.3602 71.6261 77.7024 71.4024C77.8716 71.2986 78.06 71.2299 78.2563 71.2002C78.4525 71.1706 78.6528 71.1806 78.8451 71.2297C79.0375 71.2789 79.218 71.3661 79.376 71.4862C79.534 71.6064 79.6664 71.757 79.7651 71.9292Z" fill="#263238"/>
<path d="M88.7732 70.3555L91.4592 71.5575C91.3867 71.7338 91.2793 71.8936 91.1433 72.0272C91.0074 72.1608 90.8457 72.2655 90.6682 72.3348C90.4906 72.4042 90.3008 72.4368 90.1103 72.4307C89.9198 72.4247 89.7325 72.38 89.5597 72.2995C89.209 72.1328 88.9336 71.8405 88.788 71.4806C88.6424 71.1206 88.6371 70.7191 88.7732 70.3555Z" fill="#263238"/>
<path d="M90.1902 75.454C90.1814 75.6878 90.1042 75.914 89.9681 76.1043C89.8319 76.2947 89.6429 76.4409 89.4244 76.5247C89.2059 76.6086 88.9676 76.6264 88.7391 76.576C88.5106 76.5256 88.3019 76.4092 88.1389 76.2412C87.976 76.0732 87.8659 75.8611 87.8225 75.6312C87.7791 75.4012 87.8041 75.1635 87.8946 74.9477C87.985 74.7319 88.1369 74.5474 88.3313 74.4171C88.5257 74.2868 88.7541 74.2165 88.9881 74.2148C89.3115 74.2207 89.6195 74.3543 89.8447 74.5865C90.0699 74.8187 90.1941 75.1305 90.1902 75.454Z" fill="#263238"/>
<path d="M84.1206 73.3613L84.5658 81.6124L88.4761 80.5736L84.1206 73.3613Z" fill="#F28F8F"/>
<path d="M14.84 107.344C16.1237 108.035 21.3548 111.715 24.1967 112.034C25.3987 112.167 25.7252 111.975 25.6807 111.663C25.6213 111.233 24.857 110.587 24.6715 110.238C24.3525 109.63 22.4455 107.107 23.1875 105.786C23.9295 104.466 24.5751 105.727 26.3411 107.456C28.107 109.185 29.9175 109.786 31.4683 111.796C33.0191 113.807 33.5385 116.99 36.1058 119.298L46.3305 126.28C46.3305 126.28 51.0942 104.176 53.1866 101.572C55.4126 98.8337 64.9621 104.799 62.9587 113.503C60.9553 122.207 56.392 137.314 53.2163 140.274C51.1684 142.196 46.8573 140.386 41.4778 135.6C37.2262 131.816 31.4015 126.139 28.9381 124.128C26.4746 122.118 21.3548 121.034 19.0027 119.676C16.4725 118.192 15.9159 117.324 14.9439 115.358C14.0313 113.51 14.4394 110.55 13.8977 109.422C13.356 108.294 13.5341 106.654 14.84 107.344Z" fill="#FFA8A7"/>
<path d="M61.0815 95.7852C64.3611 97.8331 64.5244 100.816 64.6876 104.229C64.7341 108.224 64.1018 112.199 62.8178 115.982C61.4303 120.279 59.2265 128.122 59.2265 128.122C59.2265 128.122 50.6638 128.322 46.2563 124.515C46.2563 124.515 48.2672 116.057 49.6844 109.675C51.1016 103.294 52.823 96.5049 61.0815 95.7852Z" fill="#E0E0E0"/>
<path d="M46.2935 126.295C48.6308 127.594 50.0035 130.384 50.4264 131.489C50.3252 130.202 49.92 128.957 49.2441 127.857C48.5682 126.757 47.6409 125.832 46.5383 125.16L46.2935 126.295Z" fill="#F28F8F"/>
<path d="M135.125 286.666L192.393 319.73V331.913L135.125 298.85V286.666Z" fill="#5564C1"/>
<path opacity="0.35" d="M135.125 286.666L192.393 319.73V331.913L135.125 298.85V286.666Z" fill="black"/>
<path d="M249.661 286.666L192.393 319.73V331.913L249.661 298.85V286.666Z" fill="#5564C1"/>
<path opacity="0.2" d="M249.661 286.666L192.393 319.73V331.913L249.661 298.85V286.666Z" fill="black"/>
<path d="M249.661 286.665L192.393 253.609L135.125 286.665L192.393 319.729L249.661 286.665Z" fill="#5564C1"/>
<path opacity="0.15" d="M249.661 286.665L192.393 253.609L135.125 286.665L192.393 319.729L249.661 286.665Z" fill="black"/>
<path opacity="0.1" d="M192.393 319.73V316.25L141.151 286.666H135.125L192.393 319.73Z" fill="black"/>
<path opacity="0.1" d="M192.393 253.609V257.089L243.636 286.665H249.661L192.393 253.609Z" fill="black"/>
<path d="M249.661 286.666H243.636L192.393 316.25V319.73L249.661 286.666Z" fill="#5564C1"/>
<path d="M192.393 253.609V257.089L141.151 286.665H135.125L192.393 253.609Z" fill="#5564C1"/>
<path d="M192.601 272.315L217.205 286.517C219.046 287.586 219.046 289.307 217.205 290.368L198.856 300.994C197.822 301.522 196.678 301.797 195.517 301.797C194.356 301.797 193.211 301.522 192.178 300.994L167.573 286.792C165.733 285.723 165.733 284.002 167.573 282.941L185.93 272.315C186.963 271.788 188.106 271.514 189.265 271.514C190.425 271.514 191.568 271.788 192.601 272.315Z" fill="#37474F"/>
<path d="M198.856 300.994L216.597 290.746L192.601 276.893C191.565 276.371 190.422 276.1 189.262 276.1C188.102 276.1 186.959 276.371 185.923 276.893L168.182 287.155L192.178 300.994C193.212 301.522 194.356 301.797 195.517 301.797C196.678 301.797 197.822 301.522 198.856 300.994Z" fill="#455A64"/>
<path d="M177.739 286.688L188.505 280.477C188.705 280.377 188.926 280.324 189.151 280.324C189.375 280.324 189.596 280.377 189.796 280.477L191.117 281.219C191.473 281.419 191.473 281.753 191.117 281.961L180.351 288.172C180.151 288.272 179.932 288.324 179.709 288.324C179.486 288.324 179.266 288.272 179.067 288.172L177.746 287.43C177.669 287.403 177.602 287.354 177.554 287.288C177.506 287.222 177.48 287.143 177.48 287.061C177.479 286.98 177.503 286.9 177.55 286.833C177.596 286.766 177.662 286.715 177.739 286.688Z" fill="#263238"/>
<path d="M193.818 295.984L204.584 289.774C204.783 289.673 205.003 289.621 205.226 289.621C205.449 289.621 205.669 289.673 205.868 289.774L207.196 290.516C207.552 290.716 207.552 291.05 207.196 291.258L196.43 297.468C196.231 297.569 196.011 297.621 195.788 297.621C195.565 297.621 195.345 297.569 195.146 297.468L193.825 296.726C193.748 296.7 193.681 296.651 193.633 296.585C193.586 296.519 193.559 296.439 193.559 296.358C193.558 296.277 193.582 296.197 193.629 296.13C193.675 296.063 193.741 296.012 193.818 295.984Z" fill="#263238"/>
<path d="M167.514 310.728C167.453 309.602 167.127 308.506 166.562 307.53C165.998 306.554 165.21 305.725 164.264 305.111C163.937 304.872 163.551 304.726 163.148 304.686C162.744 304.647 162.338 304.717 161.971 304.889L160.569 305.705C160.238 305.938 159.976 306.254 159.809 306.622C159.643 306.99 159.577 307.396 159.619 307.797C159.68 308.923 160.006 310.019 160.569 310.996C161.132 311.973 161.918 312.804 162.861 313.422C163.19 313.66 163.577 313.807 163.981 313.846C164.386 313.885 164.793 313.816 165.162 313.644L166.557 312.806C166.885 312.574 167.146 312.26 167.314 311.895C167.482 311.531 167.551 311.128 167.514 310.728Z" fill="#5564C1"/>
<path opacity="0.1" d="M162.862 305.949C163.808 306.563 164.595 307.392 165.16 308.368C165.725 309.344 166.051 310.44 166.112 311.566C166.112 313.636 164.628 314.475 162.862 313.443C161.918 312.826 161.133 311.995 160.569 311.018C160.006 310.041 159.681 308.945 159.619 307.819C159.619 305.756 161.073 304.918 162.862 305.949Z" fill="black"/>
<path d="M125.22 329.649C121.599 329.712 118.023 328.846 114.832 327.133L76.8414 305.2C73.7918 303.434 72.1074 301 72.1074 298.344C72.1074 295.687 73.7918 293.261 76.8414 291.495L120.857 266.082C125.68 263.299 129.761 256.243 129.761 250.67V111.375C129.761 110.981 129.917 110.604 130.195 110.325C130.474 110.047 130.851 109.891 131.245 109.891C131.638 109.891 132.016 110.047 132.294 110.325C132.572 110.604 132.729 110.981 132.729 111.375V250.67C132.729 257.393 128.173 265.295 122.341 268.656L78.3254 294.07C76.2329 295.279 75.0754 296.793 75.0754 298.344C75.0754 299.895 76.2329 301.416 78.3254 302.625L116.316 324.559C121.22 327.393 129.204 327.393 134.124 324.559L162.134 308.398C162.303 308.29 162.492 308.218 162.69 308.186C162.887 308.153 163.089 308.161 163.283 308.209C163.478 308.256 163.661 308.343 163.821 308.463C163.981 308.583 164.115 308.734 164.215 308.908C164.315 309.081 164.379 309.273 164.404 309.471C164.428 309.67 164.411 309.871 164.356 310.064C164.3 310.256 164.206 310.435 164.079 310.59C163.952 310.745 163.796 310.872 163.618 310.965L135.608 327.133C132.418 328.847 128.841 329.714 125.22 329.649Z" fill="#37474F"/>
<path d="M58.5592 58.1067C58.5372 58.0061 58.5364 57.9021 58.5569 57.8011C58.5773 57.7002 58.6185 57.6047 58.6779 57.5205C58.7338 57.4326 58.8077 57.3574 58.8946 57.2998C58.9815 57.2423 59.0796 57.2037 59.1825 57.1866L62.7886 56.4892C62.8903 56.4661 62.9958 56.4648 63.0981 56.4852C63.2003 56.5057 63.2972 56.5475 63.3822 56.6079C63.5546 56.7265 63.6743 56.9074 63.7161 57.1124L64.2726 60.0062C64.2935 60.1074 64.2931 60.2117 64.2714 60.3126C64.2497 60.4136 64.2071 60.5089 64.1465 60.5924C64.0921 60.681 64.0198 60.7571 63.9341 60.8159C63.8485 60.8747 63.7515 60.9148 63.6493 60.9337L60.0358 61.6238C59.9352 61.6458 59.8311 61.6466 59.7302 61.6261C59.6293 61.6057 59.5337 61.5645 59.4496 61.5051C59.3616 61.4492 59.2864 61.3753 59.2289 61.2884C59.1713 61.2015 59.1328 61.1034 59.1157 61.0005L58.5592 58.1067ZM55.5467 42.4802C55.5262 42.3783 55.5261 42.2734 55.5464 42.1715C55.5667 42.0696 55.607 41.9728 55.665 41.8865C55.7229 41.8003 55.7974 41.7264 55.8841 41.6691C55.9707 41.6118 56.0679 41.5722 56.1699 41.5527L59.7835 40.8552C59.8846 40.8343 59.989 40.8347 60.0899 40.8564C60.1908 40.8782 60.2861 40.9207 60.3697 40.9814C60.4568 41.0365 60.5315 41.1092 60.589 41.1948C60.6465 41.2803 60.6855 41.377 60.7036 41.4785L63.0706 53.8476C63.0915 53.9488 63.0911 54.0531 63.0693 54.154C63.0476 54.255 63.0051 54.3503 62.9444 54.4338C62.8893 54.521 62.8166 54.5957 62.731 54.6532C62.6454 54.7106 62.5488 54.7497 62.4473 54.7677L58.8337 55.4652C58.7326 55.4861 58.6283 55.4857 58.5273 55.464C58.4264 55.4423 58.3311 55.3997 58.2476 55.3391C58.1604 55.2839 58.0857 55.2113 58.0282 55.1257C57.9707 55.0401 57.9317 54.9434 57.9137 54.8419L55.5467 42.4802Z" fill="#5564C1"/>
<path d="M52.5339 70.2162C52.4645 70.1393 52.411 70.0495 52.3764 69.9519C52.3418 69.8542 52.3269 69.7508 52.3324 69.6474C52.3379 69.5439 52.3638 69.4426 52.4085 69.3493C52.4533 69.2559 52.5161 69.1722 52.5932 69.1032L55.3312 66.6472C55.4076 66.5768 55.498 66.5233 55.5964 66.49C55.6948 66.4568 55.7991 66.4446 55.9026 66.4542C56.0054 66.4564 56.1067 66.48 56.1999 66.5234C56.2931 66.5669 56.3763 66.6292 56.4442 66.7065L58.4105 68.9325C58.4799 69.0094 58.5334 69.0992 58.568 69.1968C58.6026 69.2945 58.6175 69.3979 58.612 69.5014C58.6065 69.6048 58.5806 69.7061 58.5359 69.7995C58.4911 69.8928 58.4283 69.9765 58.3512 70.0455L55.6503 72.4719C55.5739 72.5422 55.4835 72.5958 55.3851 72.629C55.2867 72.6622 55.1824 72.6744 55.0789 72.6648C54.9761 72.6626 54.8748 72.639 54.7816 72.5956C54.6883 72.5522 54.6051 72.4898 54.5373 72.4125L52.5339 70.2162ZM41.9159 58.3442C41.7762 58.1877 41.7042 57.9823 41.7155 57.7728C41.7186 57.6694 41.7434 57.5678 41.7881 57.4746C41.8328 57.3813 41.8966 57.2984 41.9752 57.2312L44.7132 54.7752C44.789 54.7035 44.879 54.6486 44.9775 54.6141C45.0759 54.5795 45.1806 54.5662 45.2845 54.5748C45.3879 54.578 45.4895 54.6027 45.5828 54.6474C45.6761 54.6921 45.759 54.7559 45.8262 54.8345L54.2256 64.2282C54.296 64.3047 54.3495 64.395 54.3828 64.4934C54.416 64.5918 54.4282 64.6962 54.4186 64.7996C54.4163 64.9024 54.3928 65.0037 54.3493 65.0969C54.3059 65.1902 54.2436 65.2734 54.1663 65.3412L51.4209 67.7973C51.3453 67.8667 51.2562 67.9196 51.1591 67.9528C51.0621 67.986 50.9592 67.9988 50.857 67.9902C50.7529 67.989 50.6502 67.9659 50.5556 67.9225C50.461 67.879 50.3766 67.8161 50.3079 67.7379L41.9159 58.3442Z" fill="#5564C1"/>
<g opacity="0.6">
<path opacity="0.6" d="M52.5339 70.2162C52.4645 70.1393 52.411 70.0495 52.3764 69.9519C52.3418 69.8542 52.3269 69.7508 52.3324 69.6474C52.3379 69.5439 52.3638 69.4426 52.4085 69.3493C52.4533 69.2559 52.5161 69.1722 52.5932 69.1032L55.3312 66.6472C55.4076 66.5768 55.498 66.5233 55.5964 66.49C55.6948 66.4568 55.7991 66.4446 55.9026 66.4542C56.0054 66.4564 56.1067 66.48 56.1999 66.5234C56.2931 66.5669 56.3763 66.6292 56.4442 66.7065L58.4105 68.9325C58.4799 69.0094 58.5334 69.0992 58.568 69.1968C58.6026 69.2945 58.6175 69.3979 58.612 69.5014C58.6065 69.6048 58.5806 69.7061 58.5359 69.7995C58.4911 69.8928 58.4283 69.9765 58.3512 70.0455L55.6503 72.4719C55.5739 72.5422 55.4835 72.5958 55.3851 72.629C55.2867 72.6622 55.1824 72.6744 55.0789 72.6648C54.9761 72.6626 54.8748 72.639 54.7816 72.5956C54.6883 72.5522 54.6051 72.4898 54.5373 72.4125L52.5339 70.2162ZM41.9159 58.3442C41.7762 58.1877 41.7042 57.9823 41.7155 57.7728C41.7186 57.6694 41.7434 57.5678 41.7881 57.4746C41.8328 57.3813 41.8966 57.2984 41.9752 57.2312L44.7132 54.7752C44.789 54.7035 44.879 54.6486 44.9775 54.6141C45.0759 54.5795 45.1806 54.5662 45.2845 54.5748C45.3879 54.578 45.4895 54.6027 45.5828 54.6474C45.6761 54.6921 45.759 54.7559 45.8262 54.8345L54.2256 64.2282C54.296 64.3047 54.3495 64.395 54.3828 64.4934C54.416 64.5918 54.4282 64.6962 54.4186 64.7996C54.4163 64.9024 54.3928 65.0037 54.3493 65.0969C54.3059 65.1902 54.2436 65.2734 54.1663 65.3412L51.4209 67.7973C51.3453 67.8667 51.2562 67.9196 51.1591 67.9528C51.0621 67.986 50.9592 67.9988 50.857 67.9902C50.7529 67.989 50.6502 67.9659 50.5556 67.9225C50.461 67.879 50.3766 67.8161 50.3079 67.7379L41.9159 58.3442Z" fill="white"/>
</g>
</svg>
