<svg width="340" height="329" viewBox="0 0 340 329" fill="none" xmlns="http://www.w3.org/2000/svg">
<path d="M181.007 328.117C97.0006 328.117 28.8998 292.932 28.8998 249.529C28.8998 206.126 97.0006 170.941 181.007 170.941C265.014 170.941 333.115 206.126 333.115 249.529C333.115 292.932 265.014 328.117 181.007 328.117Z" fill="#F5F5F5"/>
<path d="M117.217 285.911C89.1509 285.911 66.3985 272.771 66.3985 256.563C66.3985 240.354 89.1509 227.215 117.217 227.215C145.284 227.215 168.036 240.354 168.036 256.563C168.036 272.771 145.284 285.911 117.217 285.911Z" fill="#E6E6E6"/>
<path d="M286.573 272.984C287.242 272.97 287.887 272.731 288.404 272.305C288.92 271.879 289.277 271.291 289.417 270.636L290.071 267.175C291.576 266.897 293.064 266.53 294.526 266.076H294.615L300.741 268.913C301.19 269.113 301.676 269.214 302.167 269.21C302.774 269.215 303.372 269.064 303.904 268.772L310 265.244C310.367 265.047 310.676 264.759 310.899 264.408C311.121 264.056 311.249 263.653 311.27 263.238C311.291 262.822 311.204 262.408 311.018 262.036C310.832 261.664 310.553 261.346 310.208 261.114L306.496 258.455C306.831 258.008 307.138 257.542 307.416 257.058L315.191 256.568C315.893 256.521 316.552 256.21 317.036 255.698C317.519 255.185 317.791 254.509 317.797 253.805V249.266C317.796 248.559 317.526 247.879 317.042 247.365C316.558 246.85 315.896 246.539 315.191 246.496L307.416 245.998C307.137 245.515 306.829 245.049 306.496 244.601L310.208 241.92C310.553 241.687 310.832 241.368 311.018 240.996C311.204 240.623 311.29 240.209 311.27 239.793C311.249 239.377 311.121 238.973 310.898 238.621C310.676 238.269 310.367 237.98 310 237.783L303.904 234.262C303.372 233.969 302.774 233.818 302.167 233.823C301.675 233.816 301.188 233.918 300.741 234.121L294.615 236.98H294.504C293.055 236.537 291.583 236.177 290.093 235.903L289.432 232.427C289.302 231.768 288.949 231.174 288.433 230.745C287.916 230.316 287.267 230.078 286.596 230.072H277.626C276.955 230.078 276.306 230.316 275.789 230.745C275.272 231.174 274.919 231.768 274.789 232.427L274.129 235.903C272.622 236.178 271.135 236.545 269.673 237.003C269.673 237.003 269.718 237.003 269.673 237.003H269.592L263.473 234.165C263.022 233.966 262.534 233.864 262.04 233.868C261.435 233.863 260.84 234.014 260.31 234.306L254.207 237.827C253.84 238.025 253.531 238.313 253.308 238.666C253.086 239.018 252.958 239.421 252.937 239.837C252.916 240.253 253.003 240.667 253.189 241.04C253.375 241.413 253.654 241.731 253.999 241.964L257.711 244.624C257.376 245.069 257.066 245.532 256.783 246.013L249.009 246.51C248.304 246.554 247.641 246.865 247.157 247.379C246.673 247.894 246.403 248.574 246.403 249.281V253.805C246.405 254.512 246.675 255.192 247.159 255.707C247.642 256.223 248.304 256.536 249.009 256.583L256.783 257.073C257.064 257.557 257.374 258.023 257.711 258.469L253.999 261.129C253.654 261.361 253.375 261.679 253.188 262.051C253.002 262.423 252.916 262.837 252.937 263.252C252.957 263.668 253.085 264.071 253.308 264.423C253.53 264.774 253.84 265.062 254.207 265.259L260.31 268.787C260.84 269.079 261.435 269.23 262.04 269.225C262.534 269.229 263.022 269.128 263.473 268.928L269.592 266.091H269.703C271.151 266.539 272.623 266.901 274.114 267.175L274.775 270.651C274.907 271.308 275.261 271.9 275.778 272.327C276.294 272.754 276.941 272.991 277.611 272.999L286.573 272.984ZM291.415 247.283C293.501 248.494 294.697 250.039 294.697 251.532C294.697 253.025 293.501 254.57 291.415 255.781C288.548 257.309 285.337 258.076 282.089 258.009C278.843 258.079 275.633 257.312 272.77 255.781C270.683 254.577 269.488 253.032 269.488 251.539C269.488 250.046 270.683 248.501 272.77 247.29C275.634 245.763 278.843 244.995 282.089 245.062C285.336 244.993 288.547 245.758 291.415 247.283Z" fill="#E0E0E0"/>
<path d="M215.402 238.661L218.09 235.831C218.766 235.868 219.441 235.89 220.11 235.89C220.778 235.89 221.469 235.89 222.1 235.831L224.951 238.839C225.235 239.117 225.572 239.335 225.942 239.481C226.312 239.626 226.707 239.696 227.104 239.686C227.372 239.687 227.638 239.657 227.899 239.597L234.47 238.022C234.857 237.933 235.219 237.759 235.53 237.513C235.841 237.266 236.093 236.952 236.267 236.596C236.411 236.281 236.483 235.938 236.477 235.592C236.47 235.246 236.386 234.906 236.23 234.598L235.124 232.406C235.747 232.057 236.341 231.663 236.891 231.314L243.136 232.362C243.283 232.385 243.432 232.398 243.581 232.399C244.072 232.39 244.554 232.267 244.989 232.04C245.425 231.813 245.802 231.489 246.091 231.092L248.578 227.615C248.883 227.178 249.053 226.662 249.068 226.13C249.064 225.631 248.901 225.146 248.604 224.745C248.306 224.345 247.889 224.049 247.413 223.901L242.534 222.356V221.866L247.242 220.38C247.743 220.246 248.191 219.959 248.523 219.56C248.855 219.161 249.056 218.67 249.098 218.152V218.026C249.099 217.55 248.948 217.087 248.667 216.703L245.95 212.915C245.668 212.553 245.304 212.262 244.889 212.068C244.473 211.873 244.018 211.779 243.559 211.794C243.382 211.791 243.206 211.804 243.032 211.831L236.884 212.871C236.431 212.551 235.94 212.247 235.398 211.957L235.072 211.779L236.096 209.743C236.277 209.388 236.379 208.998 236.393 208.6V208.325V208.228C236.331 207.739 236.121 207.281 235.79 206.916C235.46 206.551 235.025 206.296 234.545 206.185L227.743 204.559C227.534 204.508 227.319 204.483 227.104 204.484C226.237 204.524 225.418 204.897 224.817 205.524L222.122 208.354C221.431 208.354 220.741 208.302 220.058 208.302C219.375 208.302 218.736 208.302 218.12 208.354L215.268 205.383C214.984 205.103 214.646 204.883 214.275 204.736C213.904 204.589 213.507 204.519 213.108 204.529C212.845 204.53 212.583 204.562 212.328 204.626L205.764 206.193C205.209 206.303 204.707 206.596 204.34 207.026C203.972 207.456 203.76 207.997 203.737 208.562C203.736 208.928 203.82 209.289 203.982 209.617L205.088 211.846L204.732 212.046C204.227 212.336 203.744 212.633 203.336 212.923L197.084 211.868C196.938 211.857 196.792 211.857 196.646 211.868C196.155 211.879 195.674 212.003 195.239 212.23C194.804 212.456 194.427 212.78 194.136 213.175L191.671 216.614C191.342 217.06 191.162 217.598 191.158 218.152V218.471L191.203 218.598C191.282 219.016 191.473 219.404 191.755 219.722C192.038 220.04 192.401 220.275 192.807 220.403L197.641 221.866C197.641 222.019 197.641 222.175 197.641 222.334L192.896 223.82C192.285 224.004 191.759 224.399 191.411 224.934L191.359 225.015C191.272 225.163 191.202 225.32 191.151 225.483L191.077 225.639L190.973 227.236L191.545 227.578L194.203 231.292C194.482 231.654 194.843 231.944 195.256 232.139C195.669 232.334 196.122 232.428 196.579 232.414C196.758 232.414 196.937 232.399 197.114 232.369L203.284 231.314C203.862 231.708 204.459 232.073 205.073 232.406L204.027 234.494C203.846 234.836 203.747 235.215 203.738 235.602C203.729 235.988 203.81 236.372 203.975 236.722C204.126 237.051 204.352 237.341 204.634 237.569C204.916 237.797 205.247 237.957 205.601 238.037L212.439 239.678C212.637 239.723 212.838 239.746 213.041 239.745C213.487 239.73 213.925 239.626 214.33 239.44C214.736 239.254 215.1 238.989 215.402 238.661ZM211.088 220.039C212.464 218.801 214.15 217.959 215.966 217.602C217.319 217.284 218.705 217.124 220.095 217.127C224.283 217.127 228.092 218.516 229.57 220.581C229.835 220.896 230.011 221.277 230.079 221.683C230.147 222.089 230.105 222.507 229.956 222.891L229.889 223.054L229.718 223.352C229.354 223.901 228.891 224.377 228.352 224.755C228.095 224.945 227.827 225.118 227.55 225.275C226.509 225.853 225.392 226.278 224.231 226.538C222.878 226.859 221.492 227.019 220.102 227.014C217.509 227.064 214.944 226.467 212.64 225.275C212.351 225.113 212.073 224.932 211.808 224.733C211.354 224.406 210.953 224.01 210.62 223.56C210.309 223.194 210.122 222.739 210.084 222.26C210.047 221.781 210.162 221.303 210.412 220.893L210.531 220.685L210.717 220.432L210.88 220.232L211.088 220.039Z" fill="#E0E0E0"/>
<path d="M306.406 238.26C305.53 228.448 305.025 219.363 308.953 205.012C312.25 192.972 322.088 180.329 329.395 180.27C336.189 180.225 338.305 188.44 332.796 196.277C327.286 204.114 315.094 219.304 315.049 229.547L313.334 241.328L306.406 238.26Z" fill="#5564C1"/>
<path opacity="0.2" d="M306.406 238.26C305.53 228.448 305.025 219.363 308.953 205.012C312.25 192.972 322.088 180.329 329.395 180.27C336.189 180.225 338.305 188.44 332.796 196.277C327.286 204.114 315.094 219.304 315.049 229.547L313.334 241.328L306.406 238.26Z" fill="#354081"/>
<path d="M309.22 235.549C309.31 235.518 309.387 235.459 309.442 235.382C309.496 235.305 309.525 235.213 309.525 235.118C308.849 212.21 320.165 192.154 330.367 185.469C330.416 185.438 330.457 185.398 330.49 185.351C330.522 185.304 330.545 185.251 330.557 185.195C330.568 185.139 330.569 185.081 330.558 185.025C330.547 184.969 330.525 184.915 330.494 184.868C330.464 184.819 330.424 184.776 330.377 184.743C330.33 184.71 330.276 184.687 330.22 184.675C330.164 184.663 330.106 184.663 330.049 184.674C329.993 184.686 329.94 184.709 329.892 184.741C319.497 191.516 307.965 211.868 308.648 235.125C308.65 235.183 308.664 235.239 308.687 235.292C308.711 235.344 308.745 235.392 308.787 235.431C308.829 235.47 308.879 235.501 308.933 235.521C308.986 235.541 309.044 235.551 309.101 235.549H309.22Z" fill="white"/>
<path d="M315.941 242.554C316.089 239.077 318.784 232.749 324.16 226.769C330.101 220.158 338.573 215.746 339.754 211.423C341.149 206.223 336.479 203.876 329.21 206.015C320.477 208.585 311.389 219.497 311.329 240.385L315.941 242.554Z" fill="#5564C1"/>
<path d="M313.706 239.47C313.786 239.446 313.858 239.399 313.911 239.334C313.964 239.269 313.996 239.19 314.003 239.106C316.022 220.707 327.532 211.667 333.309 209.461C333.415 209.418 333.501 209.335 333.549 209.23C333.596 209.124 333.6 209.005 333.561 208.897C333.541 208.842 333.511 208.793 333.472 208.75C333.432 208.708 333.385 208.674 333.332 208.651C333.28 208.627 333.223 208.615 333.165 208.613C333.107 208.612 333.05 208.623 332.997 208.644C326.581 211.088 315.176 220.232 313.112 239.01C313.099 239.125 313.133 239.24 313.205 239.331C313.277 239.421 313.383 239.479 313.498 239.492C313.568 239.505 313.64 239.497 313.706 239.47Z" fill="white"/>
<path d="M83.3433 252.278C84.2195 242.466 84.7244 233.381 80.7964 219.03C77.4996 206.99 67.6536 194.347 60.3546 194.295C53.5604 194.251 51.4442 202.466 56.9538 210.302C62.4633 218.139 74.6483 233.329 74.7003 243.572L76.4081 255.353L83.3433 252.278Z" fill="#5564C1"/>
<path opacity="0.2" d="M83.3433 252.278C84.2195 242.466 84.7244 233.381 80.7964 219.03C77.4996 206.99 67.6536 194.347 60.3546 194.295C53.5604 194.251 51.4442 202.466 56.9538 210.302C62.4633 218.139 74.6483 233.329 74.7003 243.572L76.4081 255.353L83.3433 252.278Z" fill="#354081"/>
<path d="M80.9966 250.48C80.9053 250.452 80.8258 250.395 80.7707 250.317C80.7156 250.239 80.688 250.145 80.6922 250.049C81.3679 227.104 69.5542 206.165 59.3815 199.502C59.2831 199.439 59.2137 199.339 59.1886 199.225C59.1635 199.111 59.1848 198.991 59.2479 198.893C59.3109 198.794 59.4104 198.725 59.5246 198.7C59.6388 198.675 59.7583 198.696 59.8567 198.759C70.2299 205.526 82.2515 226.814 81.5609 250.094C81.56 250.151 81.5476 250.207 81.5246 250.26C81.5016 250.312 81.4684 250.36 81.4269 250.399C81.3855 250.438 81.3366 250.469 81.2831 250.489C81.2296 250.51 81.1726 250.519 81.1154 250.517L80.9966 250.48Z" fill="white"/>
<path d="M73.8088 256.579C73.6603 253.096 70.9649 246.767 65.589 240.787C59.6487 234.177 51.1765 229.764 49.9958 225.449C48.5925 220.249 53.2704 217.894 60.5324 220.034C69.2719 222.611 78.3531 233.523 78.4199 254.41L73.8088 256.579Z" fill="#5564C1"/>
<path d="M76.0441 253.496C75.9631 253.47 75.8915 253.422 75.8385 253.355C75.7856 253.289 75.7537 253.209 75.7471 253.124C73.7274 234.725 62.2181 225.693 56.4412 223.479C56.388 223.459 56.3391 223.429 56.2976 223.39C56.256 223.352 56.2225 223.305 56.1991 223.253C56.1756 223.201 56.1626 223.145 56.1608 223.089C56.1591 223.032 56.1686 222.975 56.1888 222.922C56.2085 222.868 56.239 222.818 56.2783 222.776C56.3175 222.734 56.3649 222.7 56.4175 222.676C56.4702 222.653 56.527 222.64 56.5846 222.639C56.6423 222.638 56.6996 222.648 56.7531 222.669C63.1686 225.106 74.5739 234.25 76.6381 253.035C76.6443 253.092 76.6391 253.149 76.623 253.204C76.6069 253.258 76.5801 253.309 76.5442 253.353C76.5083 253.397 76.464 253.434 76.4138 253.461C76.3637 253.488 76.3087 253.505 76.252 253.51C76.1825 253.521 76.1114 253.516 76.0441 253.496Z" fill="white"/>
<path d="M315.844 242.783V251.251C315.842 251.455 315.765 251.65 315.628 251.801C315.491 251.951 315.304 252.046 315.102 252.068L309.31 252.432V260.603C309.304 260.691 309.275 260.776 309.225 260.849C309.176 260.922 309.108 260.981 309.028 261.019L302.924 264.54C302.694 264.655 302.439 264.709 302.182 264.696C301.985 264.699 301.791 264.661 301.61 264.584L295.358 261.717C294.905 261.542 294.409 261.513 293.94 261.635C292.368 262.124 290.766 262.506 289.143 262.779C288.926 262.824 288.726 262.929 288.567 263.083C288.408 263.237 288.296 263.433 288.244 263.648L287.502 267.726C287.459 267.937 287.34 268.125 287.168 268.254C287.005 268.384 286.804 268.457 286.596 268.462H277.626C277.439 268.453 277.26 268.385 277.114 268.269C277.072 268.24 277.034 268.205 277.002 268.165C276.955 268.133 276.913 268.096 276.876 268.053V267.957C276.824 267.875 276.743 267.808 276.728 267.719L275.985 263.641C275.933 263.426 275.821 263.23 275.662 263.076C275.503 262.922 275.303 262.817 275.087 262.772C273.464 262.499 271.861 262.116 270.29 261.628C269.82 261.506 269.324 261.535 268.872 261.71L262.686 264.577C262.566 264.615 262.441 264.638 262.315 264.644C262.243 264.648 262.172 264.648 262.1 264.644H261.936C261.733 264.635 261.533 264.585 261.35 264.495L255.254 260.974C255.165 260.925 255.091 260.853 255.038 260.766C255.01 260.719 254.995 260.665 254.994 260.61V257.142V252.454L249.313 252.091H249.202C249.143 252.091 249.113 252.039 249.061 252.024C248.915 251.999 248.779 251.935 248.667 251.838C248.613 251.748 248.573 251.65 248.549 251.548C248.549 251.467 248.445 251.392 248.445 251.296V246.765V243.585V239.054C248.444 238.851 248.52 238.654 248.658 238.504C248.795 238.354 248.984 238.262 249.187 238.245L254.979 237.873V229.703C254.98 229.61 255.007 229.52 255.057 229.443C255.107 229.365 255.178 229.303 255.261 229.264L261.357 225.743C261.566 225.639 261.794 225.579 262.027 225.569C262.26 225.558 262.492 225.598 262.709 225.684L268.82 228.551C269.27 228.726 269.763 228.755 270.231 228.633C271.805 228.145 273.41 227.763 275.035 227.489C275.251 227.445 275.45 227.339 275.608 227.185C275.766 227.031 275.876 226.835 275.926 226.62L276.668 222.549C276.714 222.343 276.828 222.159 276.99 222.024C277.153 221.89 277.356 221.813 277.567 221.807H286.574C286.786 221.813 286.989 221.889 287.153 222.023C287.317 222.158 287.432 222.343 287.48 222.549L288.222 226.62C288.274 226.834 288.385 227.029 288.543 227.182C288.7 227.336 288.898 227.442 289.113 227.489C290.738 227.762 292.343 228.145 293.917 228.633C294.394 228.761 294.899 228.733 295.358 228.551L301.543 225.684C301.76 225.598 301.992 225.558 302.225 225.569C302.458 225.579 302.686 225.639 302.894 225.743L308.998 229.264C309.082 229.305 309.153 229.368 309.203 229.447C309.253 229.525 309.28 229.617 309.28 229.71V237.836L315.065 238.208C315.267 238.226 315.455 238.319 315.592 238.469C315.729 238.619 315.806 238.814 315.807 239.017V242.664C315.822 242.703 315.834 242.743 315.844 242.783ZM292.388 245.636C286.7 242.352 277.47 242.352 271.775 245.636C271.344 245.888 270.951 246.141 270.58 246.378C270.963 246.661 271.362 246.922 271.775 247.158C277.47 250.449 286.7 250.449 292.388 247.158C292.801 246.923 293.201 246.662 293.583 246.378C293.227 246.17 292.833 245.918 292.388 245.636Z" fill="#354081"/>
<path d="M315.844 242.79V251.258C315.841 251.46 315.764 251.653 315.627 251.802C315.49 251.95 315.303 252.042 315.102 252.06L309.317 252.432V260.602C309.312 260.69 309.282 260.775 309.233 260.849C309.183 260.922 309.115 260.98 309.035 261.018L302.932 264.539C302.702 264.657 302.447 264.713 302.189 264.703C301.993 264.709 301.797 264.671 301.617 264.591L295.358 261.724C295.172 261.643 294.973 261.595 294.771 261.583C294.493 261.548 294.21 261.569 293.94 261.642C292.368 262.131 290.766 262.513 289.143 262.786C289.007 262.81 288.877 262.863 288.764 262.942V262.987C288.51 263.132 288.323 263.373 288.244 263.655L287.502 267.733C287.456 267.943 287.338 268.129 287.168 268.261C287.005 268.391 286.804 268.464 286.596 268.469H277.626H277.463C277.225 268.419 277.015 268.281 276.876 268.082V267.986C276.824 267.904 276.743 267.837 276.728 267.748L275.985 263.67C275.935 263.44 275.809 263.234 275.629 263.083C275.478 262.947 275.293 262.854 275.094 262.816C273.471 262.542 271.869 262.16 270.297 261.672C269.987 261.589 269.663 261.574 269.347 261.627C269.187 261.643 269.029 261.68 268.879 261.739L262.694 264.599C262.574 264.637 262.449 264.66 262.323 264.665C261.992 264.712 261.654 264.655 261.357 264.502L255.261 260.981C255.214 260.953 255.169 260.92 255.127 260.885C255.093 260.847 255.06 260.807 255.031 260.766C254.998 260.709 254.98 260.645 254.979 260.58V252.409L253.917 252.342L249.291 252.045H249.187C248.988 252.027 248.801 251.936 248.665 251.789C248.528 251.643 248.449 251.451 248.445 251.25V243.525C248.444 243.729 248.52 243.925 248.658 244.075C248.795 244.226 248.984 244.318 249.187 244.335L257.318 244.855C257.546 244.885 257.764 244.968 257.955 245.097C258.146 245.226 258.304 245.397 258.417 245.598C258.894 246.463 259.473 247.268 260.14 247.997C260.208 248.063 260.26 248.144 260.293 248.233C260.326 248.322 260.339 248.418 260.33 248.512C260.322 248.607 260.292 248.698 260.244 248.78C260.195 248.862 260.129 248.932 260.05 248.985L255.217 252.461C255.14 252.503 255.076 252.565 255.033 252.641C254.991 252.717 254.971 252.804 254.975 252.891C254.98 252.979 255.009 253.063 255.06 253.134C255.11 253.205 255.18 253.26 255.261 253.293L261.283 256.777C261.491 256.883 261.719 256.944 261.952 256.954C262.185 256.964 262.418 256.924 262.634 256.836L268.82 253.969C269.272 253.793 269.768 253.765 270.238 253.887C271.809 254.377 273.412 254.759 275.035 255.031C275.251 255.076 275.449 255.182 275.607 255.336C275.765 255.49 275.875 255.686 275.926 255.9L276.668 259.971C276.714 260.177 276.828 260.362 276.99 260.496C277.153 260.631 277.356 260.707 277.567 260.714H286.574C286.786 260.708 286.989 260.631 287.153 260.497C287.317 260.363 287.432 260.178 287.48 259.971L288.222 255.9C288.275 255.687 288.386 255.492 288.544 255.339C288.701 255.185 288.898 255.079 289.113 255.031C290.738 254.759 292.343 254.377 293.917 253.887C294.387 253.765 294.883 253.794 295.336 253.969L301.521 256.836C301.736 256.924 301.967 256.965 302.199 256.954C302.431 256.944 302.658 256.884 302.865 256.777L308.968 253.256C309.05 253.224 309.12 253.17 309.171 253.1C309.222 253.029 309.252 252.945 309.257 252.858C309.261 252.771 309.241 252.685 309.198 252.609C309.154 252.533 309.09 252.472 309.013 252.432L304.172 248.948C304.093 248.894 304.027 248.823 303.978 248.741C303.93 248.659 303.9 248.566 303.892 248.471C303.883 248.376 303.896 248.28 303.929 248.19C303.962 248.101 304.014 248.019 304.083 247.952C304.751 247.226 305.331 246.423 305.813 245.561C305.925 245.361 306.082 245.19 306.271 245.061C306.461 244.932 306.677 244.849 306.904 244.818L315.035 244.305C315.237 244.284 315.424 244.188 315.561 244.038C315.698 243.887 315.775 243.692 315.777 243.488V242.582C315.805 242.649 315.828 242.719 315.844 242.79Z" fill="#354081"/>
<path d="M309.28 229.687V237.813L306.934 237.664C306.707 237.633 306.49 237.55 306.301 237.421C306.112 237.292 305.955 237.121 305.842 236.922C305.363 236.058 304.782 235.255 304.112 234.53C304.044 234.463 303.992 234.382 303.959 234.292C303.926 234.202 303.913 234.106 303.921 234.011C303.93 233.916 303.959 233.824 304.008 233.741C304.056 233.659 304.122 233.588 304.201 233.534L309.043 230.058C309.107 230.014 309.162 229.957 309.203 229.891C309.244 229.824 309.27 229.749 309.28 229.672V229.687Z" fill="#354081"/>
<path d="M260.065 234.546C259.397 235.271 258.819 236.074 258.343 236.938C258.23 237.138 258.071 237.31 257.881 237.439C257.69 237.567 257.472 237.65 257.244 237.68L254.905 237.829V229.658C254.914 229.739 254.941 229.817 254.983 229.886C255.025 229.955 255.082 230.014 255.15 230.059L259.984 233.536C260.065 233.59 260.133 233.662 260.182 233.746C260.231 233.83 260.261 233.924 260.269 234.021C260.277 234.118 260.263 234.216 260.227 234.307C260.192 234.398 260.137 234.479 260.065 234.546Z" fill="#354081"/>
<path d="M262.634 225.662L268.82 228.551C269.27 228.726 269.763 228.755 270.231 228.633C271.805 228.145 273.41 227.763 275.035 227.489C275.251 227.445 275.45 227.339 275.608 227.185C275.766 227.031 275.876 226.835 275.926 226.62L276.668 222.549C276.714 222.343 276.828 222.159 276.99 222.024C277.153 221.89 277.356 221.813 277.567 221.807H286.574C286.786 221.813 286.989 221.889 287.153 222.023C287.317 222.158 287.432 222.343 287.48 222.549L288.222 226.62C288.274 226.834 288.385 227.029 288.543 227.182C288.701 227.336 288.898 227.442 289.113 227.489C290.738 227.762 292.343 228.145 293.917 228.633C294.393 228.766 294.9 228.738 295.358 228.551L301.543 225.684C301.76 225.598 301.992 225.558 302.225 225.569C302.458 225.579 302.686 225.639 302.895 225.743L308.998 229.264C309.077 229.302 309.143 229.361 309.19 229.434C309.236 229.508 309.261 229.593 309.261 229.68C309.261 229.767 309.236 229.853 309.19 229.926C309.143 230 309.077 230.059 308.998 230.096L304.164 233.573C304.085 233.626 304.019 233.697 303.971 233.779C303.922 233.862 303.893 233.954 303.884 234.049C303.876 234.144 303.888 234.24 303.921 234.33C303.954 234.42 304.007 234.501 304.075 234.568C304.746 235.293 305.327 236.096 305.805 236.96C305.918 237.16 306.077 237.332 306.267 237.461C306.458 237.59 306.676 237.672 306.904 237.703L315.027 238.222C315.23 238.241 315.418 238.334 315.555 238.484C315.692 238.633 315.769 238.829 315.77 239.032V243.571C315.766 243.773 315.688 243.967 315.551 244.116C315.415 244.265 315.228 244.359 315.027 244.38L306.941 244.893C306.713 244.923 306.495 245.006 306.304 245.135C306.114 245.264 305.955 245.435 305.842 245.636C305.364 246.499 304.783 247.302 304.112 248.027C304.044 248.094 303.992 248.176 303.959 248.265C303.926 248.355 303.913 248.451 303.921 248.546C303.93 248.641 303.959 248.733 304.008 248.816C304.056 248.898 304.122 248.969 304.201 249.023L309.035 252.506C309.114 252.543 309.181 252.601 309.228 252.674C309.275 252.747 309.3 252.832 309.3 252.919C309.3 253.006 309.275 253.091 309.228 253.164C309.181 253.237 309.114 253.295 309.035 253.331L302.895 256.778C302.686 256.883 302.458 256.942 302.225 256.952C301.992 256.963 301.76 256.923 301.543 256.837L295.358 253.992C294.905 253.817 294.409 253.788 293.94 253.91C292.366 254.4 290.761 254.782 289.135 255.054C288.92 255.101 288.723 255.207 288.565 255.361C288.408 255.515 288.296 255.709 288.244 255.923L287.502 260.001C287.454 260.208 287.34 260.393 287.176 260.527C287.012 260.662 286.808 260.738 286.596 260.744H277.626C277.415 260.738 277.212 260.661 277.05 260.527C276.887 260.392 276.774 260.207 276.728 260.001L275.985 255.923C275.936 255.708 275.825 255.512 275.667 255.358C275.509 255.204 275.31 255.098 275.094 255.054C273.469 254.78 271.864 254.398 270.29 253.91C269.823 253.788 269.329 253.817 268.879 253.992L262.694 256.859C262.477 256.946 262.245 256.985 262.012 256.975C261.779 256.964 261.551 256.905 261.342 256.8L255.246 253.279C255.165 253.247 255.095 253.193 255.044 253.123C254.993 253.052 254.963 252.968 254.958 252.881C254.953 252.794 254.974 252.708 255.017 252.632C255.06 252.556 255.124 252.495 255.202 252.454L260.036 248.971C260.114 248.918 260.181 248.848 260.229 248.766C260.277 248.684 260.307 248.593 260.315 248.498C260.324 248.403 260.311 248.308 260.278 248.219C260.245 248.13 260.193 248.049 260.125 247.983C259.458 247.254 258.88 246.449 258.402 245.584C258.289 245.383 258.131 245.212 257.94 245.083C257.749 244.954 257.531 244.871 257.303 244.841L249.172 244.321C248.97 244.304 248.78 244.211 248.643 244.061C248.505 243.911 248.429 243.715 248.43 243.511V238.98C248.429 238.776 248.505 238.58 248.643 238.43C248.78 238.28 248.97 238.187 249.172 238.17L257.303 237.651C257.531 237.62 257.749 237.538 257.94 237.409C258.131 237.28 258.289 237.108 258.402 236.908C258.878 236.044 259.456 235.241 260.125 234.516C260.193 234.449 260.245 234.368 260.278 234.278C260.311 234.188 260.324 234.092 260.316 233.997C260.307 233.902 260.278 233.81 260.229 233.727C260.181 233.645 260.115 233.574 260.036 233.521L255.202 230.044C255.125 230.003 255.061 229.94 255.019 229.864C254.976 229.788 254.956 229.701 254.96 229.614C254.965 229.527 254.994 229.443 255.045 229.372C255.096 229.301 255.165 229.245 255.246 229.212L261.342 225.691C261.545 225.6 261.763 225.55 261.985 225.545C262.207 225.54 262.428 225.579 262.634 225.662ZM271.782 235.318C266.095 238.601 266.095 243.935 271.782 247.203C277.47 250.471 286.707 250.493 292.395 247.203C298.083 243.912 298.09 238.586 292.395 235.318C286.7 232.05 277.478 232.02 271.782 235.311V235.318Z" fill="#5564C1"/>
<path d="M254.897 252.855C254.902 252.772 254.927 252.692 254.97 252.621C255.013 252.55 255.072 252.49 255.142 252.446L257.578 250.701V244.937C257.471 244.892 257.358 244.865 257.244 244.855L249.113 244.335C248.91 244.318 248.721 244.226 248.583 244.076C248.446 243.925 248.37 243.729 248.37 243.525V251.265C248.375 251.466 248.453 251.658 248.59 251.804C248.727 251.951 248.913 252.042 249.113 252.06H249.217L253.843 252.357L254.905 252.424C254.905 252.424 254.897 253.011 254.897 252.855Z" fill="#354081"/>
<path d="M269.287 253.873C269.126 253.89 268.969 253.93 268.819 253.992L262.634 256.859C262.383 256.963 262.109 256.999 261.84 256.963V264.688C261.978 264.703 262.117 264.703 262.255 264.688C262.381 264.682 262.506 264.66 262.627 264.621L268.812 261.762C268.962 261.703 269.119 261.665 269.28 261.65L269.287 253.873Z" fill="#354081"/>
<path d="M276.794 260.291C276.739 260.2 276.701 260.099 276.683 259.994L275.941 255.923C275.923 255.812 275.883 255.706 275.822 255.611V263.344C275.883 263.435 275.924 263.539 275.941 263.648L276.683 267.726C276.707 267.798 276.745 267.863 276.794 267.919V260.291Z" fill="#354081"/>
<path opacity="0.15" d="M288.371 255.611C288.316 255.709 288.276 255.814 288.252 255.923L287.509 259.994C287.49 260.1 287.449 260.201 287.39 260.291V268.016C287.448 267.928 287.489 267.83 287.509 267.726L288.252 263.648C288.276 263.549 288.316 263.453 288.371 263.366V255.611Z" fill="#354081"/>
<path opacity="0.15" d="M302.338 256.963C302.071 257.001 301.799 256.965 301.551 256.859L295.358 253.992C295.209 253.931 295.051 253.891 294.89 253.873V261.598C295.052 261.614 295.21 261.657 295.358 261.724L301.543 264.584C301.723 264.664 301.919 264.703 302.115 264.696H302.338V256.963Z" fill="#354081"/>
<path opacity="0.15" d="M315.064 244.342L306.934 244.855C306.819 244.865 306.706 244.893 306.599 244.937V250.701L309.042 252.454C309.111 252.498 309.169 252.558 309.21 252.629C309.252 252.7 309.275 252.78 309.28 252.862V252.431L315.064 252.06C315.265 252.042 315.452 251.95 315.589 251.802C315.727 251.653 315.804 251.46 315.807 251.258V242.79C315.81 242.733 315.81 242.676 315.807 242.619V243.525C315.804 243.729 315.727 243.924 315.591 244.075C315.454 244.225 315.267 244.321 315.064 244.342Z" fill="#354081"/>
<path d="M193.03 215.923C193.029 215.868 193.045 215.814 193.074 215.767C193.074 212.982 193.074 208.153 193.074 207.849C193.079 207.711 193.128 207.577 193.215 207.47L195.688 204.024C195.804 203.865 195.958 203.737 196.135 203.653C196.313 203.569 196.509 203.53 196.705 203.541L203.165 204.625C203.603 204.647 204.036 204.524 204.398 204.276C204.806 203.994 205.237 203.726 205.682 203.466V198.326C205.682 198.118 205.876 197.925 206.195 197.843L212.751 196.276C212.932 196.227 213.121 196.219 213.305 196.254C213.489 196.289 213.663 196.365 213.813 196.477L216.947 199.782C217.238 200.014 217.607 200.128 217.979 200.102C219.401 200.012 220.827 200.012 222.248 200.102C222.685 200.089 223.1 199.908 223.407 199.596L226.213 196.625C226.352 196.477 226.524 196.363 226.715 196.293C226.906 196.223 227.111 196.2 227.312 196.224L234.129 197.851C234.231 197.873 234.322 197.931 234.386 198.014C234.449 198.097 234.482 198.199 234.478 198.304C234.478 198.586 234.478 201.03 234.478 203.4C235.012 203.704 235.517 204.024 235.963 204.365C236.304 204.556 236.699 204.624 237.084 204.558L243.381 203.489C243.558 203.454 243.74 203.462 243.913 203.513C244.087 203.563 244.245 203.654 244.376 203.778L247.093 207.567C247.13 207.616 247.151 207.676 247.153 207.738C247.153 208.309 247.153 217.513 247.153 217.572C247.149 217.63 247.131 217.686 247.101 217.736C247.101 220.566 247.101 222.593 247.101 222.712C247.094 222.857 247.045 222.996 246.96 223.113L244.487 226.56C244.371 226.719 244.217 226.845 244.039 226.928C243.862 227.011 243.666 227.048 243.47 227.035L237.01 225.951C236.572 225.933 236.14 226.055 235.777 226.3C235.369 226.59 234.938 226.857 234.493 227.117V232.265C234.493 232.473 234.307 232.681 233.98 232.762L227.424 234.33C227.243 234.379 227.054 234.387 226.87 234.352C226.686 234.317 226.512 234.241 226.362 234.129L223.228 230.824C222.937 230.591 222.568 230.477 222.196 230.504C220.772 230.593 219.344 230.593 217.919 230.504C217.487 230.518 217.075 230.696 216.768 231.002L213.962 233.973C213.823 234.122 213.651 234.237 213.461 234.308C213.27 234.379 213.065 234.404 212.863 234.382L206.046 232.748C205.956 232.731 205.874 232.686 205.811 232.619C205.748 232.552 205.708 232.467 205.697 232.376C205.697 232.265 205.697 227.177 205.697 227.177C205.163 226.872 204.658 226.553 204.175 226.211C203.833 226.024 203.439 225.956 203.054 226.018L196.794 227.073C196.618 227.11 196.434 227.103 196.261 227.052C196.087 227.002 195.929 226.909 195.799 226.783L193.082 222.995C193.047 222.944 193.026 222.885 193.022 222.824C193.022 222.638 193.022 216.257 193.022 215.908L193.03 215.923ZM229.533 216.124C229.236 215.908 228.909 215.708 228.56 215.5C223.874 212.796 216.286 212.796 211.6 215.5C211.259 215.7 210.932 215.908 210.643 216.109C210.971 216.355 211.316 216.578 211.675 216.777C215.001 218.671 220.095 219.34 224.684 218.263C226.03 217.954 227.325 217.454 228.53 216.777C228.88 216.57 229.215 216.339 229.533 216.087V216.124Z" fill="#354081"/>
<path d="M232.985 202.613C233.504 202.85 234.009 203.11 234.47 203.355V198.26C234.462 198.351 234.434 198.44 234.388 198.52L232.754 201.758C232.709 201.828 232.679 201.907 232.666 201.99C232.653 202.072 232.657 202.156 232.679 202.237C232.701 202.317 232.739 202.393 232.792 202.457C232.844 202.522 232.91 202.575 232.985 202.613Z" fill="#354081"/>
<path opacity="0.15" d="M240.499 210.723C240.611 211.432 240.611 212.154 240.499 212.862C240.474 213.018 240.504 213.177 240.584 213.313C240.664 213.448 240.789 213.552 240.937 213.605L246.833 215.477C246.914 215.499 246.985 215.547 247.035 215.615C247.085 215.682 247.111 215.765 247.108 215.848V217.772C247.136 217.727 247.154 217.677 247.16 217.624C247.16 214.274 247.16 208.71 247.16 208.183V207.752C247.16 207.938 246.974 208.109 246.684 208.198L241.115 209.965C240.939 209.996 240.779 210.089 240.665 210.229C240.552 210.368 240.493 210.544 240.499 210.723Z" fill="#354081"/>
<path opacity="0.15" d="M236.802 219.051V225.981C236.881 225.97 236.961 225.97 237.039 225.981L243.499 227.066C243.607 227.09 243.719 227.09 243.826 227.066V220.15C243.713 220.172 243.597 220.172 243.485 220.15L237.025 219.058L236.802 219.051Z" fill="#354081"/>
<path d="M234.522 227.147C234.968 226.887 235.398 226.62 235.799 226.338C236.1 226.14 236.444 226.017 236.802 225.981V219.051C236.441 219.088 236.094 219.213 235.792 219.415C234.96 219.977 234.086 220.473 233.178 220.9C232.792 221.086 232.577 221.42 232.703 221.643L234.47 225.216C234.493 225.262 234.506 225.313 234.507 225.365C234.515 225.58 234.522 227.147 234.522 227.147Z" fill="#354081"/>
<path opacity="0.15" d="M222.857 223.678V230.601C223.005 230.644 223.142 230.72 223.258 230.823L226.391 234.129C226.553 234.263 226.753 234.344 226.963 234.359V227.436C226.748 227.429 226.542 227.351 226.376 227.213L223.235 223.901C223.128 223.798 222.998 223.722 222.857 223.678Z" fill="#354081"/>
<path d="M217.541 223.64V230.563C217.672 230.518 217.81 230.496 217.949 230.496C219.374 230.582 220.802 230.582 222.226 230.496C222.441 230.488 222.655 230.521 222.857 230.593V223.67C222.65 223.598 222.431 223.565 222.211 223.574C220.79 223.663 219.364 223.663 217.942 223.574C217.805 223.572 217.67 223.595 217.541 223.64Z" fill="#354081"/>
<path opacity="0.15" d="M213.36 227.399V234.322C213.597 234.255 213.814 234.13 213.991 233.958L216.798 230.987C217.006 230.784 217.261 230.636 217.541 230.556V223.633C217.261 223.717 217.006 223.867 216.798 224.071L213.991 227.042C213.814 227.211 213.597 227.334 213.36 227.399Z" fill="#354081"/>
<path d="M205.719 225.445V227.154V229.872C205.719 231.105 205.719 232.301 205.719 232.353C205.73 232.444 205.77 232.529 205.833 232.596C205.896 232.663 205.978 232.708 206.068 232.725L212.885 234.359C213.041 234.383 213.202 234.37 213.353 234.322V227.399C213.2 227.454 213.036 227.467 212.877 227.436L206.053 225.802C205.967 225.786 205.887 225.743 205.827 225.679C205.767 225.615 205.729 225.533 205.719 225.445Z" fill="#354081"/>
<path opacity="0.15" d="M203.514 219.064V225.987C203.756 226 203.99 226.071 204.197 226.195C204.68 226.53 205.185 226.849 205.72 227.154C205.72 227.154 205.72 225.571 205.72 225.356C205.721 225.257 205.746 225.16 205.794 225.074L207.427 221.835C207.47 221.768 207.498 221.693 207.511 221.614C207.523 221.536 207.52 221.455 207.5 221.378C207.481 221.301 207.446 221.229 207.398 221.166C207.349 221.102 207.289 221.05 207.22 221.011C206.159 220.524 205.145 219.943 204.19 219.272C203.987 219.144 203.754 219.072 203.514 219.064Z" fill="#354081"/>
<path d="M193.037 215.924C193.037 216.266 193.037 222.654 193.037 222.839C193.044 222.9 193.064 222.959 193.097 223.01L195.814 226.798C195.936 226.937 196.101 227.032 196.282 227.066V220.15C196.097 220.116 195.927 220.022 195.8 219.883L193.089 216.087C193.07 216.065 193.056 216.039 193.047 216.011C193.038 215.983 193.035 215.953 193.037 215.924Z" fill="#354081"/>
<path d="M234.47 198.266C234.469 198.357 234.444 198.447 234.396 198.526L232.77 201.764C232.727 201.831 232.698 201.906 232.685 201.984C232.672 202.062 232.675 202.142 232.694 202.219C232.713 202.296 232.747 202.369 232.794 202.432C232.842 202.496 232.902 202.549 232.97 202.589C233.49 202.834 233.995 203.086 234.456 203.332C234.916 203.577 235.495 203.955 235.941 204.297C236.281 204.488 236.677 204.556 237.062 204.49L243.381 203.488C243.558 203.453 243.74 203.461 243.913 203.511C244.087 203.562 244.245 203.653 244.376 203.777L247.093 207.565C247.13 207.615 247.151 207.675 247.153 207.736C247.153 207.915 246.967 208.085 246.678 208.175L241.109 209.942C240.936 209.974 240.78 210.066 240.668 210.202C240.557 210.338 240.497 210.509 240.5 210.685C240.611 211.394 240.611 212.116 240.5 212.824C240.476 212.98 240.507 213.138 240.587 213.274C240.667 213.409 240.791 213.513 240.938 213.567L246.834 215.439C246.915 215.461 246.986 215.509 247.036 215.577C247.086 215.644 247.111 215.727 247.108 215.811C247.101 215.949 247.054 216.083 246.975 216.197L244.495 219.643C244.379 219.802 244.225 219.929 244.047 220.013C243.869 220.096 243.673 220.132 243.477 220.119L237.017 219.027C236.579 219.008 236.146 219.133 235.785 219.383C234.95 219.945 234.074 220.442 233.164 220.869C232.785 221.055 232.57 221.389 232.696 221.612L234.47 225.214C234.597 225.467 234.381 225.742 233.988 225.838L227.431 227.406C227.252 227.457 227.064 227.466 226.881 227.432C226.699 227.399 226.526 227.324 226.377 227.212L223.236 223.907C222.945 223.672 222.577 223.555 222.204 223.58C220.782 223.666 219.356 223.666 217.934 223.58C217.498 223.589 217.083 223.768 216.776 224.078L213.969 227.049C213.83 227.195 213.659 227.307 213.47 227.377C213.281 227.447 213.078 227.472 212.878 227.45L206.054 225.823C205.979 225.804 205.909 225.766 205.851 225.714C205.794 225.662 205.75 225.597 205.723 225.524C205.696 225.451 205.687 225.372 205.697 225.295C205.706 225.218 205.735 225.145 205.779 225.081L207.413 221.842C207.454 221.775 207.481 221.699 207.493 221.621C207.505 221.543 207.502 221.463 207.482 221.386C207.463 221.309 207.428 221.237 207.381 221.174C207.333 221.11 207.273 221.057 207.205 221.018C206.147 220.531 205.135 219.95 204.183 219.279C203.842 219.089 203.446 219.021 203.061 219.086L196.794 220.134C196.618 220.172 196.434 220.166 196.26 220.115C196.086 220.065 195.928 219.971 195.799 219.844L193.089 216.063C193.049 216.015 193.028 215.955 193.03 215.892C193.029 215.837 193.045 215.783 193.074 215.736C193.177 215.588 193.33 215.483 193.505 215.439L199.074 213.671C199.467 213.545 199.735 213.226 199.683 212.928C199.571 212.222 199.571 211.503 199.683 210.797C199.696 210.643 199.661 210.488 199.583 210.355C199.504 210.222 199.386 210.117 199.245 210.054L193.342 208.182C193.263 208.161 193.194 208.115 193.144 208.05C193.094 207.986 193.067 207.907 193.067 207.825C193.071 207.687 193.121 207.554 193.208 207.447L195.681 204C195.797 203.841 195.95 203.714 196.128 203.63C196.306 203.545 196.502 203.507 196.698 203.517L203.158 204.602C203.596 204.623 204.029 204.501 204.39 204.253C204.799 203.97 205.23 203.703 205.675 203.443C206.121 203.183 206.544 202.968 207.012 202.745C207.479 202.522 207.613 202.217 207.479 202.002L205.705 198.481C205.691 198.435 205.691 198.386 205.705 198.34C205.705 198.132 205.898 197.939 206.217 197.857L212.774 196.29C212.954 196.24 213.144 196.233 213.328 196.267C213.512 196.302 213.685 196.378 213.835 196.49L216.969 199.796C217.261 200.028 217.629 200.142 218.001 200.115C219.423 200.026 220.849 200.026 222.271 200.115C222.707 200.103 223.122 199.922 223.429 199.61L226.236 196.639C226.374 196.49 226.546 196.377 226.737 196.307C226.928 196.237 227.133 196.213 227.335 196.238L234.151 197.865C234.239 197.89 234.317 197.943 234.374 198.015C234.431 198.086 234.465 198.174 234.47 198.266ZM209.67 208.39L209.507 208.561L209.388 208.687L209.143 208.984C209.054 209.096 208.972 209.222 208.89 209.341C208.809 209.46 208.794 209.489 208.749 209.564L208.682 209.675C208.249 210.413 208.048 211.264 208.107 212.117C208.165 212.971 208.479 213.787 209.009 214.459C209.463 215.078 210.012 215.622 210.635 216.071C210.962 216.319 211.307 216.542 211.667 216.739C214.994 218.633 220.088 219.302 224.676 218.225C226.023 217.916 227.318 217.415 228.523 216.739C228.871 216.546 229.206 216.33 229.525 216.093C230.372 215.498 231.073 214.718 231.575 213.812C231.602 213.769 231.627 213.725 231.649 213.679C231.649 213.627 231.693 213.582 231.708 213.538C231.723 213.493 231.753 213.441 231.775 213.382C232.047 212.691 232.133 211.942 232.025 211.208C231.917 210.475 231.618 209.782 231.159 209.2C228.627 205.664 221.61 204 215.491 205.486C213.325 205.906 211.315 206.91 209.677 208.39H209.67Z" fill="#5564C1"/>
<path d="M136.277 239.118C136.344 233.041 138.594 194.446 139.396 185.569C140.755 170.654 140.606 130.357 137.606 117.521L97.5096 120.701C94.6434 127.921 92.5495 136.819 93.0544 150.762C93.4257 161.399 93.2549 190.256 93.2549 190.256C91.6308 194.775 90.2844 199.389 89.223 204.072C87.4261 211.872 85.6143 235.5 84.8198 243.255V244.295C84.4445 244.761 84.1894 245.312 84.0772 245.899C84.0772 246.516 84.1589 247.14 84.1366 247.756C84.0043 249.208 84.3767 250.662 85.191 251.871C85.7604 252.782 86.5493 253.536 87.4854 254.063C87.9535 254.323 88.4717 254.482 89.0056 254.526C89.5395 254.571 90.0768 254.502 90.5818 254.323C93.4331 253.201 93.0173 248.64 93.9677 246.263L94.4133 245.112C94.4133 245.112 106.814 207.437 109.821 198.115C112.36 190.264 115.761 164.734 118.456 150.576L123.209 184.321C122.031 187.84 121.171 191.457 120.639 195.129C119.526 205.528 123.513 225.524 124.864 234.245C125.061 235.52 125.128 236.811 125.065 238.1C125.065 238.471 123.951 242.066 128.547 242.423C133.144 242.78 136.27 239.652 136.277 239.118Z" fill="#FFA8A7"/>
<path d="M101.89 108.594C101.89 108.594 96.7962 118.25 94.5612 127.624C92.3262 136.998 92.4376 143.164 92.5267 159.513C92.6158 175.862 92.8534 190.064 92.8534 190.064C91.8021 191.711 90.9709 193.489 90.3808 195.353C88.9923 199.668 87.7671 204.467 87.2028 217.079C87.2028 217.079 94.0637 222.606 102.551 220.415C102.551 220.415 108.729 202.914 110.548 197.299C112.902 190.034 118.441 150.606 118.441 150.606L122.287 184.411C122.287 184.411 119.384 192.493 119.763 198.205C120.141 203.917 121.419 212.957 121.419 212.957C121.419 212.957 129.52 215.69 137.754 211.88C137.754 211.88 139.982 185.265 140.353 175.631C140.724 165.997 141.883 131.992 137.16 110.688L101.89 108.594Z" fill="#5564C1"/>
<path opacity="0.3" d="M101.89 108.594C101.89 108.594 96.7962 118.25 94.5612 127.624C92.3262 136.998 92.4376 143.164 92.5267 159.513C92.6158 175.862 92.8534 190.064 92.8534 190.064C91.8021 191.711 90.9709 193.489 90.3808 195.353C88.9923 199.668 87.7671 204.467 87.2028 217.079C87.2028 217.079 94.0637 222.606 102.551 220.415C102.551 220.415 108.729 202.914 110.548 197.299C112.902 190.034 118.441 150.606 118.441 150.606L122.287 184.411C122.287 184.411 119.384 192.493 119.763 198.205C120.141 203.917 121.419 212.957 121.419 212.957C121.419 212.957 129.52 215.69 137.754 211.88C137.754 211.88 139.982 185.265 140.353 175.631C140.724 165.997 141.883 131.992 137.16 110.688L101.89 108.594Z" fill="#354081"/>
<path opacity="0.3" d="M118.419 150.695L122.221 135.794C122.221 135.794 129.534 136.641 135.289 132.385C135.289 132.385 134.108 137.829 123.913 139.464L119.562 154.089L119.629 161.072L118.419 150.695Z" fill="#354081"/>
<path d="M104.319 265.011C104.616 265.323 104.438 267.604 104.059 268.124C103.68 268.644 101.601 270.352 97.7622 270.434C94.0941 270.501 90.8567 269.832 88.785 268.354C86.7134 266.876 85.7555 265.316 85.659 263.221C85.5624 261.127 85.9114 259.129 85.0055 257.472C84.1665 255.942 83.023 254.434 82.7779 253.617C82.1765 251.834 82.7779 249.16 82.7779 249.16L104.319 265.011Z" fill="#354081"/>
<path d="M95.4238 247.348C95.4319 248.138 95.5392 248.924 95.7431 249.688C96.2154 251.329 96.8836 252.908 97.7331 254.39C98.1535 255.163 98.6248 255.907 99.1439 256.618C100.176 257.992 101.49 259.144 102.597 260.473C103.778 261.73 104.489 263.357 104.609 265.078C104.609 267.961 101.446 268.792 99.0325 269.06C96.4156 269.377 93.761 269.1 91.2656 268.25C89.9538 267.833 88.7905 267.045 87.9158 265.981C87.0411 264.918 86.4922 263.624 86.3352 262.256C86.2461 261.454 86.3352 260.644 86.2832 259.834C86.0623 257.986 85.389 256.22 84.323 254.694C83.7031 253.812 83.1803 252.866 82.7636 251.872C82.1102 250.059 82.8156 248.098 83.3874 246.353C83.8849 244.867 84.2784 243.032 84.8056 243.203C84.8056 243.515 84.8056 244.191 84.8056 244.191C84.969 244.533 85.3477 244.778 85.4368 245.171C85.5266 245.582 85.6508 245.985 85.808 246.375C86.0459 246.982 86.4661 247.501 87.0109 247.86C87.1 246.776 87.1966 245.699 87.2931 244.622C87.2815 244.283 87.3863 243.95 87.5901 243.678C87.8547 243.462 88.1838 243.339 88.5257 243.329C90.5592 242.959 92.6371 242.899 94.6887 243.151C94.8436 243.159 94.9952 243.199 95.1334 243.269C95.2716 243.34 95.3933 243.439 95.4906 243.56C95.603 243.79 95.6369 244.051 95.5871 244.302C95.4748 245.314 95.4203 246.33 95.4238 247.348Z" fill="#354081"/>
<path d="M98.089 255.013C97.0643 254.159 94.6733 254.018 93.359 254.085C92.0239 254.13 90.7216 254.511 89.5721 255.191C89.4029 255.303 89.1992 255.349 88.9986 255.321C88.798 255.294 88.614 255.195 88.4806 255.043C88.4011 254.958 88.3412 254.857 88.3052 254.746C88.2691 254.635 88.2577 254.518 88.2719 254.403C88.2861 254.287 88.3254 254.176 88.3871 254.078C88.4489 253.979 88.5315 253.895 88.6291 253.832C89.8969 252.998 91.3744 252.54 92.8912 252.51C96.1213 252.451 97.042 253.052 97.042 253.052C97.042 253.052 98.4528 254.077 98.089 255.013Z" fill="#F0F0F0"/>
<path d="M100.384 258.079C99.0844 257.218 96.4484 257.188 95.1341 257.262C93.8142 257.316 92.5326 257.721 91.4214 258.436C91.2521 258.545 91.0496 258.591 90.8499 258.565C90.6502 258.539 90.466 258.443 90.3299 258.295C90.2503 258.209 90.1903 258.107 90.1542 257.996C90.1181 257.885 90.1068 257.767 90.1209 257.651C90.1351 257.535 90.1744 257.424 90.2361 257.324C90.2979 257.225 90.3806 257.141 90.4784 257.077C91.7713 256.199 93.2834 255.7 94.8445 255.636C98.0745 255.584 98.8765 256.282 98.8765 256.282C99.2481 256.447 99.5771 256.694 99.8384 257.006C100.1 257.317 100.286 257.685 100.384 258.079Z" fill="#F0F0F0"/>
<path d="M91.7769 249.353C93.144 249.194 94.5291 249.386 95.8015 249.911C96.3584 250.26 96.6776 251.181 96.3064 251.396C95.1938 250.874 93.9691 250.637 92.7422 250.705C91.5306 250.751 90.3354 251.002 89.2078 251.448C88.9256 251.552 88.5915 251.708 88.3019 251.849C88.2094 251.898 88.1075 251.927 88.003 251.934C87.8985 251.941 87.7937 251.926 87.6956 251.889C87.5974 251.853 87.508 251.796 87.4334 251.722C87.3587 251.649 87.3004 251.561 87.2624 251.463C87.2003 251.298 87.1991 251.116 87.259 250.95C87.3188 250.784 87.4359 250.644 87.5891 250.557C88.8844 249.864 90.3117 249.454 91.7769 249.353Z" fill="#F0F0F0"/>
<path d="M154.499 254.412C154.725 255.238 154.63 256.119 154.232 256.878C153.846 257.584 149.955 259.508 144.884 258.891C141.121 258.424 137.551 256.957 134.547 254.642C132.669 253.253 130.664 252.904 128.147 252.622C125.63 252.34 123.736 251.463 123.246 250.26C122.756 249.056 123.506 247.051 123.506 247.051L154.499 254.412Z" fill="#354081"/>
<path d="M134.725 238.27C135.185 238.171 135.639 238.044 136.084 237.891C136.318 237.788 136.582 237.772 136.827 237.847C137.146 237.98 137.25 238.374 137.317 238.716C137.398 239.47 137.544 240.215 137.755 240.944C138.103 241.551 138.561 242.088 139.106 242.526C140.317 243.607 141.635 244.561 143.042 245.371C144.653 246.359 146.249 247.139 147.927 248.001C149.606 248.862 151.937 249.486 153.259 250.489C155.182 251.975 155.256 255.347 152.91 256.558C150.883 257.612 145.648 258.578 140.287 256.751C137.376 255.755 134.272 252.42 130.411 251.915C127.953 251.588 124.679 251.172 123.194 249.241C122.652 248.379 123.119 245.973 123.565 243.12C123.958 240.573 124.307 236.576 125.102 236.836V237.579C125.295 237.906 125.926 238.5 126.164 238.797C126.379 239.028 126.61 239.244 126.854 239.444C127.127 239.759 127.417 240.059 127.723 240.342C128.122 240.685 128.618 240.893 129.141 240.937C129.399 240.955 129.656 240.901 129.884 240.781C130.307 240.535 130.359 239.986 130.701 239.644C131.095 239.258 131.562 238.955 132.074 238.753C132.792 238.497 133.542 238.344 134.302 238.3C134.444 238.299 134.585 238.289 134.725 238.27Z" fill="#354081"/>
<path d="M140.821 243.923C140.664 243.573 140.421 243.269 140.115 243.039C139.808 242.809 139.448 242.661 139.069 242.608C137.955 242.333 135.935 243.054 134.614 244.004C134.492 244.094 134.395 244.212 134.329 244.347C134.264 244.483 134.232 244.633 134.237 244.783C134.242 244.934 134.284 245.081 134.359 245.212C134.433 245.343 134.539 245.454 134.666 245.535C134.828 245.634 135.017 245.68 135.207 245.668C135.397 245.656 135.579 245.586 135.728 245.468C137.159 244.307 138.987 243.753 140.821 243.923Z" fill="#F0F0F0"/>
<path d="M144.193 246.054C143.969 245.696 143.661 245.398 143.297 245.185C142.932 244.971 142.521 244.849 142.099 244.829C142.099 244.829 139.129 244.754 137.258 246.314C137.14 246.401 137.045 246.515 136.981 246.647C136.917 246.779 136.886 246.924 136.891 247.071C136.896 247.217 136.937 247.36 137.01 247.487C137.083 247.614 137.186 247.722 137.31 247.8C137.465 247.896 137.646 247.942 137.828 247.932C138.01 247.921 138.185 247.854 138.327 247.74C139.116 247.037 140.053 246.52 141.068 246.228C142.084 245.936 143.152 245.877 144.193 246.054Z" fill="#F0F0F0"/>
<path d="M147.942 248.016C147.675 247.679 147.337 247.404 146.952 247.21C146.567 247.016 146.145 246.909 145.715 246.895C144.046 246.907 142.424 247.447 141.081 248.44C140.963 248.526 140.867 248.639 140.802 248.771C140.738 248.902 140.706 249.048 140.711 249.194C140.715 249.341 140.755 249.484 140.828 249.611C140.9 249.739 141.002 249.846 141.126 249.925C141.281 250.022 141.462 250.068 141.644 250.057C141.826 250.046 142.001 249.979 142.143 249.866C142.896 249.123 143.814 248.569 144.822 248.247C145.829 247.926 146.898 247.847 147.942 248.016Z" fill="#F0F0F0"/>
<path d="M133.975 64.5587C131.049 62.4269 129.082 62.2412 126.186 62.5383L129.616 84.1612C129.616 84.1612 142.017 96.2242 145.403 99.5891L155.538 91.6634C155.538 91.6634 136.915 66.6906 133.975 64.5587Z" fill="#FFA8A7"/>
<path d="M136.931 104.507C136.51 100.4 136.463 96.2627 136.79 92.1468C142.73 86.145 141.49 79.2816 138.787 74.9065C133.233 65.9112 126.164 62.5537 126.164 62.5537L116.897 62.2715C115.583 62.42 104.185 64.0691 102.73 64.4479C102.73 64.4479 98.809 67.7756 97.7398 71.5936C97.1383 73.7626 96.9973 75.939 98.9353 83.0178L103.784 95.3111C103.784 95.3111 105.187 99.0251 104.475 101.58C103.732 104.292 99.8263 110.598 97.7918 116.837C97.7918 116.837 106.598 124.719 122.748 122.891C136.552 121.331 138.564 116.681 138.564 116.681C138.564 116.681 137.094 107.018 136.931 104.507Z" fill="#F0F0F0"/>
<path opacity="0.1" d="M110.942 89.6503C111.883 91.3093 113.284 92.6605 114.976 93.541C116.668 94.4214 118.578 94.7934 120.476 94.6122C122.311 94.5039 124.085 93.9106 125.617 92.8928C127.148 91.8749 128.382 90.469 129.193 88.8184C129.193 88.8184 129.127 96.1126 120.528 96.3578C111.93 96.6029 110.942 89.6503 110.942 89.6503Z" fill="#354081"/>
<path d="M33.4293 90.0296C33.4421 88.756 33.694 87.4962 34.1718 86.3156C34.3839 85.6993 34.8254 85.1885 35.4044 84.8895C35.6276 84.8232 35.8643 84.8165 36.0909 84.8699C36.3175 84.9233 36.5262 85.0351 36.6964 85.194C37.877 86.2413 39.7631 88.1652 41.0031 89.1605C42.1381 90.1545 43.4404 90.9391 44.8494 91.4781C45.1687 91.2181 44.7528 90.8096 44.5598 90.5421C44.0771 89.8662 43.6019 89.4577 43.0747 88.7223C42.5475 87.9869 41.9387 87.311 42.2134 86.3231C42.2429 86.1933 42.3066 86.0737 42.3981 85.977C42.4895 85.8803 42.6053 85.81 42.7332 85.7734C42.9542 85.7473 43.177 85.8057 43.3569 85.9368C45.0556 86.7835 46.6483 87.8282 48.1017 89.0491C49.7055 90.3936 50.6485 92.6145 53.4033 93.699C56.1581 94.7835 59.1134 95.0584 64.2146 95.7269C68.1723 96.2468 72.6423 96.6182 77.0455 96.9971C79.6147 93.3722 89.1785 79.623 93.0619 73.7252C96.032 69.1793 98.4601 65.1385 102.759 64.4551C106.472 65.5173 107.957 75.4931 105.603 81.7623C105.603 81.7623 103.339 85.7957 97.8438 92.2283C95.2227 95.2961 89.082 103.155 85.0352 107.411C83.1046 109.446 82.2507 109.937 73.8972 108.614C69.2935 107.872 52.943 103.623 49.8318 102.672C47.7086 102.111 45.6229 101.416 43.5871 100.592C41.56 99.7603 37.179 97.4056 35.5232 95.3926C34.8177 94.596 34.2731 93.6703 33.9193 92.6665C33.6041 91.8227 33.4383 90.9304 33.4293 90.0296Z" fill="#FFA8A7"/>
<path d="M102.834 30.0564C100.183 33.4288 99.6337 37.8484 100.235 42.2235C101.245 49.5772 105.656 55.3264 110.942 57.8222C114.113 59.3078 118.234 59.9541 120.387 58.1268C123.729 55.2893 127.115 52.5038 130.716 50.0154C133.404 48.151 136.344 46.3014 137.748 43.3303C138.951 40.7825 138.958 36.4074 136.567 34.491C138.914 32.9014 139.931 30.1827 140.361 28.6154C140.852 26.803 140.361 25.6442 139.619 24.998C138.876 24.3518 136.805 24.2552 135.906 24.1661C132.446 23.7427 129.966 22.8216 126.588 21.8931C124.575 21.3137 118.836 20.6378 115.071 21.3137C112.101 21.8485 108.67 22.9924 107.156 27.1298C105.414 27.5636 103.883 28.6005 102.834 30.0564Z" fill="#354081"/>
<path d="M129.988 28.3262C132.179 29.4775 135.09 34.692 135.409 45.9379C135.713 55.4829 132.743 57.9787 131.206 58.7363C129.669 59.494 126.684 59.2414 123.781 58.9072L123.476 64.1068C123.476 64.1068 133.085 72.025 123.313 72.1141C117.544 72.1661 110.742 64.2033 110.742 64.2033L110.2 52.1774C109.554 52.5273 108.814 52.664 108.086 52.568C107.358 52.4719 106.679 52.148 106.146 51.6426C103.792 49.5033 103.235 46.2202 105.002 44.2146C106.77 42.2091 109.888 42.4839 111.247 45.366C111.247 45.366 112.858 46.3687 114.395 43.1376C117.272 42.7114 120.016 41.6481 122.429 40.0252C128.288 36.1701 129.558 30.2649 129.988 28.3262Z" fill="#FFA8A7"/>
<path d="M123.283 42.9968C123.297 43.2307 123.241 43.4634 123.123 43.666C123.006 43.8685 122.831 44.032 122.621 44.1362C122.411 44.2404 122.176 44.2806 121.943 44.2519C121.711 44.2232 121.492 44.1269 121.314 43.9748C121.136 43.8228 121.006 43.6217 120.941 43.3966C120.876 43.1715 120.879 42.9323 120.949 42.7087C121.018 42.485 121.152 42.2868 121.334 42.1386C121.515 41.9905 121.736 41.8989 121.969 41.8752C122.129 41.862 122.29 41.8806 122.443 41.9299C122.596 41.9792 122.737 42.0583 122.859 42.1625C122.981 42.2668 123.082 42.3941 123.155 42.5373C123.227 42.6805 123.271 42.8367 123.283 42.9968Z" fill="#354081"/>
<path d="M126.164 51.9394C126.184 52.0982 126.173 52.2595 126.131 52.4139C126.088 52.5683 126.016 52.7127 125.917 52.8386C125.818 52.9645 125.695 53.0694 125.555 53.1471C125.415 53.2249 125.261 53.2739 125.102 53.2913C124.855 53.3273 124.603 53.2885 124.379 53.1799C124.154 53.0712 123.967 52.8977 123.842 52.6818C123.717 52.4659 123.66 52.2174 123.677 51.9685C123.695 51.7196 123.787 51.4817 123.941 51.2855C124.095 51.0893 124.304 50.9438 124.542 50.8679C124.779 50.7919 125.034 50.7889 125.274 50.8593C125.513 50.9297 125.726 51.0702 125.884 51.2628C126.043 51.4553 126.14 51.691 126.164 51.9394Z" fill="#B16668"/>
<path d="M131.399 36.7207L133.931 38.2434C133.839 38.413 133.714 38.5623 133.563 38.6821C133.411 38.8019 133.238 38.8898 133.052 38.9405C132.866 38.9911 132.671 39.0036 132.48 38.977C132.289 38.9504 132.106 38.8853 131.941 38.7857C131.605 38.5749 131.362 38.2441 131.261 37.8605C131.16 37.4769 131.21 37.0693 131.399 36.7207Z" fill="#354081"/>
<path d="M121.07 39.1397L118.375 40.3356C118.288 40.1644 118.237 39.9773 118.225 39.7857C118.213 39.594 118.24 39.402 118.304 39.2212C118.369 39.0404 118.47 38.8747 118.601 38.7342C118.732 38.5938 118.89 38.4815 119.065 38.4043C119.43 38.2469 119.841 38.2354 120.214 38.3722C120.587 38.509 120.894 38.7837 121.07 39.1397Z" fill="#354081"/>
<path d="M133.374 42.4689C133.391 42.703 133.339 42.9372 133.225 43.1421C133.11 43.3471 132.938 43.5137 132.729 43.6213C132.521 43.7289 132.285 43.7727 132.052 43.7472C131.818 43.7217 131.598 43.6281 131.417 43.478C131.237 43.3278 131.104 43.1279 131.037 42.903C130.969 42.6782 130.969 42.4384 131.037 42.2136C131.104 41.9887 131.237 41.7888 131.417 41.6387C131.598 41.4886 131.819 41.395 132.052 41.3695C132.372 41.3426 132.691 41.4428 132.938 41.6484C133.185 41.8541 133.342 42.1488 133.374 42.4689Z" fill="#354081"/>
<path d="M127.226 41.1172L127.895 49.5999L132.291 47.9806L127.226 41.1172Z" fill="#F28F8F"/>
<path d="M123.759 58.9073C120.677 58.6622 114.292 57.1766 113.178 54.7402C113.603 56.1129 114.45 57.3165 115.598 58.1794C117.566 59.665 123.633 61.0837 123.633 61.0837L123.759 58.9073Z" fill="#F28F8F"/>
<path d="M111.106 43.0472L111.366 48.0536C112.269 48.0056 113.117 47.6009 113.723 46.9282C114.328 46.2555 114.642 45.37 114.596 44.4659L114.351 39.8457L111.106 43.0472Z" fill="#354081"/>
<path d="M121.85 126.562C104.341 126.183 82.7777 138.023 73.6965 153.005C69.1522 160.5 68.5953 167.356 71.365 172.385C71.7808 173.128 74.2683 177.674 74.6841 178.431C77.4314 183.482 83.5202 186.699 92.2895 186.892C109.806 187.27 131.361 175.43 140.443 160.448C144.987 152.961 145.544 146.112 142.789 141.083C142.366 140.34 139.863 135.743 139.433 134.97C136.671 129.949 130.597 126.747 121.85 126.562Z" fill="#354081"/>
<path opacity="0.1" d="M94.6135 134.018C85.8961 138.809 78.2332 145.516 73.6964 153.003C69.1595 160.491 68.5952 167.354 71.3648 172.383C71.7806 173.126 74.2681 177.672 74.6839 178.429C77.4313 183.48 83.52 186.697 92.2893 186.89C101.059 187.083 110.853 184.208 119.525 179.425L94.6135 134.018Z" fill="#354081"/>
<path d="M79.036 146C77.027 148.151 75.2385 150.497 73.6972 153.005C69.1529 160.499 68.596 167.355 71.3657 172.384C71.7815 173.127 74.269 177.673 74.6848 178.431C77.4321 183.482 83.5209 186.698 92.2902 186.891C95.2332 186.937 98.1734 186.688 101.067 186.148L79.036 146Z" fill="#354081"/>
<path d="M71.3653 172.36C65.4065 161.499 75.8208 144.324 94.6263 133.999C113.432 123.674 133.507 124.109 139.466 134.969C145.425 145.83 135.01 163.005 116.205 173.33C97.3995 183.655 77.3241 183.221 71.3653 172.36Z" fill="#354081"/>
<path d="M122.125 119.022C121.991 118.791 121.664 118.784 121.382 118.806C119.852 118.925 117.417 119.549 116.266 118.175C116.176 118.077 116.113 117.956 116.086 117.825C116.059 117.694 116.067 117.559 116.11 117.432C116.214 117.236 116.39 117.087 116.6 117.016C118.262 116.099 120.027 115.381 121.857 114.877" fill="#FFA8A7"/>
<g opacity="0.4">
<path opacity="0.4" d="M110.615 110.858C121.375 115.575 127.411 125.209 133.96 137.138L76.095 168.915C69.5459 156.986 64.66 146.721 66.4421 135.111C68.2242 123.501 71.766 117.855 72.7091 113.495C73.6521 109.135 72.9987 106.565 72.0482 104.827C71.0978 103.089 69.286 101.113 65.0907 99.6272C60.8954 98.1416 54.2572 98.0227 43.4905 93.3059C32.7238 88.5892 26.7093 78.9477 20.1601 67.0183L78.033 35.2266C84.5747 47.1559 89.4754 57.4362 87.6859 69.0387C85.8964 80.6412 82.3768 86.2865 81.419 90.6542C80.4611 95.0218 81.1368 97.577 82.0947 99.3226C83.0525 101.068 84.8569 102.992 89.0373 104.522C91.3169 105.362 94.3167 105.755 98.3041 106.706C102.527 107.708 106.648 109.098 110.615 110.858Z" fill="#5564C1"/>
</g>
<path d="M76.0998 168.893C71.0368 159.665 79.8867 145.072 95.8665 136.298C111.846 127.525 128.905 127.893 133.968 137.121C139.031 146.349 130.181 160.943 114.201 169.716C98.2214 178.49 81.1628 178.121 76.0998 168.893Z" fill="#5564C1"/>
<path d="M20.154 66.9225C15.091 57.6943 23.9409 43.1011 39.9207 34.3274C55.9005 25.5538 72.9591 25.9223 78.0221 35.1504C83.0851 44.3785 74.2352 58.9718 58.2554 67.7454C42.2756 76.519 25.217 76.1506 20.154 66.9225Z" fill="#5564C1"/>
<g opacity="0.8">
<path opacity="0.8" d="M82.3997 73.1322C81.9245 77.4553 80.1721 80.5602 79.1474 83.2343C78.3698 85.1077 77.7343 87.037 77.2465 89.0058C76.207 93.834 76.6154 97.8451 78.5014 101.284C80.3874 104.723 80.328 105.741 79.3701 106.283C78.4123 106.826 77.5138 106.283 75.6575 102.859C73.8012 99.4347 70.6009 96.9166 65.9675 95.2156C64.0473 94.5734 62.0814 94.0768 60.0866 93.73C56.1512 92.9204 57.9036 91.3531 60.5692 90.8034C68.3064 89.199 69.3831 87.1934 73.467 78.7626C74.5296 76.5971 75.8484 74.5671 77.395 72.7163C79.1399 70.8296 82.7412 69.9902 82.3997 73.1322Z" fill="white"/>
</g>
<g opacity="0.8">
<path opacity="0.8" d="M80.3354 112.113C80.2109 111.755 80.1913 111.368 80.2792 110.999C80.367 110.629 80.5586 110.293 80.8312 110.029C81.1039 109.765 81.4464 109.584 81.8182 109.509C82.19 109.433 82.5757 109.465 82.9298 109.602C83.2839 109.738 83.5917 109.973 83.8168 110.278C84.042 110.584 84.1752 110.947 84.2006 111.326C84.226 111.705 84.1427 112.083 83.9605 112.416C83.7782 112.749 83.5046 113.022 83.1719 113.205C82.6509 113.435 82.0598 113.45 81.5282 113.245C80.9966 113.04 80.5677 112.633 80.3354 112.113Z" fill="white"/>
</g>
<path opacity="0.8" d="M130.054 138.593C124.856 129.531 119.755 122.296 111.55 118.835C105.068 116.101 95.8678 116.123 87.3361 120.803C78.8045 125.483 74.2973 131.098 72.6786 140.16C71.1192 148.911 74.5572 157.133 79.4133 166.381C81.3365 169.895 85.7323 172.041 92.1477 172.004C104.971 171.93 121.01 163.091 127.96 152.335C131.435 146.95 131.977 142.077 130.054 138.571V138.593Z" fill="white"/>
<path opacity="0.7" d="M79.4258 166.379C75.2724 158.809 83.2422 146.448 97.2268 138.77C111.211 131.091 125.915 131.004 130.068 138.574C134.222 146.144 126.252 158.506 112.268 166.184C98.2829 173.862 83.5792 173.949 79.4258 166.379Z" fill="white"/>
<path d="M61.2668 16.1592C43.7505 15.7804 22.1949 27.6206 13.1137 42.6028C8.5694 50.0903 8.01249 56.9463 10.7747 61.9824L14.0938 68.0288C16.8486 73.0724 22.9374 76.2962 31.7067 76.4893C49.2155 76.8607 70.7786 65.0205 79.8598 50.0383C84.3967 42.5583 84.961 35.7097 82.2062 30.6809L78.85 24.5677C76.0877 19.5464 70.0138 16.3449 61.2668 16.1592Z" fill="#354081"/>
<path opacity="0.1" d="M34.0305 23.6172C25.3132 28.4008 17.6503 35.1083 13.1134 42.6031C8.57653 50.0979 7.99734 56.9688 10.7744 61.9827L14.0935 68.0291C16.8483 73.0727 22.9371 76.2964 31.7064 76.4896C40.4756 76.6827 50.2325 73.8081 58.9424 69.0244L34.0305 23.6172Z" fill="#354081"/>
<path d="M18.4526 35.5977C16.4413 37.7464 14.6526 40.0932 13.1138 42.6022C8.56954 50.0896 8.01262 56.9457 10.7748 61.9818L14.0939 68.0282C16.8487 73.0718 22.9375 76.2956 31.7068 76.4887C34.6473 76.5341 37.585 76.2853 40.4761 75.7459L18.4526 35.5977Z" fill="#354081"/>
<path d="M10.7896 61.9671C4.83081 51.1063 15.2451 33.9318 34.0506 23.6067C52.8561 13.2817 72.9316 13.716 78.8903 24.5769C84.8491 35.4377 74.4348 52.6123 55.6293 62.9373C36.8238 73.2624 16.7484 72.828 10.7896 61.9671Z" fill="#5564C1"/>
<path d="M155.538 91.6641L144.103 97.3539C141.289 100.756 139.886 102.628 137.205 105.592C134.714 108.474 131.862 111.023 128.718 113.175C126.26 114.817 123.892 114.327 121.88 114.884L122.125 119.021C122.31 119.341 121.946 119.69 121.627 119.876C118.894 121.458 115.979 122.705 112.947 123.59C111.922 123.894 110.719 124.332 110.504 125.417C110.348 126.293 111.135 126.977 111.759 127.645C113.986 129.97 117.84 130.579 120.877 129.97C123.506 129.443 126.379 127.742 128.644 126.256C131.042 124.652 132.884 122.639 134.673 121.19C137.198 119.148 145.811 111.987 149.271 108.852C151.269 107.04 154.15 104.44 155.538 102.999C158.924 99.4783 159.919 97.495 155.538 91.6641Z" fill="#FFA8A7"/>
<path d="M145.529 16.9076C145.534 16.8032 145.518 16.6988 145.483 16.6005C145.447 16.5022 145.392 16.4122 145.321 16.3356C145.253 16.2583 145.17 16.1959 145.076 16.1524C144.983 16.1089 144.882 16.0853 144.779 16.0831L141.103 15.9123C140.897 15.9059 140.695 15.9797 140.542 16.1181C140.388 16.2565 140.294 16.4488 140.279 16.655L140.145 19.6262C140.139 19.7296 140.154 19.8333 140.189 19.9305C140.225 20.0277 140.281 20.1164 140.353 20.1908C140.42 20.2695 140.503 20.3333 140.597 20.3781C140.69 20.4229 140.792 20.4476 140.895 20.4507L144.571 20.6216C144.781 20.6197 144.982 20.5353 145.13 20.3867C145.279 20.238 145.363 20.037 145.365 19.8268L145.529 16.9076ZM146.271 0.989439C146.277 0.782768 146.204 0.581644 146.065 0.428025C145.927 0.274405 145.735 0.180152 145.529 0.164932L141.853 0.00151865C141.75 -0.00510323 141.646 0.0099797 141.549 0.0457985C141.452 0.0816174 141.363 0.137379 141.289 0.209501C141.21 0.276768 141.146 0.359756 141.101 0.453138C141.057 0.54652 141.032 0.648231 141.029 0.751743L140.457 13.3347C140.45 13.4381 140.466 13.5418 140.501 13.639C140.537 13.7362 140.593 13.8249 140.665 13.8993C140.732 13.978 140.815 14.0418 140.909 14.0866C141.002 14.1314 141.104 14.1561 141.207 14.1592L144.92 14.3301C145.023 14.3367 145.127 14.3216 145.224 14.2858C145.321 14.25 145.41 14.1942 145.484 14.1221C145.562 14.0533 145.625 13.9688 145.669 13.8741C145.712 13.7794 145.735 13.6767 145.736 13.5724L146.271 0.989439Z" fill="#5564C1"/>
<path d="M153.244 27.997C153.361 27.8224 153.403 27.6087 153.363 27.4027C153.345 27.3011 153.306 27.2044 153.248 27.1187C153.191 27.033 153.116 26.9602 153.029 26.9051L149.955 24.8698C149.78 24.7593 149.569 24.7201 149.366 24.7601C149.163 24.8002 148.983 24.9165 148.863 25.0852L147.237 27.5513C147.179 27.6361 147.139 27.732 147.12 27.833C147.101 27.934 147.103 28.0379 147.126 28.1381C147.143 28.2411 147.181 28.3392 147.239 28.4263C147.296 28.5133 147.372 28.5872 147.46 28.6432L150.526 30.6785C150.611 30.7366 150.707 30.7766 150.808 30.7958C150.909 30.8149 151.013 30.8129 151.113 30.7899C151.216 30.7728 151.314 30.7342 151.401 30.6766C151.488 30.619 151.562 30.5437 151.618 30.4556L153.244 27.997ZM162.043 14.7454C162.101 14.6607 162.141 14.5647 162.16 14.4637C162.179 14.3627 162.177 14.2588 162.154 14.1586C162.137 14.0557 162.099 13.9575 162.041 13.8705C161.984 13.7834 161.908 13.7095 161.82 13.6535L158.731 11.6554C158.557 11.5419 158.344 11.5017 158.14 11.5434C157.936 11.5851 157.756 11.7053 157.64 11.8782L150.682 22.3814C150.624 22.4662 150.584 22.5621 150.565 22.6631C150.546 22.7641 150.548 22.868 150.571 22.9682C150.588 23.0712 150.627 23.1694 150.684 23.2564C150.742 23.3434 150.817 23.4173 150.905 23.4733L153.972 25.5086C154.147 25.6221 154.359 25.6623 154.563 25.6206C154.767 25.5789 154.947 25.4587 155.063 25.2858L162.043 14.7454Z" fill="#5564C1"/>
<g opacity="0.6">
<path opacity="0.6" d="M153.244 27.997C153.361 27.8224 153.403 27.6087 153.363 27.4027C153.345 27.3011 153.306 27.2044 153.248 27.1187C153.191 27.033 153.116 26.9602 153.029 26.9051L149.955 24.8698C149.78 24.7593 149.569 24.7201 149.366 24.7601C149.163 24.8002 148.983 24.9165 148.863 25.0852L147.237 27.5513C147.179 27.6361 147.139 27.732 147.12 27.833C147.101 27.934 147.103 28.0379 147.126 28.1381C147.143 28.2411 147.181 28.3392 147.239 28.4263C147.296 28.5133 147.372 28.5872 147.46 28.6432L150.526 30.6785C150.611 30.7366 150.707 30.7766 150.808 30.7958C150.909 30.8149 151.013 30.8129 151.113 30.7899C151.216 30.7728 151.314 30.7342 151.401 30.6766C151.488 30.619 151.562 30.5437 151.618 30.4556L153.244 27.997ZM162.043 14.7454C162.101 14.6607 162.141 14.5647 162.16 14.4637C162.179 14.3627 162.177 14.2588 162.154 14.1586C162.137 14.0557 162.099 13.9575 162.041 13.8705C161.984 13.7834 161.908 13.7095 161.82 13.6535L158.731 11.6554C158.557 11.5419 158.344 11.5017 158.14 11.5434C157.936 11.5851 157.756 11.7053 157.64 11.8782L150.682 22.3814C150.624 22.4662 150.584 22.5621 150.565 22.6631C150.546 22.7641 150.548 22.868 150.571 22.9682C150.588 23.0712 150.627 23.1694 150.684 23.2564C150.742 23.3434 150.817 23.4173 150.905 23.4733L153.972 25.5086C154.147 25.6221 154.359 25.6623 154.563 25.6206C154.767 25.5789 154.947 25.4587 155.063 25.2858L162.043 14.7454Z" fill="white"/>
</g>
</svg>
