<svg width="756" height="1076" viewBox="0 0 756 1076" fill="none" xmlns="http://www.w3.org/2000/svg">
<path d="M501.414 101.132H688.582L756 0H68.882L1.45165 101.132H190.452C209.966 102.001 346.444 111.686 395.396 212.33H67.4303L0 313.462H411.971C411.828 315.378 411.697 317.27 411.507 319.209C411.507 319.209 409.567 540.546 38.1831 502.199V549.886L38.5639 602.082L439.35 1076H591.583V1054.93L207.348 584.985V578.239C207.348 578.239 509.743 583.057 559.813 315.366C559.813 315.366 559.908 314.7 560.051 313.462H687.13L754.572 212.33H554.601C547.01 175.173 531.613 134.28 501.414 101.132Z" fill="black"/>
</svg>
