<svg width="1119" height="1120" viewBox="0 0 1119 1120" fill="none" xmlns="http://www.w3.org/2000/svg">
<path fill-rule="evenodd" clip-rule="evenodd" d="M248.592 1025.13C340.576 1086.59 448.72 1119.4 559.349 1119.4C707.698 1119.4 849.97 1060.46 954.869 955.566C1059.77 850.668 1118.7 708.395 1118.7 560.046C1118.7 449.418 1085.89 341.273 1024.43 249.289C962.969 157.304 875.61 85.6112 773.403 43.2754C671.195 0.939624 558.729 -10.1374 450.226 11.4452C341.723 33.0279 242.056 86.3007 163.83 164.527C85.6034 242.753 32.3306 342.42 10.748 450.923C-10.8346 559.426 0.242359 671.892 42.5782 774.1C84.9139 876.308 156.607 963.666 248.592 1025.13ZM276.842 137.245C360.465 81.3704 458.778 51.5474 559.349 51.5474C626.126 51.5474 692.249 64.7001 753.943 90.2546C815.637 115.809 871.694 153.265 918.912 200.483C966.131 247.702 1003.59 303.758 1029.14 365.452C1054.7 427.146 1067.85 493.269 1067.85 560.046C1067.85 660.618 1038.03 758.931 982.151 842.553C926.276 926.176 846.859 991.351 753.943 1029.84C661.027 1068.33 558.785 1078.4 460.146 1058.77C361.507 1039.15 270.901 990.724 199.786 919.61C128.671 848.495 80.2414 757.889 60.6208 659.25C41.0003 560.611 51.0703 458.368 89.5573 365.452C128.044 272.536 193.22 193.12 276.842 137.245ZM509.945 703.619L468.729 599.317C464.975 590.149 459.952 581.563 453.81 573.815C468.197 567.095 480.786 557.009 490.531 544.395C500.275 531.781 506.894 517.004 509.836 501.291C512.779 485.579 511.961 469.385 507.45 454.055C502.939 438.726 494.866 424.703 483.901 413.154C474.441 403.146 463.063 395.182 450.457 389.746C437.851 384.31 424.281 381.515 410.571 381.531H359.999C346.587 381.531 333.724 386.905 324.239 396.47C314.755 406.035 309.427 419.008 309.427 432.535V713.055C309.427 719.819 312.091 726.305 316.833 731.088C321.575 735.87 328.007 738.557 334.713 738.557C341.42 738.557 347.851 735.87 352.593 731.088C357.335 726.305 359.999 719.819 359.999 713.055V585.546H370.619C381.345 585.296 391.899 588.297 400.914 594.162C409.93 600.027 416.994 608.486 421.191 618.443L462.408 722.491C464.312 727.318 467.634 731.443 471.926 734.314C476.219 737.185 481.279 738.665 486.429 738.557C489.632 738.565 492.807 737.959 495.785 736.772C498.875 735.535 501.693 733.696 504.078 731.36C506.462 729.024 508.367 726.236 509.682 723.157C510.997 720.078 511.697 716.767 511.743 713.415C511.788 710.062 511.177 706.734 509.945 703.619ZM359.999 432.535H410.571C417.453 432.524 424.265 433.931 430.589 436.667C436.913 439.404 442.617 443.414 447.352 448.451C452.086 453.489 455.751 459.448 458.122 465.963C460.494 472.479 461.522 479.414 461.143 486.344C459.63 499.843 453.156 512.279 442.999 521.201C432.842 530.124 419.738 534.883 406.273 534.542H359.999V432.535ZM784.279 738.563C777.651 738.563 771.294 735.875 766.607 731.091C761.92 726.307 759.287 719.818 759.287 713.052V479.634L703.804 550.297C701.462 553.277 698.495 555.681 695.121 557.334C691.747 558.986 688.052 559.844 684.31 559.844C680.568 559.844 676.873 558.986 673.499 557.334C670.125 555.681 667.158 553.277 664.816 550.297L609.333 479.634V713.052C609.333 719.818 606.7 726.307 602.013 731.091C597.327 735.875 590.97 738.563 584.341 738.563C577.713 738.563 571.356 735.875 566.669 731.091C561.982 726.307 559.349 719.818 559.349 713.052V406.93C559.37 401.656 560.991 396.519 563.99 392.225C566.988 387.931 571.217 384.69 576.094 382.95C580.977 381.214 586.268 381.067 591.236 382.53C596.205 383.992 600.607 386.991 603.835 391.114L684.31 493.154L764.785 391.114C768.014 386.991 772.415 383.992 777.384 382.53C782.352 381.067 787.643 381.214 792.526 382.95C797.403 384.69 801.632 387.931 804.631 392.225C807.629 396.519 809.25 401.656 809.271 406.93V713.052C809.271 719.818 806.638 726.307 801.951 731.091C797.264 735.875 790.907 738.563 784.279 738.563Z" fill="black"/>
</svg>
