<svg width="880" height="1071" viewBox="0 0 880 1071" fill="none" xmlns="http://www.w3.org/2000/svg">
<path d="M831.111 389.455H729.422C732.435 369.969 733.743 350.26 733.333 330.55C732.781 317.665 731.475 304.824 729.422 292.091H831.111C844.077 292.091 856.512 286.962 865.681 277.832C874.849 268.703 880 256.32 880 243.409C880 230.498 874.849 218.116 865.681 208.986C856.512 199.856 844.077 194.727 831.111 194.727H698.133C668.163 136.084 622.471 86.8494 566.123 52.4789C509.774 18.1083 444.969 -0.0555695 378.889 0.000127707H244.444C218.512 0.000127707 193.642 10.258 175.305 28.5173C156.968 46.7765 146.667 71.5413 146.667 97.3638V194.727H48.8889C35.9227 194.727 23.4877 199.856 14.3192 208.986C5.15079 218.116 0 230.498 0 243.409C0 256.32 5.15079 268.703 14.3192 277.832C23.4877 286.962 35.9227 292.091 48.8889 292.091H146.667V389.455H48.8889C35.9227 389.455 23.4877 394.584 14.3192 403.713C5.15079 412.843 0 425.225 0 438.136C0 451.048 5.15079 463.43 14.3192 472.56C23.4877 481.689 35.9227 486.818 48.8889 486.818H146.667V1022.32C146.667 1035.23 151.817 1047.61 160.986 1056.74C170.154 1065.87 182.589 1071 195.556 1071C208.522 1071 220.957 1065.87 230.125 1056.74C239.294 1047.61 244.444 1035.23 244.444 1022.32V681.546H391.111C436.783 681.64 481.999 672.498 524.018 654.674C566.036 636.85 603.982 610.715 635.556 577.853C662.212 551.47 684.049 520.664 700.089 486.818H831.111C844.077 486.818 856.512 481.689 865.681 472.56C874.849 463.43 880 451.048 880 438.136C880 425.225 874.849 412.843 865.681 403.713C856.512 394.584 844.077 389.455 831.111 389.455ZM244.444 97.3638H378.889C418.02 97.3734 456.651 106.126 491.934 122.977C527.217 139.827 558.253 164.346 582.756 194.727H244.444V97.3638ZM244.444 292.091H629.689C632.874 305.683 634.837 319.531 635.556 333.471C635.727 352.268 633.925 371.031 630.178 389.455H244.444V292.091ZM566.622 510.186C543.835 533.595 516.557 552.208 486.408 564.919C456.258 577.63 423.852 584.181 391.111 584.182H244.444V486.818H586.667C580.423 494.969 573.731 502.77 566.622 510.186Z" fill="black"/>
</svg>
