<svg width="655" height="1166" viewBox="0 0 655 1166" fill="none" xmlns="http://www.w3.org/2000/svg">
    <path
        d="M556.888 584.555C527.612 565.628 495.808 550.972 462.428 541.024C443.071 535 419.65 528.781 394.293 521.591C372.807 515.566 349.579 509.931 313.382 502.157C274.814 493.962 236.951 482.72 200.147 468.538C178.931 460.396 160.094 447.031 145.368 429.671C132.726 412.986 126.474 392.296 127.753 371.371C127.753 369.428 127.753 367.679 127.753 365.735C128.888 347.357 135.648 329.779 147.11 315.403C164.04 295.042 186.197 279.719 211.18 271.095C249.166 257.81 289.238 251.555 329.448 252.633C359.406 252.603 389.23 256.656 418.101 264.682C438.972 270.536 458.636 280.078 476.171 292.86C488.002 301.445 498.115 312.191 505.98 324.537L537.338 373.509L635.475 310.933L604.117 261.961C588.393 237.32 568.164 215.889 544.499 198.803C516.204 178.096 484.489 162.57 450.814 152.94C428.888 146.612 406.492 142.063 383.84 139.337V0H267.701V139.143C235.556 142.718 203.887 149.755 173.241 160.131C127.97 175.668 87.8039 203.358 57.1018 240.196L55.5533 242.139C28.2049 276.89 12.6696 319.527 11.2268 363.792C8.18679 412.582 22.6783 460.849 52.0691 499.825L54.0048 502.157C81.5617 535.953 117.375 561.999 157.949 577.753C200.351 594.133 243.974 607.129 288.412 616.62C321.706 624.004 343.191 629.251 364.29 636.053C389.26 642.272 410.165 647.907 428.554 653.543C451.32 660.288 473.02 670.233 493.011 683.082C506.116 691.587 517.214 702.862 525.53 716.118C534.576 732.931 539.112 751.816 538.692 770.92C538.692 770.92 538.692 772.669 538.692 773.641C539.326 796.859 532.543 819.672 519.336 838.743C501.636 862.787 477.36 881.151 449.459 891.601C409.632 907.368 367.01 914.776 324.222 913.367H320.544C273.745 914.953 227.259 905.152 185.049 884.8C162.435 872.68 143.051 855.285 128.527 834.079L95.4277 786.273L0 852.735L33.0997 900.541C58.5587 937.599 92.5583 967.933 132.205 988.962C180.646 1012.69 233.262 1026.62 287.057 1029.97V1166H403.197V1024.33C433.614 1019.65 463.415 1011.57 492.043 1000.23C540.741 981.681 583.034 949.347 613.796 907.148C641.766 867.451 656.164 819.721 654.832 771.115C656.31 734.087 648.033 697.324 630.836 664.534C613.64 631.745 588.132 604.09 556.888 584.36V584.555Z"
        fill="black" />
</svg>